<?xml version="1.0" encoding="utf-8"?>
<!-- Generator: Adobe Illustrator 20.1.0, SVG Export Plug-In . SVG Version: 6.00 Build 0)  -->
<svg version="1.1" id="Layer_1" xmlns="http://www.w3.org/2000/svg" xmlns:xlink="http://www.w3.org/1999/xlink" x="0px" y="0px"
	 viewBox="0 0 60 60" style="enable-background:new 0 0 60 60;" xml:space="preserve">
<path id="Fill-1" d="M48.3,28.7c-1,0-1.6-0.4-2.4-0.9c-1.1-0.8-2.6-1.7-5.4-1.7c-1.8,0-2.9,0.7-3.8,1.3c-1,0.7-1.9,1.3-4,1.3
	c-0.7,0-1.3,0.6-1.3,1.3c0,0.7,0.6,1.3,1.3,1.3c2.9,0,4.3-0.9,5.4-1.7c0.8-0.5,1.4-0.9,2.4-0.9c2.1,0,3,0.6,4,1.3
	c0.9,0.6,2,1.3,3.8,1.3c0.7,0,1.3-0.6,1.3-1.3C49.6,29.3,49,28.7,48.3,28.7 M30,57.4C14.9,57.4,2.6,45.1,2.6,30S14.9,2.6,30,2.6
	S57.4,14.9,57.4,30S45.1,57.4,30,57.4 M30,0C13.5,0,0,13.5,0,30s13.5,30,30,30s30-13.5,30-30S46.5,0,30,0 M48.3,36.5
	c-1,0-1.6-0.4-2.4-0.9c-1.1-0.8-2.6-1.7-5.4-1.7c-1.8,0-2.9,0.7-3.8,1.3c-1,0.7-1.9,1.3-4,1.3c-0.7,0-1.3,0.6-1.3,1.3
	s0.6,1.3,1.3,1.3c2.9,0,4.3-0.9,5.4-1.7c0.8-0.5,1.4-0.9,2.4-0.9c2.1,0,3,0.6,4,1.3c0.9,0.6,2,1.3,3.8,1.3c0.7,0,1.3-0.6,1.3-1.3
	C49.6,37.1,49,36.5,48.3,36.5 M32.6,23.5c2.9,0,4.3-0.9,5.4-1.7c0.8-0.5,1.4-0.9,2.4-0.9c2.1,0,3,0.6,4,1.3c0.9,0.6,2,1.3,3.8,1.3
	c0.7,0,1.3-0.6,1.3-1.3c0-0.7-0.6-1.3-1.3-1.3c-1,0-1.6-0.4-2.4-0.9c-1.1-0.8-2.6-1.7-5.4-1.7c-1.8,0-2.9,0.7-3.8,1.3
	c-1,0.7-1.9,1.3-4,1.3c-0.7,0-1.3,0.6-1.3,1.3C31.3,22.9,31.9,23.5,32.6,23.5 M27.4,13c-0.7,0-1.3,0.6-1.3,1.3v3.1l-3.3-1.7
	c-0.6-0.3-1.4-0.1-1.8,0.6c-0.3,0.6-0.1,1.4,0.6,1.8l4.5,2.2v8.3h-5.7l-2.2-4.5c-0.3-0.6-1.1-0.9-1.8-0.6c-0.6,0.3-0.9,1.1-0.6,1.8
	l1.7,3.3h-3.1c-0.7,0-1.3,0.6-1.3,1.3c0,0.7,0.6,1.3,1.3,1.3h3.1l-1.7,3.3c-0.3,0.6-0.1,1.4,0.6,1.8c0.2,0.1,0.4,0.1,0.6,0.1
	c0.5,0,0.9-0.3,1.2-0.7l2.2-4.5h5.7v8.3l-4.5,2.2C21,42,20.7,42.8,21,43.5c0.2,0.5,0.7,0.7,1.2,0.7c0.2,0,0.4,0,0.6-0.1l3.3-1.7v3.1
	c0,0.7,0.6,1.3,1.3,1.3c0.7,0,1.3-0.6,1.3-1.3V14.3C28.7,13.6,28.1,13,27.4,13"/>
</svg>
