<?xml version="1.0" encoding="utf-8"?>
<!-- Generator: Adobe Illustrator 18.1.1, SVG Export Plug-In . SVG Version: 6.00 Build 0)  -->
<svg version="1.1" id="Layer_1" xmlns="http://www.w3.org/2000/svg" xmlns:xlink="http://www.w3.org/1999/xlink" x="0px" y="0px"
	 width="24px" height="24px" viewBox="0 0 24 24" enable-background="new 0 0 24 24" xml:space="preserve">
<g>
	<path d="M20.4,0H3.6C1.6,0,0,1.6,0,3.6v16.8c0,2,1.6,3.6,3.6,3.6h16.8c2,0,3.6-1.6,3.6-3.6V3.6C24,1.6,22.4,0,20.4,0z M19.4,14.6
		c0,2.7-2.2,4.8-4.8,4.8H9.4c-2.7,0-4.8-2.2-4.8-4.8V9.3c0-2.7,2.2-4.8,4.8-4.8h2.4c2.7,0,4.8,2.2,4.8,4.8l0,0c0,0.5,0.5,0.9,1,0.9
		l0,0h0.8c0.5,0,1,0.4,1,1L19.4,14.6z"/>
	<path d="M9.3,10.3H12c0.5,0,0.9-0.4,0.9-0.9c0-0.5-0.4-0.9-0.9-0.9H9.3c-0.5,0-0.9,0.4-0.9,0.9C8.4,9.9,8.8,10.3,9.3,10.3z"/>
	<path d="M14.8,13.8H9.3c-0.5,0-0.9,0.4-0.9,0.9c0,0.5,0.4,0.9,0.9,0.9h5.5c0.5,0,0.9-0.4,0.9-0.9C15.6,14.2,15.3,13.8,14.8,13.8z"
		/>
</g>
</svg>
