<?xml version="1.0" encoding="utf-8"?>
<!-- Generator: Adobe Illustrator 19.2.1, SVG Export Plug-In . SVG Version: 6.00 Build 0)  -->
<svg version="1.1" id="Layer_1" xmlns="http://www.w3.org/2000/svg" xmlns:xlink="http://www.w3.org/1999/xlink" x="0px" y="0px"
 viewBox="0 0 81.5 50.9" style="enable-background:new 0 0 81.5 50.9;" xml:space="preserve">
<g>
	<path d="M72.4,31.7H25.6c-0.8,0-1.5-0.7-1.5-1.5V13.4c0-0.8,0.7-1.5,1.5-1.5h42.6c0.1,0,2.1-0.1,3.7,1.5c1.3,1.2,1.9,3,1.9,5.3
		v11.6C73.9,31,73.2,31.7,72.4,31.7z M27.1,28.7h43.7V18.6c0-1.4-0.3-2.4-0.9-3.1c-0.7-0.7-1.6-0.7-1.6-0.7l-41.1,0V28.7z"/>
</g>
<g>
	<path d="M15.3,25.5c-4,0-7.2-3.2-7.2-7.2s3.2-7.2,7.2-7.2s7.2,3.2,7.2,7.2S19.3,25.5,15.3,25.5z M15.3,14.1c-2.3,0-4.2,1.9-4.2,4.2
		s1.9,4.2,4.2,4.2s4.2-1.9,4.2-4.2S17.6,14.1,15.3,14.1z"/>
</g>
<g>
	<path d="M20.8,30.2H7.3c-0.8,0-1.5-0.7-1.5-1.5s0.7-1.5,1.5-1.5h13.5c0.8,0,1.5,0.7,1.5,1.5S21.6,30.2,20.8,30.2z"/>
</g>
<g>
	<rect y="35.2" width="4" height="15.7"/>
</g>
<g>
	<rect x="77.5" y="35.2" width="4" height="15.7"/>
</g>
<g>
	<path d="M81.5,37.2H0V2c0-1.1,0.9-2,2-2s2,0.9,2,2v31.2h73.5V10.6c0-1.1,0.9-2,2-2s2,0.9,2,2V37.2z"/>
</g>
</svg>
