<?xml version="1.0" encoding="utf-8"?>
<!-- Generator: Adobe Illustrator 19.2.1, SVG Export Plug-In . SVG Version: 6.00 Build 0)  -->
<svg version="1.1" id="Layer_1" xmlns="http://www.w3.org/2000/svg" xmlns:xlink="http://www.w3.org/1999/xlink" x="0px" y="0px"
	 width="225.5px" height="225.5px" viewBox="0 0 225.5 225.5" style="enable-background:new 0 0 225.5 225.5;" xml:space="preserve"
	>
<title>Close</title>
<desc>Created with Sketch.</desc>
<g id="Suite">
	<g id="Search_DEV" transform="translate(-1367.000000, -17.000000)">
		<path id="Close" d="M1479.8,108.1l-86.7-86.7c-5.8-5.8-15.6-5.9-21.6,0.1c-6,6-6,15.6-0.1,21.6l86.7,86.7l-86.7,86.7
			c-5.8,5.8-5.9,15.6,0.1,21.6c6,6,15.6,6,21.6,0.1l86.7-86.7l86.7,86.7c5.8,5.8,15.6,5.9,21.6-0.1c6-6,6-15.6,0.1-21.6l-86.7-86.7
			l86.7-86.7c5.8-5.8,5.9-15.6-0.1-21.6c-6-6-15.6-6-21.6-0.1L1479.8,108.1z"/>
	</g>
</g>
</svg>
