<?xml version="1.0" encoding="utf-8"?>
<!-- Generator: Adobe Illustrator 20.1.0, SVG Export Plug-In . SVG Version: 6.00 Build 0)  -->
<svg version="1.1" id="Layer_1" xmlns="http://www.w3.org/2000/svg" xmlns:xlink="http://www.w3.org/1999/xlink" x="0px" y="0px"
	 viewBox="0 0 85.4 60" style="enable-background:new 0 0 85.4 60;" xml:space="preserve">
<path id="Fill-1" d="M20.9,1.9c-5.2,0-9.4,4.2-9.4,9.4s4.2,9.4,9.4,9.4s9.4-4.2,9.4-9.4C30.2,6.1,26,1.9,20.9,1.9L20.9,1.9z
	 M20.9,22.6c-6.2,0-11.3-5.1-11.3-11.3C9.6,5.1,14.6,0,20.9,0s11.3,5.1,11.3,11.3S27.1,22.6,20.9,22.6L20.9,22.6z M37.4,58.1h2.4
	V32.8c0-4.3-3.4-7.7-7.6-7.7H9.7c-4.3,0-7.7,3.5-7.7,7.7V58h2.7V37.3c0-0.5,0.4-1,1-1h4.6c0.5,0,1,0.4,1,1v20.8h19.6V37.3
	c0-0.5,0.4-1,1-1h4.6c0.5,0,1,0.4,1,1L37.4,58.1L37.4,58.1z M40.8,60h-4.4c-0.5,0-1-0.4-1-1V38.3h-2.7V59c0,0.5-0.4,1-1,1H10.2
	c-0.5,0-1-0.4-1-1V38.3H6.6V59c0,0.5-0.4,1-1,1H1c-0.5,0-1-0.4-1-1V32.8c0-5.3,4.3-9.7,9.7-9.7h22.5c5.3,0,9.6,4.3,9.6,9.7V59
	C41.7,59.6,41.3,60,40.8,60L40.8,60z"/>
<path id="Fill-4" d="M64.5,1.9c-5.2,0-9.4,4.2-9.4,9.4s4.2,9.4,9.4,9.4c5.2,0,9.4-4.2,9.4-9.4C73.9,6.1,69.7,1.9,64.5,1.9L64.5,1.9z
	 M64.5,22.6c-6.2,0-11.3-5.1-11.3-11.3S58.3,0,64.5,0c6.2,0,11.3,5.1,11.3,11.3S70.7,22.6,64.5,22.6L64.5,22.6z M81.3,58.1h2.1V32.8
	c0-4.3-3.5-7.7-7.7-7.7H53.3c-4.3,0-7.7,3.5-7.7,7.7V58h3.3l3.7-19.4c0.1-0.5,0.5-0.8,1.1-0.8l4.4,0.5c0.3,0,0.5,0.2,0.7,0.4
	s0.2,0.5,0.2,0.8L55.3,58h18.9l-2.8-18.6c0-0.3,0-0.5,0.2-0.7s0.4-0.3,0.7-0.4l4.3-0.5c0.5-0.1,1,0.3,1.1,0.8L81.3,58.1z M84.4,60
	h-3.9c-0.5,0-0.9-0.3-1-0.8l-3.7-19.3l-2.4,0.3l2.8,18.7c0,0.3,0,0.6-0.2,0.8c-0.2,0.2-0.5,0.3-0.7,0.3H53.9c-0.3,0-0.6-0.1-0.7-0.4
	c-0.2-0.2-0.3-0.5-0.2-0.8l3.8-18.7l-2.4-0.3l-3.8,19.4c-0.1,0.5-0.5,0.8-1,0.8h-5c-0.5,0-1-0.4-1-1V32.8c0-5.3,4.3-9.7,9.7-9.7
	h22.4c5.3,0,9.7,4.3,9.7,9.7V59C85.4,59.6,84.9,60,84.4,60L84.4,60z"/>
</svg>
