<?xml version="1.0" encoding="utf-8"?>
<!-- Generator: Adobe Illustrator 19.2.1, SVG Export Plug-In . SVG Version: 6.00 Build 0)  -->
<svg version="1.1" id="Layer_3" xmlns="http://www.w3.org/2000/svg" xmlns:xlink="http://www.w3.org/1999/xlink" x="0px" y="0px"
	 width="299.9px" height="300px" viewBox="0 0 299.9 300" style="enable-background:new 0 0 299.9 300;" xml:space="preserve">
<style type="text/css">
	.st0{display:none;fill:none;stroke:#231F20;stroke-width:5;stroke-miterlimit:10;}
</style>
<circle class="st0" cx="146.5" cy="490.4" r="147.5"/>
<g>
	<path d="M228.9,206.9h5.6V190h-5.6V206.9z M229.9,191h3.6v14.9h-3.6V191z"/>
	<path d="M228.9,231.8h5.6v-22.6h-5.6V231.8z M229.9,210.3h3.6v20.6h-3.6V210.3z"/>
	<path d="M229.3,187.6h5.3v-11.4l-5.3-0.8V187.6z M230.3,176.5l3.3,0.5v9.6h-3.3V176.5z"/>
	<polygon points="34.8,246.1 34.8,246.1 34.8,246.1 	"/>
	<path d="M273.2,64.6c-21.2-30.5-53.5-52.8-91-61.1C171.9,1.2,161.1,0,150,0C67.3,0,0,67.3,0,150c0,35.4,12.3,67.9,32.8,93.5v0.1
		c0.7,0.8,1.3,1.6,2,2.4V246c0,0,0.1,0.1,0.1,0.1h-0.1c0.3,0.3,0.5,0.7,0.8,1h0.1c4.4,5.1,9,9.9,14,14.4v0.1c0.3,0.3,0.7,0.6,1,0.9
		v-0.1c0.4,0.3,0.7,0.6,1.1,0.9h-0.1c0.4,0.3,0.8,0.7,1.2,1h0.1c4.1,3.5,8.4,6.8,12.9,9.8v0.1c0.3,0.2,0.7,0.4,1,0.7v-0.1
		c3.5,2.3,7,4.5,10.6,6.5h-0.1c0.6,0.3,1.2,0.7,1.8,1h0.1c0.7,0.4,1.4,0.7,2.1,1.1v0.1c0.3,0.2,0.7,0.3,1,0.5v0
		c5,2.5,10.2,4.8,15.5,6.8v0c0.7,0.2,1.3,0.5,2,0.7v0c1.9,0.7,3.7,1.3,5.6,1.9v0c0.7,0.2,1.3,0.4,2,0.6v0c0.3,0.1,0.5,0.2,0.8,0.2h0
		c1.2,0.3,2.4,0.7,3.7,1h0c0.4,0.1,0.9,0.2,1.3,0.3c0.8,0.2,1.5,0.4,2.3,0.6c0.3,0.1,0.5,0.1,0.8,0.2c10.8,2.4,21.9,3.7,33.4,3.7
		c27.2,0,52.8-7.3,74.8-19.9c1.2-0.7,2.5-1.5,3.7-2.2c0.5-0.3,1-0.6,1.5-0.9c1.3-0.8,2.6-1.7,3.9-2.5c0.2-0.2,0.5-0.3,0.7-0.5
		c1.2-0.8,2.4-1.7,3.6-2.6c0.3-0.2,0.6-0.4,0.9-0.7c1.3-1,2.7-2,4-3c2-1.6,4-3.3,5.9-5c1.3-1.1,2.6-2.3,3.8-3.5
		c0.9-0.9,1.9-1.8,2.8-2.7c0.4-0.4,0.9-0.9,1.3-1.3c0.4-0.4,0.9-0.9,1.3-1.3c0.3-0.4,0.7-0.7,1-1.1c0.5-0.6,1.1-1.1,1.6-1.7
		c0.2-0.2,0.4-0.4,0.6-0.6c0.7-0.7,1.3-1.4,1.9-2.2c0,0,0,0,0,0c1.6-1.8,3.1-3.6,4.5-5.5c0,0,0,0,0-0.1c20-25.5,32-57.6,32-92.6
		C299.9,118.3,290.1,88.8,273.2,64.6z M49.8,254.7c-2.6-2.4-5-5-7.4-7.6h7.4V254.7z M49.8,246.1h-8.3c-2.3-2.6-4.6-5.3-6.7-8.1v-8.2
		h15V246.1z M49.8,228.8h-15v-16.3h15V228.8z M49.8,211.6h-15v-15.9h15V211.6z M49.8,194.7h-15v-16.3h15V194.7z M49.8,177.4h-15
		v-16.2h15V177.4z M49.8,160.2h-15V144h15V160.2z M49.8,143h-15v-18.2h15V143z M49.8,123.7h-15v-16.3h15V123.7z M49.8,106.5h-15
		V90.3h6.8v-0.4l8.2-0.1V106.5z M49.8,88.8l-8.2,0.1V86l8.2-0.2V88.8z M49.8,84.8L41.7,85v-3.2l8.2-0.3V84.8z M49.8,80.6l-8.2,0.3
		v-3.1l8.2-0.3V80.6z M49.8,76.5l-8.2,0.3v-3l8.2-0.3V76.5z M49.8,72.5l-8.2,0.3v-2.3h5.5v-1.6l2.7-0.1V72.5z M49.8,67.8l-2.7,0.1
		v-2.7l2.7-0.1V67.8z M49.8,64.1l-2.7,0.1v-2.6l2.7-0.1V64.1z M66,268.1c-1.7-1.2-3.4-2.5-5-3.8h5V268.1z M66,263.4h-6.3
		c-3.1-2.4-6-5-8.9-7.7v-8.6H66V263.4z M66,246.1H50.8v-16.3H66V246.1z M66,228.8H50.8v-16.3H66V228.8z M66,211.6H50.8v-15.9H66
		V211.6z M66,194.7H50.8v-16.3H66V194.7z M66,177.4H50.8v-16.2H66V177.4z M66,160.2H50.8V144H66V160.2z M66,143H50.8v-18.2H66V143z
		 M66,123.7H50.8v-16.3H66V123.7z M66,106.5H50.8V89.8L66,89.5V106.5z M66,88.5l-15.2,0.3v-3L66,85.4V88.5z M66,84.4l-15.2,0.4v-3.2
		L66,81.1V84.4z M66,80.1l-15.2,0.5v-3.1L66,76.9V80.1z M66,75.9l-15.2,0.5v-3L66,73V75.9z M66,72l-15.2,0.5v-3.7L66,68.3V72z
		 M66,67.3l-15.2,0.5v-2.7L66,64.7V67.3z M66,63.7l-15.2,0.4v-2.7L66,60.7V63.7z M81.6,277.8c-5-2.7-9.9-5.7-14.6-9v-4.4h14.6V277.8
		z M81.6,263.4H67v-16.3h14.6V263.4z M81.6,246.1H67v-16.3h14.6V246.1z M81.6,228.8H67v-16.3h14.6V228.8z M81.6,211.6H67v-15.9h14.6
		V211.6z M81.6,194.7H67v-16.3h14.6V194.7z M81.6,177.4H67v-16.2h14.6V177.4z M81.6,160.2H67V144h14.6V160.2z M81.6,143H67v-18.2
		h14.6V143z M81.6,123.7H67v-16.3h14.6V123.7z M81.6,106.5H67v-17l14.6-0.2V106.5z M81.6,88.3L67,88.5v-3.2l14.6-0.4V88.3z
		 M81.6,83.9L67,84.3v-3.3l14.6-0.4V83.9z M81.6,79.6L67,80.1v-3.2l14.6-0.5V79.6z M81.6,75.4L67,75.9V73l14.6-0.5V75.4z M81.6,71.5
		L67,72v-3.7l14.6-0.5V71.5z M81.6,66.8L67,67.3v-2.6l14.6-0.4V66.8z M81.6,63.2L67,63.7v-3l14.6-0.7V63.2z M98.1,285.4
		c-2.5-0.9-4.9-2-7.3-3h7.3L98.1,285.4z M98.1,281.4h-9.5c-2-1-4.1-2-6.1-3v-14h15.5L98.1,281.4z M98.1,263.4H82.6v-16.3h15.5
		L98.1,263.4z M98.1,246.1H82.6v-16.3h15.5L98.1,246.1z M98.1,228.8H82.6v-16.3h15.6L98.1,228.8z M98.1,211.6H82.6v-15.9h15.6
		L98.1,211.6z M98.1,194.7H82.6v-16.3h15.6L98.1,194.7z M98.2,177.4H82.6v-16.2h15.6L98.2,177.4z M98.2,160.2H82.6V144h15.6
		L98.2,160.2z M98.2,143H82.6v-18.2h15.6L98.2,143z M98.2,123.7H82.6v-16.3h15.6L98.2,123.7z M98.2,106.5H82.6V89.3L96,89h2.2
		L98.2,106.5z M86.9,64.1l0.1,2.5l-4.4,0.1v-2.5L86.9,64.1z M82.6,63.2v-3.3l4.2-0.2l0.1,3.4L82.6,63.2z M87,67.6l0,0.9h4l0.6,0.3
		v2.4l-9.1,0.3v-3.7L87,67.6z M93.7,75.4v-2.8l16.3,6.9v2.6L93.7,75.4z M110,83.2v2.8l-16.3-6.3v-3.1L110,83.2z M108.6,76.3v1.5
		l-14.9-6.3v-1.8L108.6,76.3z M93.7,68.6v-1.9l14.9,6.7v1.8L93.7,68.6z M108.6,72.3l-19.6-8.8l-0.1-3.2l19.7,9.9V72.3z M93.3,66.5
		H89l0,0l-0.1-2L93.3,66.5z M91.7,72.2v2.9l-9.1,0.3v-2.9L91.7,72.2z M91.7,76.1v3.2l-9.1,0.3v-3.2L91.7,76.1z M91.7,80.3v3.4
		l-9.1,0.2v-3.3L91.7,80.3z M91.7,84.7v3.4l-9.1,0.2v-3.3L91.7,84.7z M93.7,87v-2l5.5,2H93.7z M93.7,84v-3.3L110,87v2.8L93.7,84z
		 M100.2,143.3l0-18.6l9.8,2.7v19.1L100.2,143.3z M110,147.5v15.9l-9.8-3.2l0-15.8L110,147.5z M100.2,123.6l0-15.8l9.8,3.2v15.2
		L100.2,123.6z M100.2,106.8l0-15.2l9.8,4v14.5L100.2,106.8z M100.2,90.5l0-3.1l9.8,3.5v3.6L100.2,90.5z M100.1,263.6l0-16.2
		l5.5,0.9l0.1,16.2L100.1,263.6z M105.6,265.5l0.1,16.7l-5.6-0.8l0-16.8L105.6,265.5z M100.1,246.3l0-16.3l5.4,0.9l0.1,16.3
		L100.1,246.3z M100.1,229l0-16.2l5.3,1.1l0.1,16L100.1,229z M100.1,211.8l0-15.8l5.3,1.4l0.1,15.5L100.1,211.8z M100.1,195l0-16.2
		l5.2,1.5l0.1,16.1L100.1,195z M100.1,286.2l0-3.7l5.6,0.8l0,4.9C103.8,287.5,102,286.8,100.1,286.2z M100.2,177.7l0-16.5l9.8,3.2
		v15.1l-2.7,0.1L100.2,177.7z M107.3,181.7l11.2-0.6v0l15.4-0.8l0,3.9h-26.6L107.3,181.7z M114.2,84.9v2.7l-3.2-1.3v-2.8L114.2,84.9
		z M111,82.5v-2.6l3.1,1.3l0.1-0.3v3L111,82.5z M114.2,88.7v2.7l-3.2-1.2v-2.8L114.2,88.7z M114.2,92.5v3.8l-3.2-1.3v-3.6
		L114.2,92.5z M114.2,97.3v2.4l5.4,2.6l0.1,11.1l-8.7-2.9V96L114.2,97.3z M119.7,114.4l0.1,14.6l-8.8-2.4v-15.1L119.7,114.4z
		 M119.8,130l0.1,19.5l-8.9-2.8v-19.1L119.8,130z M119.9,150.6l0.1,16.1l-9-2.9v-15.9L119.9,150.6z M119.9,167.7l0,0.7l-1.4-0.1
		v10.8l-7.6,0.4v-14.8L119.9,167.7z M107.4,185.3h26.6l0,2.5h-26.6L107.4,185.3z M107.4,188.9h26.6l0,2.5h-26.6L107.4,188.9z
		 M107.4,192.4H134l0,2.5h-26.6L107.4,192.4z M107.4,196H134l0,2.5h-26.6L107.4,196z M107.4,199.5H134l0,2.5h-26.6L107.4,199.5z
		 M107.4,203H134l0,2.5h-26.6L107.4,203z M107.4,206.6H134l0,2.5h-26.6L107.4,206.6z M107.4,210.1H134l0,2.5h-26.6L107.4,210.1z
		 M107.5,213.7H134l0,2.5h-26.6L107.5,213.7z M107.5,217.2H134l0,2.5h-26.6L107.5,217.2z M107.5,220.8h26.6l0,2.5h-26.6L107.5,220.8
		z M107.5,224.3h26.6l0,2.5h-26.6L107.5,224.3z M107.5,227.8h26.6l0,2.5h-26.6L107.5,227.8z M107.5,231.4h26.6l0,2.5h-26.6
		L107.5,231.4z M107.5,234.9h26.6l0,2.5h-26.6L107.5,234.9z M107.5,238.5h26.6l0,2.5h-26.6L107.5,238.5z M107.6,242h26.6l0,2.5
		h-26.6L107.6,242z M107.6,245.6h26.6l0,2.5h-26.6L107.6,245.6z M107.6,249.1h26.6l0,2.5h-26.6L107.6,249.1z M107.6,252.6h26.6
		l0,2.5h-26.6L107.6,252.6z M107.6,256.2h26.6l0,2.5h-26.6L107.6,256.2z M107.6,259.7h26.6l0,2.5h-26.6L107.6,259.7z M107.6,263.3
		h26.6l0,2.5h-26.6L107.6,263.3z M107.6,266.8h26.6l0,2.5h-26.6L107.6,266.8z M107.7,270.4h26.6l0,2.5h-26.6L107.7,270.4z
		 M107.7,273.9h26.6l0,2.5h-26.6L107.7,273.9z M107.7,277.4h26.6l0,2.5h-26.6L107.7,277.4z M107.7,281h26.6l0,2.5h-26.6L107.7,281z
		 M107.7,284.5h26.6l0,2.5h-26.6L107.7,284.5z M114.6,290.6c-2.3-0.6-4.6-1.2-6.8-1.9l0-0.6h26.6l0,2.5H114.6z M118.8,291.6h15.5
		l0,2.5C129.1,293.6,123.9,292.7,118.8,291.6z M137.9,294.5c-0.5,0-1.1-0.1-1.6-0.1l-0.4-113.7l2,0.6V294.5z M142,294.8
		c-1-0.1-2.1-0.1-3.1-0.2v-113l3.1,0.9V294.8z M135,178.3l-14.5,0.7v-8.6l31,2.2v10.6l-9.6-2.9L135,178.3z M146,294.9
		c-1,0-2.1-0.1-3.1-0.1v-112l3.1,0.9V294.9z M150.1,295c0,0-0.1,0-0.1,0c-1,0-2,0-3,0V184.1l3.1,0.9V295z M154.2,294.9
		c-1,0-2.1,0-3.1,0.1V185.3l2.5,0.7v0l0.6,0.2V294.9z M158.3,294.8c-1,0.1-2.1,0.1-3.1,0.1V186.5l3.1,0.9V294.8z M161.4,294.6
		c-0.7,0.1-1.4,0.1-2.1,0.1V187.8l1.7,0.5l0.5,51.7V294.6z M163.4,240v-0.1h26.7l0,3.1h-26.7L163.4,240z M190,227.1l0,3.2l-26.6,0.7
		v-3.1L190,227.1z M163.4,226.9v-3.3l26.6-0.7l0,3.1L163.4,226.9z M190.1,231.3l0,3.5h-26.7V232L190.1,231.3z M190.1,235.8l0,3.1
		h-26.7v-3.1H190.1z M163.4,244.1h26.7l0,3.1h-26.7L163.4,244.1z M163.5,248.2h26.7l0,3.1h-26.7L163.5,248.2z M163.5,252.4h26.7
		l0,3.1h-26.7L163.5,252.4z M163.5,256.5h26.7l0,3.1h-26.7L163.5,256.5z M163.6,260.6h26.7l0,3.1h-26.7L163.6,260.6z M163.6,264.8
		h26.7l0,3.1h-26.7L163.6,264.8z M163.7,268.9h26.7l0,3.1h-26.7L163.7,268.9z M163.7,273.1h26.7l0,3.1h-26.7L163.7,273.1z
		 M163.7,277.2h26.7l0,3.1h-26.7L163.7,277.2z M163.8,281.4h26.7l0,3.1h-26.7L163.8,281.4z M163.9,294.3l0-0.5h4.6
		C167,294,165.4,294.2,163.9,294.3z M175.1,292.8h-11.2l0-3.1H189C184.4,290.9,179.8,292,175.1,292.8z M163.8,288.7l0-3.1h26.7
		l0,3.1H163.8z M194.9,287.9c-0.8,0.3-1.6,0.5-2.4,0.8l-0.6-65.1l3,1.4V287.9z M199,286.5c-1,0.4-2,0.7-3.1,1.1v-62.2l3.1,1.5V286.5
		z M203.1,284.9c-1,0.4-2,0.8-3.1,1.2v-58.8l3.1,1.5V284.9z M207.2,283.2c-1,0.4-2,0.9-3.1,1.3v-55.3l3.1,1.5V283.2z M211.3,281.4
		c-1,0.5-2,0.9-3.1,1.4v-51.7l3.1,1.5V281.4z M215.3,279.4c-1,0.5-2,1-3.1,1.5v-47.9l3.1,1.5V279.4z M218.6,277.7
		c-0.7,0.4-1.5,0.8-2.2,1.2V235l2.2,1V277.7z M243.3,260.9c-6,5-12.4,9.6-19.1,13.6c-0.3-47.8-1.1-95.6-1.3-104.8
		c6,3.2,12.8,5.1,20.1,5.1c0.1,0,0.2,0,0.3,0V260.9z M216.4,162.8c-0.1-0.1-0.3-0.2-0.4-0.3c0-0.2,0-0.3,0-0.5c0-2-1.6-3.6-3.5-3.7
		c0.9,0,1.7-0.4,2.3-1c0.7,0.8,1.5,1.6,2.3,2.4c-0.5,0.6-0.8,1.4-0.8,2.3C216.2,162.2,216.3,162.5,216.4,162.8z M215,161.5
		c-0.7-0.7-1.5-1.4-2.1-2.2C213.9,159.5,214.8,160.4,215,161.5z M210.7,156.7c-0.3-0.4-0.7-0.9-1-1.4c-0.1-0.3-0.1-0.5-0.1-0.8
		c0-1,0.6-1.9,1.4-2.4c0.9,1.5,2,3,3.1,4.3c-0.5,0.5-1.1,0.8-1.9,0.8C211.7,157.2,211.2,157,210.7,156.7z M212.1,158.2
		c-0.1,0-0.1,0-0.2,0c0,0,0,0,0,0C212,158.2,212.1,158.2,212.1,158.2z M212.3,107.5c0.7,0,1.4,0.3,1.9,0.8c-1.1,1.4-2.2,2.8-3.1,4.3
		c-0.9-0.5-1.4-1.3-1.4-2.4c0-0.3,0.1-0.6,0.1-0.8c0.3-0.5,0.7-0.9,1-1.4C211.2,107.6,211.7,107.5,212.3,107.5z M211.9,106.5
		C211.9,106.5,211.9,106.5,211.9,106.5c0.1,0,0.2,0,0.3,0C212.1,106.5,212,106.5,211.9,106.5z M216,102.8c0-0.2,0-0.3,0-0.5
		c0.1-0.1,0.3-0.2,0.4-0.3c-0.1,0.3-0.1,0.6-0.1,0.8c0,0.9,0.3,1.7,0.8,2.3c-0.8,0.8-1.6,1.5-2.3,2.4c-0.6-0.6-1.5-1-2.4-1
		C214.4,106.4,216,104.8,216,102.8z M212.8,105.4c0.7-0.8,1.4-1.5,2.1-2.2C214.8,104.3,213.9,105.2,212.8,105.4z M212.3,151.8
		c1.5,0,2.7,1.2,2.7,2.7c0,0.4-0.1,0.8-0.2,1.1c-1-1.2-1.9-2.5-2.7-3.8C212.1,151.8,212.2,151.8,212.3,151.8z M211.4,150.9
		c0-0.1-0.1-0.2-0.1-0.2c0.3,0.1,0.6,0.1,0.9,0.1C211.9,150.8,211.7,150.9,211.4,150.9z M210.4,149.1c-0.3-0.6-0.6-1.1-0.8-1.7
		c0-0.1,0-0.2,0-0.3c0-1.5,1.2-2.7,2.7-2.7s2.7,1.2,2.7,2.7s-1.2,2.7-2.7,2.7C211.6,149.8,210.9,149.6,210.4,149.1z M206.6,136.6
		c0-0.4-0.1-0.7-0.1-1.1c1.1-0.6,1.8-1.8,1.8-3.2s-0.7-2.5-1.8-3.2c0-0.4,0.1-0.7,0.1-1.1c1-0.7,1.7-1.8,1.7-3.1
		c0-0.8-0.3-1.5-0.7-2.2c0.3-1.3,0.8-2.6,1.3-3.8c0.6,1.3,1.8,2.2,3.3,2.2c-2,0.1-3.6,1.7-3.6,3.7c0,2,1.6,3.6,3.6,3.7
		c-2,0.1-3.6,1.7-3.6,3.7s1.6,3.6,3.6,3.7c-2,0.1-3.6,1.7-3.6,3.7c0,2,1.6,3.6,3.6,3.7c-1.5,0-2.7,1-3.3,2.2
		c-0.5-1.2-0.9-2.5-1.3-3.8c0.4-0.6,0.7-1.3,0.7-2.2C208.3,138.4,207.6,137.3,206.6,136.6z M207.5,144.8c-0.7-0.8-1.6-1.3-2.8-1.4
		c0.8,0,1.5-0.3,2.1-0.7C207,143.4,207.2,144.1,207.5,144.8z M206.8,138.2c0.3,0.4,0.5,1,0.5,1.6c0,0.2,0,0.4-0.1,0.6
		C207.1,139.6,206.9,138.9,206.8,138.2z M206.4,134.4c0-0.7-0.1-1.3-0.1-2c0-0.7,0-1.3,0.1-2c0.6,0.5,0.9,1.2,0.9,2
		S207,133.9,206.4,134.4z M206.8,122c-0.6-0.4-1.3-0.7-2.1-0.7c1.1,0,2.1-0.6,2.8-1.4C207.2,120.6,207,121.3,206.8,122z
		 M207.3,124.9c0,0.6-0.2,1.1-0.5,1.6c0.1-0.7,0.3-1.5,0.4-2.2C207.3,124.5,207.3,124.7,207.3,124.9z M209.6,139.7
		c0-1.5,1.2-2.7,2.7-2.7s2.7,1.2,2.7,2.7s-1.2,2.7-2.7,2.7S209.6,141.2,209.6,139.7z M209.6,132.3c0-1.5,1.2-2.7,2.7-2.7
		s2.7,1.2,2.7,2.7s-1.2,2.7-2.7,2.7S209.6,133.8,209.6,132.3z M209.6,124.9c0-1.5,1.2-2.7,2.7-2.7s2.7,1.2,2.7,2.7s-1.2,2.7-2.7,2.7
		S209.6,126.4,209.6,124.9z M209.6,117.6c0-0.1,0-0.2,0-0.3c0.3-0.6,0.5-1.1,0.8-1.7c0.5-0.5,1.1-0.7,1.9-0.7c1.5,0,2.7,1.2,2.7,2.7
		s-1.2,2.7-2.7,2.7S209.6,119,209.6,117.6z M211.3,114c0-0.1,0.1-0.2,0.1-0.2c0.2,0.1,0.5,0.1,0.7,0.1
		C211.9,113.9,211.6,113.9,211.3,114z M212,112.8c0.8-1.3,1.7-2.6,2.7-3.8c0.2,0.3,0.2,0.7,0.2,1.1c0,1.5-1.2,2.7-2.7,2.7
		C212.2,112.9,212.1,112.8,212,112.8z M210.5,113.4c-0.3,0.5-0.6,1.1-0.9,1.6c-0.5,0.5-0.9,1.2-1,2c-0.1,0.2-0.2,0.5-0.3,0.7
		c0-0.1,0-0.1,0-0.2c0-1.3-0.6-2.4-1.7-3.1c0.6-1.2,1.3-2.4,2-3.6C208.9,112,209.6,112.9,210.5,113.4z M207.3,117.6
		c0,1.5-1.2,2.7-2.7,2.7c-0.1,0-0.2,0-0.3,0c0.5-1.7,1.1-3.3,1.9-4.8C206.9,115.9,207.3,116.7,207.3,117.6z M204.5,121.2
		c-0.1,0-0.3,0-0.4,0c0,0,0-0.1,0-0.1C204.2,121.2,204.4,121.2,204.5,121.2z M204.6,122.2c0.7,0,1.4,0.3,1.9,0.8
		c-0.4,1.4-0.6,2.9-0.8,4.4c-0.3,0.1-0.7,0.2-1.1,0.2c-0.6,0-1.3-0.2-1.7-0.6c0.2-1.6,0.5-3.1,0.9-4.6
		C204,122.3,204.3,122.2,204.6,122.2z M205.5,128.8c-0.3-0.1-0.5-0.1-0.8-0.1c0.3,0,0.6-0.1,0.8-0.1
		C205.5,128.6,205.5,128.7,205.5,128.8z M205.6,136.2c-0.3-0.1-0.5-0.1-0.8-0.1c0.3,0,0.5,0,0.8-0.1
		C205.5,136,205.5,136.1,205.6,136.2z M204.5,128.6c-0.7,0-1.3,0.2-1.8,0.6c0-0.4,0-0.7,0.1-1.1
		C203.3,128.4,203.8,128.6,204.5,128.6z M204.6,129.6c0.3,0,0.6,0.1,0.8,0.1c-0.1,0.8-0.1,1.7-0.1,2.6s0,1.7,0.1,2.6
		c-0.3,0.1-0.5,0.1-0.8,0.1c-0.8,0-1.6-0.4-2.1-1c0-0.6,0-1.1,0-1.7s0-1.2,0-1.7C203.1,130,203.8,129.6,204.6,129.6z M204.5,136
		c-0.6,0-1.2,0.2-1.7,0.5c0-0.4-0.1-0.7-0.1-1.1C203.2,135.8,203.8,136,204.5,136z M204.6,137c0.4,0,0.7,0.1,1.1,0.2
		c0.2,1.5,0.5,3,0.8,4.4c-0.5,0.5-1.2,0.8-1.9,0.8c-0.3,0-0.6-0.1-0.9-0.2c-0.4-1.5-0.7-3-0.9-4.6C203.4,137.3,204,137,204.6,137z
		 M204.5,143.4c-0.1,0-0.3,0-0.4,0c0,0,0-0.1,0-0.1C204.2,143.4,204.4,143.4,204.5,143.4z M204.6,144.4c1.5,0,2.7,1.2,2.7,2.7
		c0,0.9-0.4,1.6-1.1,2.1c-0.7-1.6-1.3-3.2-1.9-4.8C204.5,144.5,204.5,144.4,204.6,144.4z M208.3,147.1c0-0.1,0-0.1,0-0.2
		c0.1,0.2,0.2,0.5,0.3,0.7c0.1,0.8,0.5,1.5,1,2c0.3,0.5,0.6,1.1,0.9,1.6c-0.9,0.5-1.6,1.4-1.8,2.5c-0.7-1.1-1.4-2.3-2-3.6
		C207.7,149.5,208.3,148.4,208.3,147.1z M215.4,156.4c0.3-0.6,0.6-1.2,0.6-1.9c0-2-1.6-3.6-3.6-3.7c2-0.1,3.6-1.7,3.6-3.7
		c0-2-1.6-3.6-3.6-3.7c2-0.1,3.6-1.7,3.6-3.7c0-2-1.6-3.6-3.6-3.7c2-0.1,3.6-1.7,3.6-3.7s-1.6-3.6-3.6-3.7c2-0.1,3.6-1.7,3.6-3.7
		c0-2-1.6-3.6-3.6-3.7c2-0.1,3.6-1.7,3.6-3.7c0-2-1.6-3.6-3.6-3.7c2-0.1,3.6-1.7,3.6-3.7c0-0.7-0.2-1.4-0.6-1.9
		c0.8-0.9,1.5-1.7,2.4-2.5c0.6,0.4,1.3,0.7,2,0.7c-2,0.1-3.6,1.7-3.6,3.7c0,2,1.6,3.6,3.6,3.7c-2,0.1-3.6,1.7-3.6,3.7
		c0,2,1.6,3.6,3.6,3.7c-2,0.1-3.6,1.7-3.6,3.7c0,2,1.6,3.6,3.6,3.7c-2,0.1-3.6,1.7-3.6,3.7s1.6,3.6,3.6,3.7c-2,0.1-3.6,1.7-3.6,3.7
		c0,2,1.6,3.6,3.6,3.7c-2,0.1-3.6,1.7-3.6,3.7c0,2,1.6,3.6,3.6,3.7c-2,0.1-3.6,1.7-3.6,3.7c0,2,1.6,3.6,3.6,3.7
		c-0.8,0-1.4,0.3-2,0.7C217,158.1,216.2,157.3,215.4,156.4z M231.8,96.4c-0.2,0.1-0.5,0.2-0.7,0.2c0.2-0.4,0.2-0.8,0.2-1.3
		c0-0.6-0.1-1.1-0.4-1.6c0.4-0.1,0.8-0.2,1.2-0.4c-0.4,0.6-0.6,1.3-0.6,2C231.6,95.7,231.7,96.1,231.8,96.4z M232.2,97.4
		c0.6,1,1.7,1.7,3,1.7c-2,0.1-3.6,1.7-3.6,3.7c0,2,1.6,3.6,3.6,3.7c-2,0.1-3.6,1.7-3.6,3.7c0,2,1.6,3.6,3.6,3.7
		c-2,0.1-3.6,1.7-3.6,3.7c0,2,1.6,3.6,3.6,3.7c-2,0.1-3.6,1.7-3.6,3.7c0,2,1.6,3.6,3.6,3.7c-2,0.1-3.6,1.7-3.6,3.7s1.6,3.6,3.6,3.7
		c-2,0.1-3.6,1.7-3.6,3.7c0,2,1.6,3.6,3.6,3.7c-2,0.1-3.6,1.7-3.6,3.7c0,2,1.6,3.6,3.6,3.7c-2,0.1-3.6,1.7-3.6,3.7
		c0,2,1.6,3.6,3.6,3.7c-2,0.1-3.6,1.7-3.6,3.7c0,2,1.6,3.6,3.6,3.7c-1.3,0-2.4,0.7-3,1.7c-0.7-0.2-1.3-0.4-2-0.7
		c-0.6-0.6-1.5-1-2.4-1c0,0,0,0,0,0c2-0.1,3.6-1.7,3.6-3.7c0-2-1.6-3.6-3.6-3.7c2-0.1,3.6-1.7,3.6-3.7c0-2-1.6-3.6-3.6-3.7
		c2-0.1,3.6-1.7,3.6-3.7c0-2-1.6-3.6-3.6-3.7c2-0.1,3.6-1.7,3.6-3.7c0-2-1.6-3.6-3.6-3.7c2-0.1,3.6-1.7,3.6-3.7s-1.6-3.6-3.6-3.7
		c2-0.1,3.6-1.7,3.6-3.7c0-2-1.6-3.6-3.6-3.7c2-0.1,3.6-1.7,3.6-3.7c0-2-1.6-3.6-3.6-3.7c2-0.1,3.6-1.7,3.6-3.7c0-2-1.6-3.6-3.6-3.7
		c2-0.1,3.6-1.7,3.6-3.7c0-2-1.6-3.6-3.6-3.7c0,0,0,0,0,0c0.9,0,1.8-0.4,2.4-1C230.8,97.8,231.5,97.6,232.2,97.4z M240.2,154.5
		c0-1.5,1.2-2.7,2.7-2.7s2.7,1.2,2.7,2.7s-1.2,2.7-2.7,2.7S240.2,156,240.2,154.5z M245.7,161.9c0,1.5-1.2,2.7-2.7,2.7
		s-2.7-1.2-2.7-2.7s1.2-2.7,2.7-2.7S245.7,160.4,245.7,161.9z M240.2,147.1c0-1.5,1.2-2.7,2.7-2.7s2.7,1.2,2.7,2.7s-1.2,2.7-2.7,2.7
		S240.2,148.6,240.2,147.1z M240.2,139.7c0-1.5,1.2-2.7,2.7-2.7s2.7,1.2,2.7,2.7s-1.2,2.7-2.7,2.7S240.2,141.2,240.2,139.7z
		 M240.2,132.3c0-1.5,1.2-2.7,2.7-2.7s2.7,1.2,2.7,2.7s-1.2,2.7-2.7,2.7S240.2,133.8,240.2,132.3z M240.2,124.9
		c0-1.5,1.2-2.7,2.7-2.7s2.7,1.2,2.7,2.7s-1.2,2.7-2.7,2.7S240.2,126.4,240.2,124.9z M240.2,117.6c0-1.5,1.2-2.7,2.7-2.7
		s2.7,1.2,2.7,2.7s-1.2,2.7-2.7,2.7S240.2,119,240.2,117.6z M240.2,110.2c0-1.5,1.2-2.7,2.7-2.7s2.7,1.2,2.7,2.7s-1.2,2.7-2.7,2.7
		S240.2,111.7,240.2,110.2z M240.2,102.8c0-1.5,1.2-2.7,2.7-2.7s2.7,1.2,2.7,2.7s-1.2,2.7-2.7,2.7S240.2,104.3,240.2,102.8z
		 M240.3,95.9c0.9-0.1,1.8-0.1,2.7-0.1s1.8,0,2.7,0.1c-0.2,1.3-1.3,2.2-2.7,2.2S240.5,97.1,240.3,95.9z M242.8,99.1
		c-2,0.1-3.6,1.7-3.6,3.7c0,2,1.6,3.6,3.6,3.7c-2,0.1-3.6,1.7-3.6,3.7c0,2,1.6,3.6,3.6,3.7c-2,0.1-3.6,1.7-3.6,3.7
		c0,2,1.6,3.6,3.6,3.7c-2,0.1-3.6,1.7-3.6,3.7c0,2,1.6,3.6,3.6,3.7c-2,0.1-3.6,1.7-3.6,3.7s1.6,3.6,3.6,3.7c-2,0.1-3.6,1.7-3.6,3.7
		c0,2,1.6,3.6,3.6,3.7c-2,0.1-3.6,1.7-3.6,3.7c0,2,1.6,3.6,3.6,3.7c-2,0.1-3.6,1.7-3.6,3.7c0,2,1.6,3.6,3.6,3.7
		c-2,0.1-3.6,1.7-3.6,3.7c0,2,1.6,3.6,3.6,3.7c-1.8,0.1-3.3,1.4-3.5,3.1c-0.1,0-0.2,0-0.4,0c-0.3-1.7-1.7-3-3.5-3.1
		c2-0.1,3.6-1.7,3.6-3.7c0-2-1.6-3.6-3.6-3.7c2-0.1,3.6-1.7,3.6-3.7c0-2-1.6-3.6-3.6-3.7c2-0.1,3.6-1.7,3.6-3.7c0-2-1.6-3.6-3.6-3.7
		c2-0.1,3.6-1.7,3.6-3.7c0-2-1.6-3.6-3.6-3.7c2-0.1,3.6-1.7,3.6-3.7s-1.6-3.6-3.6-3.7c2-0.1,3.6-1.7,3.6-3.7c0-2-1.6-3.6-3.6-3.7
		c2-0.1,3.6-1.7,3.6-3.7c0-2-1.6-3.6-3.6-3.7c2-0.1,3.6-1.7,3.6-3.7c0-2-1.6-3.6-3.6-3.7c2-0.1,3.6-1.7,3.6-3.7c0-2-1.6-3.6-3.6-3.7
		c1.8-0.1,3.3-1.4,3.5-3.1c0.1,0,0.2,0,0.4,0C239.6,97.7,241,99,242.8,99.1z M235.3,98.1c-0.8,0-1.6-0.4-2.1-1
		c1.5-0.4,3.1-0.7,4.7-1C237.6,97.2,236.5,98.1,235.3,98.1z M238,102.8c0,1.5-1.2,2.7-2.7,2.7s-2.7-1.2-2.7-2.7s1.2-2.7,2.7-2.7
		S238,101.3,238,102.8z M238,110.2c0,1.5-1.2,2.7-2.7,2.7s-2.7-1.2-2.7-2.7s1.2-2.7,2.7-2.7S238,108.7,238,110.2z M238,117.6
		c0,1.5-1.2,2.7-2.7,2.7s-2.7-1.2-2.7-2.7s1.2-2.7,2.7-2.7S238,116.1,238,117.6z M238,124.9c0,1.5-1.2,2.7-2.7,2.7s-2.7-1.2-2.7-2.7
		s1.2-2.7,2.7-2.7S238,123.5,238,124.9z M238,132.3c0,1.5-1.2,2.7-2.7,2.7s-2.7-1.2-2.7-2.7s1.2-2.7,2.7-2.7S238,130.9,238,132.3z
		 M238,139.7c0,1.5-1.2,2.7-2.7,2.7s-2.7-1.2-2.7-2.7s1.2-2.7,2.7-2.7S238,138.2,238,139.7z M238,147.1c0,1.5-1.2,2.7-2.7,2.7
		s-2.7-1.2-2.7-2.7s1.2-2.7,2.7-2.7S238,145.6,238,147.1z M238,154.5c0,1.5-1.2,2.7-2.7,2.7s-2.7-1.2-2.7-2.7s1.2-2.7,2.7-2.7
		S238,153,238,154.5z M238,161.9c0,1.5-1.2,2.7-2.7,2.7s-2.7-1.2-2.7-2.7s1.2-2.7,2.7-2.7S238,160.4,238,161.9z M237.9,168.6
		c-1.6-0.2-3.2-0.5-4.7-1c0.5-0.6,1.2-1,2.1-1C236.5,166.6,237.6,167.4,237.9,168.6z M238,169.6c-0.1,1.4-1.3,2.4-2.7,2.4
		c-0.1,0-0.2,0-0.3,0c-0.2,0-0.4-0.1-0.6-0.1c-1.1-0.4-1.8-1.4-1.8-2.6c0-0.3,0.1-0.5,0.1-0.8C234.4,169,236.2,169.4,238,169.6z
		 M239,169.7c0.1,0,0.2,0,0.3,0c0.2,1.4,1,2.5,2.3,3c-1.4,0-2.8-0.2-4.2-0.4C238.2,171.8,238.8,170.8,239,169.7z M240.3,169.8
		c0.9,0.1,1.8,0.1,2.7,0.1s1.8,0,2.7-0.1c-0.2,1.2-1.3,2.2-2.7,2.2S240.5,171.1,240.3,169.8z M243,168.9c-0.9,0-1.8,0-2.7-0.1
		c0.2-1.3,1.3-2.2,2.7-2.2s2.4,1,2.7,2.2C244.7,168.9,243.9,168.9,243,168.9z M243.1,165.6c2-0.1,3.6-1.7,3.6-3.7
		c0-2-1.6-3.6-3.6-3.7c2-0.1,3.6-1.7,3.6-3.7c0-2-1.6-3.6-3.6-3.7c2-0.1,3.6-1.7,3.6-3.7c0-2-1.6-3.6-3.6-3.7c2-0.1,3.6-1.7,3.6-3.7
		c0-2-1.6-3.6-3.6-3.7c2-0.1,3.6-1.7,3.6-3.7s-1.6-3.6-3.6-3.7c2-0.1,3.6-1.7,3.6-3.7c0-2-1.6-3.6-3.6-3.7c2-0.1,3.6-1.7,3.6-3.7
		c0-2-1.6-3.6-3.6-3.7c2-0.1,3.6-1.7,3.6-3.7c0-2-1.6-3.6-3.6-3.7c2-0.1,3.6-1.7,3.6-3.7c0-2-1.6-3.6-3.6-3.7
		c1.8-0.1,3.3-1.4,3.5-3.1c0.1,0,0.2,0,0.4,0c0.3,1.7,1.7,3,3.5,3.1c-2,0.1-3.6,1.7-3.6,3.7c0,2,1.6,3.6,3.6,3.7
		c-2,0.1-3.6,1.7-3.6,3.7c0,2,1.6,3.6,3.6,3.7c-2,0.1-3.6,1.7-3.6,3.7c0,2,1.6,3.6,3.6,3.7c-2,0.1-3.6,1.7-3.6,3.7
		c0,2,1.6,3.6,3.6,3.7c-2,0.1-3.6,1.7-3.6,3.7s1.6,3.6,3.6,3.7c-2,0.1-3.6,1.7-3.6,3.7c0,2,1.6,3.6,3.6,3.7c-2,0.1-3.6,1.7-3.6,3.7
		c0,2,1.6,3.6,3.6,3.7c-2,0.1-3.6,1.7-3.6,3.7c0,2,1.6,3.6,3.6,3.7c-2,0.1-3.6,1.7-3.6,3.7c0,2,1.6,3.6,3.6,3.7
		c-1.8,0.1-3.2,1.4-3.5,3.1c-0.1,0-0.2,0-0.4,0C246.3,167,244.9,165.7,243.1,165.6z M250.6,166.6c0.8,0,1.6,0.4,2.1,1
		c-1.5,0.4-3.1,0.7-4.7,1C248.4,167.4,249.4,166.6,250.6,166.6z M247.9,161.9c0-1.5,1.2-2.7,2.7-2.7s2.7,1.2,2.7,2.7
		s-1.2,2.7-2.7,2.7S247.9,163.4,247.9,161.9z M247.9,154.5c0-1.5,1.2-2.7,2.7-2.7s2.7,1.2,2.7,2.7s-1.2,2.7-2.7,2.7
		S247.9,156,247.9,154.5z M247.9,147.1c0-1.5,1.2-2.7,2.7-2.7s2.7,1.2,2.7,2.7s-1.2,2.7-2.7,2.7S247.9,148.6,247.9,147.1z
		 M247.9,139.7c0-1.5,1.2-2.7,2.7-2.7s2.7,1.2,2.7,2.7s-1.2,2.7-2.7,2.7S247.9,141.2,247.9,139.7z M247.9,132.3
		c0-1.5,1.2-2.7,2.7-2.7s2.7,1.2,2.7,2.7s-1.2,2.7-2.7,2.7S247.9,133.8,247.9,132.3z M247.9,124.9c0-1.5,1.2-2.7,2.7-2.7
		s2.7,1.2,2.7,2.7s-1.2,2.7-2.7,2.7S247.9,126.4,247.9,124.9z M247.9,117.6c0-1.5,1.2-2.7,2.7-2.7s2.7,1.2,2.7,2.7s-1.2,2.7-2.7,2.7
		S247.9,119,247.9,117.6z M247.9,110.2c0-1.5,1.2-2.7,2.7-2.7s2.7,1.2,2.7,2.7s-1.2,2.7-2.7,2.7S247.9,111.7,247.9,110.2z
		 M247.9,102.8c0-1.5,1.2-2.7,2.7-2.7s2.7,1.2,2.7,2.7s-1.2,2.7-2.7,2.7S247.9,104.3,247.9,102.8z M248,96.1c1.6,0.2,3.2,0.5,4.7,1
		c-0.5,0.6-1.2,1-2.1,1C249.4,98.1,248.4,97.2,248,96.1z M247.9,95.1c0.1-1.4,1.3-2.4,2.7-2.4c0.1,0,0.2,0,0.3,0
		c0.2,0,0.4,0.1,0.6,0.1c1.1,0.4,1.8,1.4,1.8,2.6c0,0.3-0.1,0.5-0.1,0.8C251.5,95.7,249.7,95.3,247.9,95.1z M247,95
		c-0.1,0-0.2,0-0.3,0c-0.2-1.4-1-2.5-2.3-3c1.4,0,2.8,0.2,4.2,0.4C247.7,92.9,247.1,93.9,247,95z M245.6,94.8
		c-0.9-0.1-1.8-0.1-2.7-0.1s-1.8,0-2.7,0.1c0.2-1.2,1.3-2.2,2.7-2.2S245.4,93.6,245.6,94.8z M239.3,94.9c-0.1,0-0.2,0-0.3,0
		c-0.1-1.1-0.7-2.1-1.6-2.7c1.4-0.2,2.8-0.3,4.2-0.4C240.3,92.4,239.5,93.6,239.3,94.9z M238,95.1c-1.8,0.2-3.5,0.6-5.3,1.1
		c-0.1-0.3-0.1-0.5-0.1-0.8c0-1.2,0.8-2.2,1.8-2.6c0.2,0,0.4-0.1,0.6-0.1c0.1,0,0.2,0,0.3,0C236.7,92.7,237.8,93.7,238,95.1z
		 M231.1,168c0.2,0.1,0.4,0.2,0.7,0.2c-0.1,0.3-0.2,0.7-0.2,1.1c0,0.7,0.2,1.4,0.6,2c-0.4-0.1-0.8-0.2-1.2-0.4
		c0.3-0.5,0.4-1.1,0.4-1.6C231.3,168.9,231.2,168.4,231.1,168z M224.5,163.9c-0.4-0.2-0.7-0.4-1.1-0.7c0.2-0.4,0.3-0.9,0.3-1.3
		c0-2-1.6-3.6-3.6-3.7c2-0.1,3.6-1.7,3.6-3.7c0-2-1.6-3.6-3.6-3.7c2-0.1,3.6-1.7,3.6-3.7c0-2-1.6-3.6-3.6-3.7c2-0.1,3.6-1.7,3.6-3.7
		c0-2-1.6-3.6-3.6-3.7c2-0.1,3.6-1.7,3.6-3.7s-1.6-3.6-3.6-3.7c2-0.1,3.6-1.7,3.6-3.7c0-2-1.6-3.6-3.6-3.7c2-0.1,3.6-1.7,3.6-3.7
		c0-2-1.6-3.6-3.6-3.7c2-0.1,3.6-1.7,3.6-3.7c0-2-1.6-3.6-3.6-3.7c2-0.1,3.6-1.7,3.6-3.7c0-0.5-0.1-0.9-0.3-1.3
		c0.4-0.2,0.7-0.5,1.1-0.7c-0.4,0.6-0.6,1.3-0.6,2c0,2,1.6,3.6,3.6,3.7c-2,0.1-3.6,1.7-3.6,3.7c0,2,1.6,3.6,3.6,3.7
		c-2,0.1-3.6,1.7-3.6,3.7c0,2,1.6,3.6,3.6,3.7c-2,0.1-3.6,1.7-3.6,3.7c0,2,1.6,3.6,3.6,3.7c-2,0.1-3.6,1.7-3.6,3.7s1.6,3.6,3.6,3.7
		c-2,0.1-3.6,1.7-3.6,3.7c0,2,1.6,3.6,3.6,3.7c-2,0.1-3.6,1.7-3.6,3.7c0,2,1.6,3.6,3.6,3.7c-2,0.1-3.6,1.7-3.6,3.7
		c0,2,1.6,3.6,3.6,3.7c-2,0.1-3.6,1.7-3.6,3.7C223.9,162.7,224.1,163.4,224.5,163.9z M222.7,110.2c0,1.5-1.2,2.7-2.7,2.7
		s-2.7-1.2-2.7-2.7s1.2-2.7,2.7-2.7S222.7,108.7,222.7,110.2z M218.6,105.1c1.2-1.1,2.6-2.2,4-3.1c0.1,0.2,0.1,0.5,0.1,0.8
		c0,1.5-1.2,2.7-2.7,2.7C219.4,105.5,219,105.3,218.6,105.1z M222.7,117.6c0,1.5-1.2,2.7-2.7,2.7s-2.7-1.2-2.7-2.7s1.2-2.7,2.7-2.7
		S222.7,116.1,222.7,117.6z M222.7,124.9c0,1.5-1.2,2.7-2.7,2.7s-2.7-1.2-2.7-2.7s1.2-2.7,2.7-2.7S222.7,123.5,222.7,124.9z
		 M222.7,132.3c0,1.5-1.2,2.7-2.7,2.7s-2.7-1.2-2.7-2.7s1.2-2.7,2.7-2.7S222.7,130.9,222.7,132.3z M222.7,139.7
		c0,1.5-1.2,2.7-2.7,2.7s-2.7-1.2-2.7-2.7s1.2-2.7,2.7-2.7S222.7,138.2,222.7,139.7z M222.7,147.1c0,1.5-1.2,2.7-2.7,2.7
		s-2.7-1.2-2.7-2.7s1.2-2.7,2.7-2.7S222.7,145.6,222.7,147.1z M222.7,154.5c0,1.5-1.2,2.7-2.7,2.7s-2.7-1.2-2.7-2.7s1.2-2.7,2.7-2.7
		S222.7,153,222.7,154.5z M222.7,161.9c0,0.3-0.1,0.5-0.1,0.8c-1.4-0.9-2.7-2-4-3.1c0.4-0.2,0.9-0.4,1.4-0.4
		C221.5,159.2,222.7,160.4,222.7,161.9z M224.9,147.1c0-1.5,1.2-2.7,2.7-2.7s2.7,1.2,2.7,2.7s-1.2,2.7-2.7,2.7
		S224.9,148.6,224.9,147.1z M230.3,154.5c0,1.5-1.2,2.7-2.7,2.7s-2.7-1.2-2.7-2.7s1.2-2.7,2.7-2.7S230.3,153,230.3,154.5z
		 M224.9,139.7c0-1.5,1.2-2.7,2.7-2.7s2.7,1.2,2.7,2.7s-1.2,2.7-2.7,2.7S224.9,141.2,224.9,139.7z M224.9,132.3
		c0-1.5,1.2-2.7,2.7-2.7s2.7,1.2,2.7,2.7s-1.2,2.7-2.7,2.7S224.9,133.8,224.9,132.3z M224.9,124.9c0-1.5,1.2-2.7,2.7-2.7
		s2.7,1.2,2.7,2.7s-1.2,2.7-2.7,2.7S224.9,126.4,224.9,124.9z M224.9,117.6c0-1.5,1.2-2.7,2.7-2.7s2.7,1.2,2.7,2.7s-1.2,2.7-2.7,2.7
		S224.9,119,224.9,117.6z M224.9,110.2c0-1.5,1.2-2.7,2.7-2.7s2.7,1.2,2.7,2.7s-1.2,2.7-2.7,2.7S224.9,111.7,224.9,110.2z
		 M224.9,102.8c0-1.5,1.2-2.7,2.7-2.7s2.7,1.2,2.7,2.7s-1.2,2.7-2.7,2.7S224.9,104.3,224.9,102.8z M227.6,159.2
		c1.5,0,2.7,1.2,2.7,2.7s-1.2,2.7-2.7,2.7s-2.7-1.2-2.7-2.7S226.1,159.2,227.6,159.2z M229.6,167.5c0.4,0.5,0.7,1.1,0.7,1.8
		c0,0.5-0.1,0.9-0.3,1.3c-1.7-0.6-3.4-1.3-5-2.1c0.3-1.1,1.3-1.9,2.5-2C228.2,166.9,228.9,167.2,229.6,167.5z M229.6,97.2
		c-0.7,0.3-1.4,0.6-2.1,0.9c-1.2,0-2.2-0.9-2.5-2c1.6-0.8,3.3-1.5,5-2.1c0.2,0.4,0.3,0.9,0.3,1.3C230.3,96.1,230.1,96.7,229.6,97.2z
		 M226.1,98.7c-1.1,0.6-2.2,1.2-3.2,1.8c-0.7-0.9-1.7-1.4-2.8-1.5c1.4,0,2.6-0.8,3.2-2c0.3-0.2,0.6-0.3,0.9-0.5
		C224.5,97.5,225.2,98.3,226.1,98.7z M222.1,101.1c-1.5,1-2.9,2.1-4.3,3.3c-0.4-0.5-0.6-1-0.6-1.6c0-1.5,1.2-2.7,2.7-2.7
		C220.8,100.1,221.6,100.5,222.1,101.1z M217.8,160.3c1.3,1.2,2.8,2.3,4.3,3.3c-0.5,0.6-1.3,1-2.1,1c-1.5,0-2.7-1.2-2.7-2.7
		C217.2,161.3,217.5,160.7,217.8,160.3z M222.9,164.1c1,0.7,2.1,1.3,3.2,1.8c-0.9,0.4-1.6,1.2-2,2.2c-1.4-0.8-2.8-1.6-4.1-2.5
		C221.2,165.6,222.3,165,222.9,164.1z M247.5,257.2c-0.7,0.7-1.5,1.4-2.3,2v-84.5c0.8,0,1.7-0.1,2.5-0.2L247.5,257.2z M244.3,172.8
		c1.2-0.5,2.1-1.6,2.3-3c0.1,0,0.2,0,0.3,0c0.1,1.1,0.7,2.1,1.6,2.7C247.2,172.6,245.8,172.7,244.3,172.8z M248.5,256.3l0.2-81.9
		c1.3-0.2,2.5-0.4,3.8-0.7l0.7,78C251.7,253.3,250.1,254.8,248.5,256.3z M251.5,171.9c-0.2,0-0.4,0.1-0.6,0.1c-0.1,0-0.2,0-0.3,0
		c-1.4,0-2.5-1.1-2.7-2.4c1.8-0.2,3.5-0.6,5.3-1.1c0.1,0.3,0.1,0.5,0.1,0.8C253.3,170.5,252.6,171.5,251.5,171.9z M250.7,165.6
		c2-0.1,3.6-1.7,3.6-3.7c0-2-1.6-3.6-3.6-3.7c2-0.1,3.6-1.7,3.6-3.7c0-2-1.6-3.6-3.6-3.7c2-0.1,3.6-1.7,3.6-3.7c0-2-1.6-3.6-3.6-3.7
		c2-0.1,3.6-1.7,3.6-3.7c0-2-1.6-3.6-3.6-3.7c2-0.1,3.6-1.7,3.6-3.7s-1.6-3.6-3.6-3.7c2-0.1,3.6-1.7,3.6-3.7c0-2-1.6-3.6-3.6-3.7
		c2-0.1,3.6-1.7,3.6-3.7c0-2-1.6-3.6-3.6-3.7c2-0.1,3.6-1.7,3.6-3.7c0-2-1.6-3.6-3.6-3.7c2-0.1,3.6-1.7,3.6-3.7c0-2-1.6-3.6-3.6-3.7
		c1.3,0,2.4-0.7,3-1.7c0.7,0.2,1.3,0.4,2,0.7c0.6,0.6,1.5,1,2.4,1c0,0,0,0,0,0c-2,0.1-3.6,1.7-3.6,3.7c0,2,1.6,3.6,3.6,3.7
		c-2,0.1-3.6,1.7-3.6,3.7c0,2,1.6,3.6,3.6,3.7c-2,0.1-3.6,1.7-3.6,3.7c0,2,1.6,3.6,3.6,3.7c-2,0.1-3.6,1.7-3.6,3.7
		c0,2,1.6,3.6,3.6,3.7c-2,0.1-3.6,1.7-3.6,3.7s1.6,3.6,3.6,3.7c-2,0.1-3.6,1.7-3.6,3.7c0,2,1.6,3.6,3.6,3.7c-2,0.1-3.6,1.7-3.6,3.7
		c0,2,1.6,3.6,3.6,3.7c-2,0.1-3.6,1.7-3.6,3.7c0,2,1.6,3.6,3.6,3.7c-2,0.1-3.6,1.7-3.6,3.7c0,2,1.6,3.6,3.6,3.7c0,0,0,0,0,0
		c-0.9,0-1.8,0.4-2.4,1c-0.7,0.2-1.3,0.5-2,0.7C253.1,166.3,252,165.7,250.7,165.6z M254.8,96.7c-0.2-0.1-0.4-0.2-0.7-0.2
		c0.1-0.3,0.2-0.7,0.2-1.1c0-0.7-0.2-1.4-0.6-2c0.4,0.1,0.8,0.2,1.2,0.4c-0.3,0.5-0.4,1.1-0.4,1.6C254.6,95.8,254.7,96.3,254.8,96.7
		z M269.6,101.9c0.1,0.1,0.3,0.2,0.4,0.3c0,0.2,0,0.3,0,0.5c0,2,1.6,3.6,3.6,3.7c-0.9,0-1.8,0.4-2.4,1c-0.7-0.8-1.5-1.6-2.3-2.4
		c0.5-0.6,0.8-1.4,0.8-2.3C269.7,102.5,269.6,102.2,269.6,101.9z M271,103.2c0.7,0.7,1.5,1.4,2.1,2.2
		C272,105.2,271.1,104.3,271,103.2z M275.2,108c0.3,0.5,0.7,0.9,1,1.4c0.1,0.3,0.1,0.5,0.1,0.8c0,1-0.6,1.9-1.4,2.4
		c-0.9-1.5-2-3-3.1-4.3c0.5-0.5,1.1-0.8,1.9-0.8C274.2,107.5,274.8,107.6,275.2,108z M273.7,106.5c0.1,0,0.2,0,0.2,0c0,0,0,0,0,0.1
		C273.9,106.5,273.8,106.5,273.7,106.5z M273.6,157.2c-0.7,0-1.4-0.3-1.9-0.8c1.1-1.4,2.2-2.8,3.1-4.3c0.9,0.5,1.4,1.3,1.4,2.4
		c0,0.3-0.1,0.6-0.1,0.8c-0.3,0.5-0.7,0.9-1,1.4C274.8,157,274.2,157.2,273.6,157.2z M274,158.2C274,158.2,274,158.2,274,158.2
		c-0.1,0-0.2,0-0.3,0C273.9,158.2,273.9,158.2,274,158.2z M269.9,161.9c0,0.2,0,0.3,0,0.5c-0.1,0.1-0.3,0.2-0.4,0.3
		c0.1-0.3,0.1-0.6,0.1-0.8c0-0.9-0.3-1.7-0.8-2.3c0.8-0.8,1.6-1.5,2.3-2.4c0.6,0.6,1.4,0.9,2.3,1
		C271.5,158.3,269.9,159.9,269.9,161.9z M273.1,159.3c-0.7,0.8-1.4,1.5-2.1,2.2C271.1,160.4,272,159.5,273.1,159.3z M273.6,112.9
		c-1.5,0-2.7-1.2-2.7-2.7c0-0.4,0.1-0.8,0.2-1.1c1,1.2,1.9,2.5,2.7,3.8C273.8,112.8,273.7,112.9,273.6,112.9z M274.5,113.8
		c0,0.1,0.1,0.2,0.1,0.2c-0.3-0.1-0.6-0.1-0.9-0.1C274,113.8,274.2,113.8,274.5,113.8z M275.5,115.6c0.3,0.6,0.6,1.1,0.8,1.7
		c0,0.1,0,0.2,0,0.3c0,1.5-1.2,2.7-2.7,2.7s-2.7-1.2-2.7-2.7s1.2-2.7,2.7-2.7C274.3,114.8,275,115.1,275.5,115.6z M279.3,128.1
		c0,0.4,0.1,0.7,0.1,1.1c-1.1,0.6-1.8,1.8-1.8,3.2s0.7,2.5,1.8,3.2c0,0.4-0.1,0.7-0.1,1.1c-1,0.7-1.7,1.8-1.7,3.1
		c0,0.8,0.3,1.5,0.7,2.2c-0.3,1.3-0.8,2.6-1.3,3.8c-0.6-1.3-1.8-2.2-3.3-2.2c2-0.1,3.6-1.7,3.6-3.7c0-2-1.6-3.6-3.6-3.7
		c2-0.1,3.6-1.7,3.6-3.7s-1.6-3.6-3.6-3.7c2-0.1,3.6-1.7,3.6-3.7c0-2-1.6-3.6-3.6-3.7c1.5,0,2.7-1,3.3-2.2c0.5,1.2,0.9,2.5,1.3,3.8
		c-0.4,0.6-0.7,1.3-0.7,2.2C277.6,126.3,278.3,127.4,279.3,128.1z M278.4,119.9c0.7,0.8,1.6,1.3,2.8,1.4c-0.8,0-1.5,0.3-2.1,0.7
		C278.9,121.3,278.7,120.6,278.4,119.9z M279.1,126.5c-0.3-0.4-0.5-1-0.5-1.6c0-0.2,0-0.4,0.1-0.6C278.8,125,279,125.8,279.1,126.5z
		 M279.5,130.3c0,0.7,0.1,1.3,0.1,2c0,0.7,0,1.3-0.1,2c-0.6-0.5-0.9-1.2-0.9-2S278.9,130.8,279.5,130.3z M279.1,142.7
		c0.6,0.4,1.3,0.7,2.1,0.7c-1.1,0-2.1,0.6-2.8,1.4C278.7,144.1,278.9,143.4,279.1,142.7z M278.6,139.7c0-0.6,0.2-1.1,0.5-1.6
		c-0.1,0.7-0.3,1.5-0.4,2.2C278.6,140.2,278.6,140,278.6,139.7z M276.3,124.9c0,1.5-1.2,2.7-2.7,2.7s-2.7-1.2-2.7-2.7
		s1.2-2.7,2.7-2.7S276.3,123.5,276.3,124.9z M276.3,132.3c0,1.5-1.2,2.7-2.7,2.7s-2.7-1.2-2.7-2.7s1.2-2.7,2.7-2.7
		S276.3,130.9,276.3,132.3z M276.3,139.7c0,1.5-1.2,2.7-2.7,2.7s-2.7-1.2-2.7-2.7s1.2-2.7,2.7-2.7S276.3,138.2,276.3,139.7z
		 M276.3,147.1c0,0.1,0,0.2,0,0.3c-0.3,0.6-0.5,1.1-0.8,1.7c-0.5,0.5-1.1,0.7-1.9,0.7c-1.5,0-2.7-1.2-2.7-2.7s1.2-2.7,2.7-2.7
		S276.3,145.6,276.3,147.1z M274.6,150.7c0,0.1-0.1,0.2-0.1,0.2c-0.2-0.1-0.5-0.1-0.7-0.1C274,150.8,274.3,150.8,274.6,150.7z
		 M273.9,151.8c-0.8,1.3-1.7,2.6-2.7,3.8c-0.2-0.3-0.2-0.7-0.2-1.1c0-1.5,1.2-2.7,2.7-2.7C273.7,151.8,273.8,151.8,273.9,151.8z
		 M275.4,151.3c0.3-0.5,0.6-1.1,0.9-1.6c0.5-0.5,0.9-1.2,1-2c0.1-0.2,0.2-0.5,0.3-0.7c0,0.1,0,0.1,0,0.2c0,1.3,0.6,2.4,1.7,3.1
		c-0.6,1.2-1.3,2.4-2,3.6C277,152.7,276.3,151.8,275.4,151.3z M278.6,147.1c0-1.5,1.2-2.7,2.7-2.7c0.1,0,0.2,0,0.3,0
		c-0.5,1.7-1.1,3.3-1.9,4.8C279,148.8,278.6,148,278.6,147.1z M281.4,143.4c0.1,0,0.3,0,0.4,0c0,0,0,0.1,0,0.1
		C281.7,143.5,281.6,143.4,281.4,143.4z M281.3,142.4c-0.7,0-1.4-0.3-1.9-0.8c0.4-1.4,0.6-2.9,0.8-4.4c0.3-0.1,0.7-0.2,1.1-0.2
		c0.6,0,1.3,0.2,1.7,0.6c-0.2,1.6-0.5,3.1-0.9,4.6C281.9,142.4,281.6,142.4,281.3,142.4z M280.4,135.9c0.3,0.1,0.5,0.1,0.8,0.1
		c-0.3,0-0.6,0.1-0.8,0.1C280.4,136.1,280.4,136,280.4,135.9z M280.4,128.5c0.3,0.1,0.5,0.1,0.8,0.1c-0.3,0-0.5,0-0.8,0.1
		C280.4,128.7,280.4,128.6,280.4,128.5z M281.5,136c0.7,0,1.3-0.2,1.8-0.6c0,0.4,0,0.7-0.1,1.1C282.7,136.2,282.1,136.1,281.5,136z
		 M281.3,135.1c-0.3,0-0.6-0.1-0.8-0.1c0.1-0.8,0.1-1.7,0.1-2.6s0-1.7-0.1-2.6c0.3-0.1,0.5-0.1,0.8-0.1c0.8,0,1.6,0.4,2.1,1
		c0,0.6,0,1.1,0,1.7s0,1.2,0,1.7C282.9,134.7,282.1,135.1,281.3,135.1z M281.5,128.6c0.6,0,1.2-0.2,1.7-0.5c0,0.4,0.1,0.7,0.1,1.1
		C282.7,128.9,282.1,128.7,281.5,128.6z M281.3,127.7c-0.4,0-0.7-0.1-1.1-0.2c-0.2-1.5-0.5-3-0.8-4.4c0.5-0.5,1.2-0.8,1.9-0.8
		c0.3,0,0.6,0.1,0.9,0.2c0.4,1.5,0.7,3,0.9,4.6C282.6,127.4,281.9,127.7,281.3,127.7z M281.4,121.2c0.1,0,0.3,0,0.4,0
		c0,0,0,0.1,0,0.1C281.7,121.3,281.6,121.3,281.4,121.2z M281.3,120.3c-1.5,0-2.7-1.2-2.7-2.7c0-0.9,0.4-1.6,1.1-2.1
		c0.7,1.6,1.3,3.2,1.9,4.8C281.5,120.2,281.4,120.3,281.3,120.3z M277.6,117.6c0,0.1,0,0.1,0,0.2c-0.1-0.2-0.2-0.5-0.3-0.7
		c-0.1-0.8-0.5-1.5-1-2c-0.3-0.5-0.6-1.1-0.9-1.6c0.9-0.5,1.6-1.4,1.8-2.5c0.7,1.1,1.4,2.3,2,3.6
		C278.2,115.2,277.6,116.3,277.6,117.6z M270.5,108.2c-0.3,0.6-0.6,1.2-0.6,1.9c0,2,1.6,3.6,3.6,3.7c-2,0.1-3.6,1.7-3.6,3.7
		c0,2,1.6,3.6,3.6,3.7c-2,0.1-3.6,1.7-3.6,3.7c0,2,1.6,3.6,3.6,3.7c-2,0.1-3.6,1.7-3.6,3.7s1.6,3.6,3.6,3.7c-2,0.1-3.6,1.7-3.6,3.7
		c0,2,1.6,3.6,3.6,3.7c-2,0.1-3.6,1.7-3.6,3.7c0,2,1.6,3.6,3.6,3.7c-2,0.1-3.6,1.7-3.6,3.7c0,0.7,0.2,1.4,0.6,1.9
		c-0.8,0.9-1.5,1.7-2.4,2.5c-0.6-0.4-1.3-0.7-2-0.7c2-0.1,3.6-1.7,3.6-3.7c0-2-1.6-3.6-3.6-3.7c2-0.1,3.6-1.7,3.6-3.7
		c0-2-1.6-3.6-3.6-3.7c2-0.1,3.6-1.7,3.6-3.7c0-2-1.6-3.6-3.6-3.7c2-0.1,3.6-1.7,3.6-3.7s-1.6-3.6-3.6-3.7c2-0.1,3.6-1.7,3.6-3.7
		c0-2-1.6-3.6-3.6-3.7c2-0.1,3.6-1.7,3.6-3.7c0-2-1.6-3.6-3.6-3.7c2-0.1,3.6-1.7,3.6-3.7c0-2-1.6-3.6-3.6-3.7c0.8,0,1.4-0.3,2-0.7
		C268.9,106.6,269.7,107.4,270.5,108.2z M261.4,100.7c0.4,0.2,0.7,0.4,1.1,0.7c-0.2,0.4-0.3,0.9-0.3,1.3c0,2,1.6,3.6,3.6,3.7
		c-2,0.1-3.6,1.7-3.6,3.7c0,2,1.6,3.6,3.6,3.7c-2,0.1-3.6,1.7-3.6,3.7c0,2,1.6,3.6,3.6,3.7c-2,0.1-3.6,1.7-3.6,3.7
		c0,2,1.6,3.6,3.6,3.7c-2,0.1-3.6,1.7-3.6,3.7s1.6,3.6,3.6,3.7c-2,0.1-3.6,1.7-3.6,3.7c0,2,1.6,3.6,3.6,3.7c-2,0.1-3.6,1.7-3.6,3.7
		c0,2,1.6,3.6,3.6,3.7c-2,0.1-3.6,1.7-3.6,3.7c0,2,1.6,3.6,3.6,3.7c-2,0.1-3.6,1.7-3.6,3.7c0,0.5,0.1,0.9,0.3,1.3
		c-0.4,0.2-0.7,0.5-1.1,0.7c0.4-0.6,0.6-1.3,0.6-2c0-2-1.6-3.6-3.6-3.7c2-0.1,3.6-1.7,3.6-3.7c0-2-1.6-3.6-3.6-3.7
		c2-0.1,3.6-1.7,3.6-3.7c0-2-1.6-3.6-3.6-3.7c2-0.1,3.6-1.7,3.6-3.7c0-2-1.6-3.6-3.6-3.7c2-0.1,3.6-1.7,3.6-3.7s-1.6-3.6-3.6-3.7
		c2-0.1,3.6-1.7,3.6-3.7c0-2-1.6-3.6-3.6-3.7c2-0.1,3.6-1.7,3.6-3.7c0-2-1.6-3.6-3.6-3.7c2-0.1,3.6-1.7,3.6-3.7c0-2-1.6-3.6-3.6-3.7
		c2-0.1,3.6-1.7,3.6-3.7C262,102,261.8,101.3,261.4,100.7z M263.2,154.5c0-1.5,1.2-2.7,2.7-2.7s2.7,1.2,2.7,2.7s-1.2,2.7-2.7,2.7
		S263.2,156,263.2,154.5z M267.3,159.6c-1.2,1.1-2.6,2.2-4,3.1c-0.1-0.2-0.1-0.5-0.1-0.8c0-1.5,1.2-2.7,2.7-2.7
		C266.5,159.2,266.9,159.4,267.3,159.6z M263.2,147.1c0-1.5,1.2-2.7,2.7-2.7s2.7,1.2,2.7,2.7s-1.2,2.7-2.7,2.7
		S263.2,148.6,263.2,147.1z M263.2,139.7c0-1.5,1.2-2.7,2.7-2.7s2.7,1.2,2.7,2.7s-1.2,2.7-2.7,2.7S263.2,141.2,263.2,139.7z
		 M263.2,132.3c0-1.5,1.2-2.7,2.7-2.7s2.7,1.2,2.7,2.7s-1.2,2.7-2.7,2.7S263.2,133.8,263.2,132.3z M263.2,124.9
		c0-1.5,1.2-2.7,2.7-2.7s2.7,1.2,2.7,2.7s-1.2,2.7-2.7,2.7S263.2,126.4,263.2,124.9z M263.2,117.6c0-1.5,1.2-2.7,2.7-2.7
		s2.7,1.2,2.7,2.7s-1.2,2.7-2.7,2.7S263.2,119,263.2,117.6z M263.2,110.2c0-1.5,1.2-2.7,2.7-2.7s2.7,1.2,2.7,2.7s-1.2,2.7-2.7,2.7
		S263.2,111.7,263.2,110.2z M263.2,102.8c0-0.3,0.1-0.5,0.1-0.8c1.4,0.9,2.7,2,4,3.1c-0.4,0.2-0.9,0.4-1.4,0.4
		C264.5,105.5,263.2,104.3,263.2,102.8z M258.3,105.5c-1.5,0-2.7-1.2-2.7-2.7s1.2-2.7,2.7-2.7s2.7,1.2,2.7,2.7
		S259.8,105.5,258.3,105.5z M261,110.2c0,1.5-1.2,2.7-2.7,2.7s-2.7-1.2-2.7-2.7s1.2-2.7,2.7-2.7S261,108.7,261,110.2z M261,117.6
		c0,1.5-1.2,2.7-2.7,2.7s-2.7-1.2-2.7-2.7s1.2-2.7,2.7-2.7S261,116.1,261,117.6z M261,124.9c0,1.5-1.2,2.7-2.7,2.7s-2.7-1.2-2.7-2.7
		s1.2-2.7,2.7-2.7S261,123.5,261,124.9z M261,132.3c0,1.5-1.2,2.7-2.7,2.7s-2.7-1.2-2.7-2.7s1.2-2.7,2.7-2.7S261,130.9,261,132.3z
		 M261,139.7c0,1.5-1.2,2.7-2.7,2.7s-2.7-1.2-2.7-2.7s1.2-2.7,2.7-2.7S261,138.2,261,139.7z M261,147.1c0,1.5-1.2,2.7-2.7,2.7
		s-2.7-1.2-2.7-2.7s1.2-2.7,2.7-2.7S261,145.6,261,147.1z M261,154.5c0,1.5-1.2,2.7-2.7,2.7s-2.7-1.2-2.7-2.7s1.2-2.7,2.7-2.7
		S261,153,261,154.5z M261,161.9c0,1.5-1.2,2.7-2.7,2.7s-2.7-1.2-2.7-2.7s1.2-2.7,2.7-2.7S261,160.4,261,161.9z M258.4,166.6
		c1.2,0,2.2,0.9,2.5,2c-1.6,0.8-3.3,1.5-5,2.1c-0.2-0.4-0.3-0.9-0.3-1.3c0-0.7,0.3-1.3,0.7-1.8C257,167.2,257.7,166.9,258.4,166.6z
		 M259.8,165.9c1.1-0.6,2.2-1.2,3.2-1.8c0.7,0.9,1.7,1.5,2.9,1.5c-1.3,0.9-2.7,1.7-4.1,2.5C261.4,167.1,260.7,166.4,259.8,165.9z
		 M263.8,163.6c1.5-1,2.9-2.1,4.3-3.3c0.4,0.5,0.6,1,0.6,1.6c0,1.5-1.2,2.7-2.7,2.7C265.1,164.6,264.3,164.2,263.8,163.6z
		 M268.1,104.4c-1.3-1.2-2.8-2.3-4.3-3.3c0.5-0.6,1.3-1,2.1-1c1.5,0,2.7,1.2,2.7,2.7C268.7,103.4,268.4,104,268.1,104.4z M263,100.6
		c-1-0.7-2.1-1.3-3.2-1.8c0.9-0.4,1.6-1.2,2-2.2c0.3,0.2,0.6,0.3,0.9,0.5c0.6,1.2,1.8,2,3.2,2C264.7,99.1,263.7,99.7,263,100.6z
		 M258.4,98.1c-0.7-0.3-1.4-0.6-2.1-0.9c-0.4-0.5-0.7-1.1-0.7-1.8c0-0.5,0.1-0.9,0.3-1.3c1.7,0.6,3.4,1.3,5,2.1
		C260.6,97.2,259.6,98,258.4,98.1z M254.2,168.2c0.2-0.1,0.5-0.2,0.7-0.2c-0.2,0.4-0.3,0.8-0.3,1.3c0,0.6,0.1,1.1,0.4,1.6
		c-0.4,0.1-0.8,0.2-1.2,0.4c0.4-0.6,0.6-1.3,0.6-2C254.3,168.9,254.3,168.6,254.2,168.2z M255.2,249.7l-0.7-76.5
		c3.1-0.9,6-2.1,8.7-3.6l1.8,68.4C262,242.1,258.7,246,255.2,249.7z M267.1,235.4l-1.8-67c12.1-7.5,20.1-20.9,20.1-36.1
		c0-23.4-19-42.4-42.4-42.4s-42.4,19-42.4,42.4c0,15.3,8.2,28.7,20.3,36.2c0.6,32.5,1.1,71.4,1.3,107.2c-0.5,0.3-1.1,0.6-1.6,0.9
		v-41.9l-20.5-9.7v-0.2h-0.3l-8.3-3.9l-0.2-0.1l-28,0.7l-0.3-34.1l0-0.7l-9.3-2.8v-13.1l-5.6-0.4V165h-3v5.2l-17.6-1.3v-6.9h-3v6.6
		l-2.5-0.2l-0.3-67.6l-5.4-2.6v-19l-5.2-2.1v-7.8h-0.4v-0.6L88,57.6l-11.9,0.6v-10h-3v10.1l-4.9,0.2v-3.8h-3v4l-7.4,0.4v-4.3h-3v4.5
		l-9.7,0.5v8.8h-5.5v19.8h-6.8v147C15.3,211.4,5,181.9,5,150C5,70,70,5,150,5s145,65,145,145C295,181.9,284.6,211.5,267.1,235.4z"/>
</g>
</svg>
