<?xml version="1.0" encoding="utf-8"?>
<!-- Generator: Adobe Illustrator 19.2.1, SVG Export Plug-In . SVG Version: 6.00 Build 0)  -->
<svg version="1.1" id="Layer_3" xmlns="http://www.w3.org/2000/svg" xmlns:xlink="http://www.w3.org/1999/xlink" x="0px" y="0px"
	 width="300px" height="300px" viewBox="0 0 300 300" style="enable-background:new 0 0 300 300;" xml:space="preserve">
<g>
	<path d="M149.4,126.5l-28.1,22h55.3L149.4,126.5z M149.3,127.8l24.4,19.7h-49.6L149.3,127.8z"/>
	<path d="M194.5,174.9h-9.7v22.4h9.7V174.9z M193.5,196.3h-7.7v-20.4h7.7V196.3z"/>
	<path d="M209.7,174.9H200v22.4h9.7V174.9z M208.7,196.3H201v-20.4h7.7V196.3z"/>
	<path d="M223.3,174.9h-9.7v22.4h9.7V174.9z M222.3,196.3h-7.7v-20.4h7.7V196.3z"/>
	<path d="M238,174.9h-9.7v22.4h9.7V174.9z M237,196.3h-7.7v-20.4h7.7V196.3z"/>
	<path d="M186.8,230.2h9.7v-22.4h-9.7V230.2z M187.8,208.8h7.7v20.4h-7.7V208.8z"/>
	<path d="M202,230.2h9.7v-22.4H202V230.2z M203,208.8h7.7v20.4H203V208.8z"/>
	<path d="M225.3,207.8h-9.7v22.4h9.7V207.8z M224.3,229.2h-7.7v-20.4h7.7V229.2z"/>
	<path d="M230.3,230.2h9.7v-22.4h-9.7V230.2z M231.3,208.8h7.7v20.4h-7.7V208.8z"/>
	<path d="M70.7,209H61v22.4h9.7V209z M69.7,230.3H62V210h7.7V230.3z"/>
	<path d="M85.9,209h-9.7v22.4h9.7V209z M84.9,230.3h-7.7V210h7.7V230.3z"/>
	<path d="M99.4,209h-9.7v22.4h9.7V209z M98.4,230.3h-7.7V210h7.7V230.3z"/>
	<path d="M114.1,209h-9.7v22.4h9.7V209z M113.1,230.3h-7.7V210h7.7V230.3z"/>
	<path d="M71.4,175.8h-9.7v22.4h9.7V175.8z M70.4,197.2h-7.7v-20.4h7.7V197.2z"/>
	<path d="M86.5,175.8h-9.7v22.4h9.7V175.8z M85.5,197.2h-7.7v-20.4h7.7V197.2z"/>
	<path d="M100.1,175.8h-9.7v22.4h9.7V175.8z M99.1,197.2h-7.7v-20.4h7.7V197.2z"/>
	<path d="M114.8,175.8h-9.7v22.4h9.7V175.8z M113.8,197.2h-7.7v-20.4h7.7V197.2z"/>
	<path d="M186.8,270.5h9.7v-26.8h-9.7V270.5z M187.8,244.7h7.7v24.8h-7.7V244.7z"/>
	<path d="M202,269.4h9.7v-25.7H202V269.4z M203,244.7h7.7v23.7H203V244.7z"/>
	<path d="M216.9,269.4h9.9v-25.7h-9.9V269.4z M217.9,244.7h7.9v23.7h-7.9V244.7z"/>
	<path d="M83.5,243.7h-9.7v25.7h9.7V243.7z M82.5,268.4h-7.7v-23.7h7.7V268.4z"/>
	<path d="M98.7,243.7h-9.9v25.7h9.9V243.7z M97.7,268.4h-7.9v-23.7h7.9V268.4z"/>
	<path d="M148.8,76c-3.3,0-6.1,2.6-6.1,5.8s2.7,5.8,6.1,5.8c3.3,0,6.1-2.6,6.1-5.8S152.2,76,148.8,76z M148.8,86.7
		c-2.8,0-5.1-2.2-5.1-4.8c0-2.7,2.3-4.8,5.1-4.8s5.1,2.2,5.1,4.8C153.9,84.5,151.6,86.7,148.8,86.7z"/>
	<path d="M150,139.5c-1.8,0-3.3,1.5-3.3,3.3s1.5,3.3,3.3,3.3s3.3-1.5,3.3-3.3S151.9,139.5,150,139.5z M150,145c-1.3,0-2.3-1-2.3-2.3
		c0-1.3,1-2.3,2.3-2.3c1.3,0,2.3,1,2.3,2.3C152.3,144,151.3,145,150,145z"/>
	<path d="M113.6,243.7h-9.7v26.8h9.7V243.7z M112.6,269.5h-7.7v-24.8h7.7V269.5z"/>
	<path d="M121.4,125l4.3-2.9v-14.4l-4.6,2.7L121.4,125z M124.6,109.5v12.1l-2.3,1.6L122,111L124.6,109.5z"/>
	<path d="M173.4,107.8v14.3l4.3,2.9v-15.2L173.4,107.8z M176.8,123.2l-2.3-1.6v-12.2l2.3,1.1V123.2z"/>
	<path d="M133.2,121.6h9.8v-14.9h-9.8V121.6z M134.2,107.7h7.8v12.9h-7.8V107.7z"/>
	<path d="M156,121.6h9.8v-14.9H156V121.6z M157,107.7h7.8v12.9H157V107.7z"/>
	<path d="M150,0C67.3,0,0,67.3,0,150c0,82.7,67.3,150,150,150s150-67.3,150-150C300,67.3,232.7,0,150,0z M150,5c80,0,145,65,145,145
		c0,29.3-8.8,56.7-23.8,79.5V223h-1.4l-0.5-1.9h-0.6V213h0.6l0.6-2.3h1.3v-16.5h-1.5l-0.5-1.7h-0.4v-12h0.5l0.6-5.9h1.4l0-7.4
		l1.4-2.9h-3.6v-17.9l3.6-9.1h-4.9l-0.1-0.7c0-0.2-0.7-5.8-3.5-11.9c-3.8-8.1-9.8-13.1-17.3-14.4c-0.4-0.1-0.8-0.1-1.1-0.1v-7.5h-2
		v7.7c-1,0.3-2,0.8-2.9,1.5c-0.7,0.5-1.2,1.2-1.8,2c-0.2,0.3-0.5,0.5-0.7,0.8c-4.3,5.4-7.6,14.6-10,27.5l-0.4,2.2l-1.5,1.6l1.9,2.5
		h-44.2l-1.3-1.1v-42.9l0,0l0-1.5v-0.3h0c-0.1-2.3-1.1-19-13.1-19.8v-9v-0.5c0-5.6-3.6-27.8-19.9-28.7l-0.2-29l-2,0l0.2,29
		c-16.5,1-20.3,25.4-20.3,30v0.5v1.2v6.6c-2.5,0.3-4.6,1.3-6.4,3.1c-5.3,5.3-5.6,15.2-5.6,16.6h0v45.7H68.8l2.3-3.1l-1.3-1.4
		l-0.3-1.4c-2.7-14.4-6.1-22.4-9.1-26.8c-0.8-1.5-1.7-2.8-2.8-3.7c-1.1-0.9-2.3-1.5-3.7-1.7c-0.1,0-0.1,0-0.1,0l0,0
		c-0.3,0-0.7-0.1-1,0v-7.5h-2v7.8c-7.1,1.5-12.8,6.4-16.5,14.1c-2.8,6-3.5,11.6-3.5,11.8l0,0.1h-3.5l3.5,9.2l0.3,0v17.9h-4l1.5,2.9
		l0,7.3h1.3l0.5,5.7h0.6v12h-0.8l-0.5,2h-0.9v16.5h0.8l0.4,2h0.6v8.1H30l-0.5,2.2h-0.6v7.1C13.8,206.7,5,179.4,5,150
		C5,70,70,5,150,5z M265.3,237.9h-13.2l-0.5-12.9h17.6v7.5C267.9,234.3,266.6,236.1,265.3,237.9z M233.6,268.4h-1v-23.7h7.9v18.5
		C238.3,265,236,266.7,233.6,268.4z M231.6,243.7v25.7h0.5c-13.7,9.5-29.1,16.6-45.7,20.9l0.2-13.6h-2.1l-0.9-2.5h-1v-10.9h1.1
		l1-3.1h0.3v-37.1h-0.9l-0.9-2.6h-1.1v-11.1h1.2l1.1-3.1h0.1V206l0.2-0.5h-0.2v-16.1h-1.3l-1.1-3.2h-0.9v-17.2h1l0.3-2.7h64.5
		l0.3,6.5v1.8h0.1l1.9,48.2h-0.2l0.9,16.9h0l0.6,14.3c-3,2.9-6,5.6-9.2,8.2v-18.7H231.6z M59.7,263.4v-18.7h7.7v24.4
		C64.7,267.3,62.2,265.3,59.7,263.4z M58.7,243.7v18.9c-2.5-2-5-4.2-7.3-6.4l1.2-28.5l0.3-5.2h-0.1l2-48.4h0v-0.2l0.3-7.4h62.4
		l0.3,2.7h1.7v17.2h-1.3l-0.9,3.2h-1v16.9h0.8l0.9,3.1h1.2v11.1h-1.3l-0.8,2.6h-0.9v37.1h0.3l0.9,3.1h1.2v10.9h-1.3l-0.7,2.5H115
		l0.2,14c-16.9-4.2-32.7-11.4-46.7-21v-26.1H58.7z M36.5,137.8l26.2,0.1l4.1,4.4l2.9,3.4l-1.9,2.6l-4.9-3.4L31.4,145l-2.7-7.2H36.5z
		 M51.9,112.5c0.6-0.1,1.1-0.1,1.7,0c0.1,0,2.4,0.5,5.4,5c2.8,5.9,3.3,15.4,3.4,18.5l-29.5-0.1C33.6,131.3,37.5,115,51.9,112.5z
		 M64.4,136.5c0-1.1-0.1-4.6-0.7-8.7c1.1,3.1,2.1,6.9,3.1,11.5L64.4,136.5z M141.3,69.3h15.4c6.7,3.1,9.6,4.5,11,5v3.5l-10.6-4.3
		l-16.1,0l-11.5,5.3v-3.2L141.3,69.3z M148.8,46.9c15,0,18.2,19.5,18.8,25.2c-2.3-1-7.1-3.2-10.3-4.7l-0.2-0.1h-16.4l-11,5.9
		C130.5,67,134.2,46.9,148.8,46.9z M187.3,150.6h61.9v8.7h-64.9l-0.1-6.5h5.2h0.1L187.3,150.6z M234,139.9l1.7-1.5h35.6l-2.9,7.2
		l-33.3-0.2l-4.7,3.1h-0.7l-1.9-2.4L234,139.9z M244.9,112.4L244.9,112.4c0.5-0.1,1.1-0.1,1.7,0c14.4,2.5,18.3,18.9,19,23.4h-29.5
		c0.1-3.4,0.7-14.7,4.5-20.3C243.1,112.7,244.9,112.4,244.9,112.4z M234.1,136.8v0.4l-3.1,2.7c1.3-6.2,2.7-11,4.2-14.8
		C234.1,131,234.1,136.4,234.1,136.8z M265.1,223l0.2-0.9h3.2l0.2,0.9H265.1z M266.2,221.1V213h1.5v8.1H266.2z M268.5,212h-3.2
		l-0.3-1.2h3.8L268.5,212z M264.5,213h0.6v8.1h-0.7l-0.4,1.9h-3.1V214h-5.5v8.9h-3.9l-0.5-12.2h13L264.5,213z M259.9,223h-3.5V215
		h3.5V223z M176.2,276.7l0.4-1.5h6.3l0.5,1.5H176.2z M178.2,274.3v-10.9h3.5v10.9H178.2z M176.7,262.3l-0.6-2h7.5l-0.6,2H176.7z
		 M176,263.3h1.3v10.9h-1.3l-0.7,2.5h-5l-0.9-2.5h-1.1v-10.9h1.1l0.9-2.5h0.1l0-0.4l0.1-0.3h4.5L176,263.3z M125.2,260.4l-0.7,2
		h-6.3l-0.6-2H125.2z M123,263.3v10.9h-3.5v-10.9H123z M124.4,275.3l0.5,1.5h-7.3l0.4-1.5H124.4z M126,276.7l-0.9-2.5H124v-10.9h1.1
		l1.1-3.1h4.5l0.9,3.1h1.2v10.9h-1.3l-0.7,2.5H126z M133,168.1l-0.7-6.8h7.4l-0.9,6.8H133z M137.7,169.1v17.2h-3.5v-17.2H137.7z
		 M139.1,187.3l0.7,2h-7.6l0.6-2H139.1z M141.1,189.3v-14.7h17.3v14.7H141.1z M182.7,191.5v12.9h-64.5v-12.9H182.7z M160.4,284.1
		h-0.6v-26.1v-0.5v0h0c0-6.1-3.3-9.6-9.1-9.6c-5.8,0-9,3.4-9,9.6h0v0v0.5v26.1h-0.6l0.2-0.8l0-6.6h-1.1l-0.9-2.5h-1.1v-10.9h1.1
		l0.9-2.5h0l0-0.1l0.5-1.4h-0.6c0-1.6,0-7.5,3.3-11.1c1.8-1.9,4.2-2.9,7.3-2.9c3.1,0,5.5,1,7.2,2.8c3.2,3.6,3.1,9.5,3,11.1h-0.7
		l1.2,4h1.2v10.9h-1.3l-0.7,2.5h-0.6v6.3L160.4,284.1z M160.9,285.9h-20.1l0.2-0.8h19.7L160.9,285.9z M142.8,257.9h16.1v26.1h-16.1
		V257.9z M142.8,256.9c0.2-5.4,2.9-8.1,8-8.1c6.4,0,8,4.3,8.1,8.1H142.8z M132,276.7l0.4-1.5h6.3l0.5,1.5H132z M163.1,258.9
		c0.1-2.4-0.1-8.1-3.5-11.9c-2.1-2.3-5-3.5-8.6-3.5s-6.6,1.2-8.7,3.5c-3.5,3.8-3.9,9.6-3.9,11.9h-5.1c0.1-2.7,0.9-10.6,5.8-15.6
		c3-3,7-4.5,11.9-4.5c4.9,0,8.9,1.5,11.8,4.5c4.9,5,5.6,12.8,5.7,15.6H163.1z M139.3,260.9l-0.5,1.5h-6.3l-0.4-1.5L139.3,260.9z
		 M137.4,263.3v10.9h-3.5v-10.9H137.4z M161.9,276.7l0.4-1.5h6.3l0.5,1.5H161.9z M163.8,274.3v-10.9h3.5v10.9H163.8z M162.4,262.3
		l-0.4-1.5h7.3l-0.5,1.5H162.4z M170.4,258.2c-0.2-3.4-1.2-11.1-6.2-16.3c-3.3-3.4-7.8-5.2-13.3-5.2s-10,1.7-13.3,5.2
		c-5.1,5.2-6.2,12.9-6.4,16.3h-13.1v-33.1h65v33.1H170.4z M141,206.6l-0.7,2h-6.3l-0.6-2H141z M138.9,209.5v11.1h-3.5v-11.1H138.9z
		 M140.2,221.6l0.6,1.6h-7.4l0.5-1.6H140.2z M161.2,223.2l0.5-1.6h6.3l0.6,1.6H161.2z M163.3,220.6v-11.1h3.5v11.1H163.3z
		 M161.8,208.5l-0.6-2h7.6l-0.7,2H161.8z M161.1,209.5h1.3v11.1H161l-0.8,2.6h-18.4l-0.9-2.6h-1v-11.1h1.1l1.1-3.1h18L161.1,209.5z
		 M132.2,206.4l0.9,3.1h1.3v11.1h-1.4l-0.8,2.6h-5.8l-0.9-2.6h-1.1v-11.1h1.2l1.1-3.1H132.2z M125.7,206.6l-0.7,2h-6.3l-0.6-2H125.7
		z M123.6,209.5v11.1h-3.5v-11.1H123.6z M124.9,221.6l0.6,1.6h-7.4l0.5-1.6H124.9z M140.2,294.7h19.6c-3.2,0.2-6.5,0.3-9.8,0.3
		S143.4,294.9,140.2,294.7z M138.8,293.7l0.4-1.5h23.2l0.4,1.5H138.8z M139.5,291.2l0.4-1.6h21.9l0.4,1.6H139.5z M140.1,288.6
		l0.4-1.7h20.6l0.4,1.7H140.1z M175.8,223.2l0.5-1.6h6.3l0.6,1.6H175.8z M177.8,220.6v-11.1h3.5v11.1H177.8z M176.4,208.5l-0.6-2
		h7.6l-0.7,2H176.4z M175.6,209.5h1.2v11.1h-1.3l-0.8,2.6h-5.1l-0.9-2.6h-1v-11.1h1.1l1.1-3.1h4.7L175.6,209.5z M169.5,189.5
		l-1.1-3.2h-1.4v-17.2h1l1.1-8.8h-9.6l0.9,8.8h1.1v17.2h-0.9l-0.9,3.2h-0.2v-15.9h-19.3v13.5l-0.3-0.8h-1.1v-17.2h1l1.1-8.8h-9.6
		l0.9,8.8h1.1v17.2H132l-0.9,3.2h-4l-1.1-3.2h-1.1v-17.2h0.4l1.1-8.8h-8.6l0.1-7.5h64.3l0.1,7.5h-8.5l0.9,8.8h1.1v17.2h-1.5
		l-0.9,3.2H169.5z M161.2,168.1l-0.7-6.8h7.4l-0.9,6.8H161.2z M165.9,169.1v17.2h-3.5v-17.2H165.9z M167.6,187.3l0.7,2h-7.6l0.6-2
		H167.6z M42.9,222.5h-3.5v-8h3.5V222.5z M38.4,213.5v9h-3.1l-0.6-2.2h-0.6v-8.1h0.6l0.5-2h15.9l-0.5,12.2h-6.8v-9H38.4z
		 M42.9,193.8h-3.5v-11.7h3.5V193.8z M51.6,195.8l-0.7,12.5H30.8v-12.5H51.6z M149.2,123.2l34.5,27.6h-1.6h-64.3h-1.6L149.2,123.2z
		 M183,164.4l0.2-2l0.2-1.2h64.7v3.2H183z M116.8,161.3l0.3,3H54.7v-0.5h-0.5v-2.6H116.8z M117.8,161.3h7.4l-0.9,6.8h-5.8
		L117.8,161.3z M123.8,169.1v17.2h-3.5v-17.2H123.8z M125.2,187.3l0.7,2h-7.6l0.6-2H125.2z M174.6,189.3l0.6-2h6.3l0.7,2H174.6z
		 M176.9,186.3v-17.2h3.5v17.2H176.9z M175.7,168.1l-0.7-6.8h7.4l-0.9,6.8H175.7z M259.9,194.3h-3.5v-11.7h3.5V194.3z M269.2,196.3
		v12.5h-18.1l-0.6-12.5H269.2z M265.3,194.3l0.2-0.7h3.1l0.2,0.7H265.3z M266.4,192.6v-12h1.5v12H266.4z M268.5,179.6h-2.8l-0.4-4.6
		h3.6L268.5,179.6z M264.8,180.6h0.6v12h-0.8l-0.4,1.7h-3.3v-12.7h-5.5v12.7h-5.1l-0.8-19.5h14.8L264.8,180.6z M269.4,166.9l0,5.8
		h-20v-6.3h20.2L269.4,166.9z M259.9,164.5h-3.5v-11.8h3.5V164.5z M260.9,164.5v-12.8h-5.5v12.8h-6.3h-0.3v-3.2h2.4v-12.7h-18.9
		l3.2-2.1l31.7,0.2v17.8H260.9z M150.4,121.6h4.2v-14.9h-9.8v14.9h3.2l-30.5,25.5v-38.3l11-4.9h41.8l10.5,3.6v38.4L150.4,121.6z
		 M145.8,120.6v-12.9h7.8v12.9H145.8z M142,98.3c-0.2-8.7-12-14.9-12.5-15.1l0,0v-3.3l11.6-5.4h15.7l10.9,4.5v4.7
		c-2.6,1.5-11.6,7.1-11.8,14.8l0,0.3L142,98.5L142,98.3z M117.6,103.8l11-4.6l4.7,0l8.7,0.2l0-0.1l13.9,0.1l0,0l13.9,0.1l11.1,4.4
		v2.9l-10.3-3.6l-42,0l-11,4.8V103.8z M170.2,97.4L158,97.3c1-6.5,9.6-11.5,11.1-12.3c9.5,0.2,11.3,12.3,11.7,16.6L170.2,97.4z
		 M128.9,85.1c1.5,0.8,10,5.8,11.1,12.2l-11.6-0.2l-10.7,4.4c0.1-1.7,0.5-4.7,1.4-7.7C121,88.1,124.3,85.2,128.9,85.1z M110.8,152.8
		h5.1l-0.1,6.5h-62v-8.7h59L110.8,152.8L110.8,152.8z M62.6,145.8l3.9,2.8H51.8v12.7h1.4v2.6h-9.3v-12.2h-5.5v12.2H33V146
		L62.6,145.8z M42.9,163.9h-3.5v-11.2h3.5V163.9z M52.7,165.9v6.3H30.5l0-5.8l-0.2-0.4H52.7z M52.7,174.1l-0.8,19.7h-8v-12.7h-5.5
		v12.7h-3l-0.6-2h-0.4v-12h0.5l0.6-5.7H52.7z M34.4,174.2l-0.5,4.6h-2.8l-0.4-4.6H34.4z M33.3,179.8v12h-1.5v-12H33.3z M30.9,192.8
		H34l0.3,1h-3.6L30.9,192.8z M34.3,210.3l-0.3,1h-3.2l-0.2-1H34.3z M33.1,212.3v8.1h-1.5v-8.1H33.1z M30.8,221.3H34l0.3,1.2h-3.8
		L30.8,221.3z M30.9,232.5v-8.1h19.8l-0.1,3l-0.6,9.9H34.4C33.2,235.8,32,234.2,30.9,232.5z M117,278.7h22.4v4.2l-2.8,11.4
		c-6.6-0.6-13.1-1.7-19.5-3.1L117,278.7z M165,294.2l-2.8-11.3v-4.2h22.4l-0.1,12.1C178.1,292.4,171.6,293.5,165,294.2z M35.9,239.4
		H50l-0.6,15C44.6,249.7,40.1,244.7,35.9,239.4z M252.7,252.3l-0.5-12.4h11.6C260.3,244.2,256.6,248.4,252.7,252.3z"/>
</g>
</svg>
