<?xml version="1.0" encoding="utf-8"?>
<!-- Generator: Adobe Illustrator 19.2.1, SVG Export Plug-In . SVG Version: 6.00 Build 0)  -->
<svg version="1.1" xmlns="http://www.w3.org/2000/svg" xmlns:xlink="http://www.w3.org/1999/xlink" x="0px" y="0px" width="746.9px"
	 height="746.9px" viewBox="0 0 746.9 746.9" style="enable-background:new 0 0 746.9 746.9;" xml:space="preserve">
<g id="Background">
	<g id="Frame">
	</g>
	<g id="Text">
	</g>
</g>
<g id="White">
</g>
<g id="Blue">
	<path id="Blue_1_" d="M705.6,0H41.2C18.4,0,0,18.5,0,41.2v664.4c0,22.8,18.4,41.2,41.2,41.2h357.7V457.6h-97.3V344.9h97.3v-83.1
		c0-96.5,58.9-149,145-149c41.2,0,76.6,3.1,87,4.4v100.8l-59.7,0c-46.8,0-55.9,22.2-55.9,54.9v72h111.6l-14.5,112.7h-97.1v289.2
		h190.3c22.8,0,41.2-18.5,41.2-41.2V41.2C746.9,18.5,728.4,0,705.6,0z"/>
</g>
</svg>
