<?xml version="1.0" encoding="utf-8"?>
<!-- Generator: Adobe Illustrator 19.2.1, SVG Export Plug-In . SVG Version: 6.00 Build 0)  -->
<svg version="1.1" id="Layer_1" xmlns="http://www.w3.org/2000/svg" xmlns:xlink="http://www.w3.org/1999/xlink" x="0px" y="0px"
   viewBox="0 0 1000 1000" style="enable-background:new 0 0 1000 1000;" xml:space="preserve">
<g>
  <g>
    <path d="M500,6.7C229.4,6.7,10,227.5,10,500s219.4,493.3,490,493.3S990,772.4,990,500S770.6,6.7,500,6.7z M285.6,649.8
      c-84.6,0-153.1-68.6-153.1-153.1c0-84.6,68.6-153.1,153.1-153.1s153.1,68.6,153.1,153.1S370.2,649.8,285.6,649.8z M714.4,649.8
      c-84.6,0-153.1-68.6-153.1-153.1c0-84.6,68.6-153.1,153.1-153.1s153.1,68.6,153.1,153.1S798.9,649.8,714.4,649.8z"/>
  </g>
</g>
</svg>
