<?xml version="1.0" encoding="utf-8"?>
<!-- Generator: Adobe Illustrator 19.2.1, SVG Export Plug-In . SVG Version: 6.00 Build 0)  -->
<svg version="1.1" id="Layer_1" xmlns="http://www.w3.org/2000/svg" xmlns:xlink="http://www.w3.org/1999/xlink" x="0px" y="0px"
	 width="328.9px" height="329px" viewBox="0 0 328.9 329" style="enable-background:new 0 0 328.9 329;" xml:space="preserve">
<path d="M328.8,309.7c0-96.9,0.1-193.7-0.1-290.5c1.3-10.6-8.4-20.3-19-19C213.8,0.1,117.9,0.2,22,0.1C17.8,0.2,13.5,0,9.6,1.6
	C3.4,5.1-0.4,12,0.2,19.1c-0.2,96.8-0.1,193.7-0.1,290.5C-1.1,320.4,8.5,330,19.2,329c96.8,0,193.7,0,290.5,0
	C320.5,330,330.1,320.4,328.8,309.7z M174.8,202.1c-14.2,18.3-40.5,23.7-61.8,16.5c-22.7-7.4-39.1-30.3-38.7-54.2
	c-1.1-29.6,24.8-56.9,54.4-57.2c15.1-1.3,29.8,4.6,41.2,14.1c-4.7,5.1-9.4,10.2-14.5,15c-10-6.1-22.1-10.8-33.9-6.6
	c-18.9,5.4-30.4,27.8-23.4,46.3c5.8,19.4,29.3,30,47.8,21.8c9.6-3.4,15.9-12.2,18.6-21.7c-11-0.2-21.9-0.1-32.9-0.4
	c0-6.5-0.1-13,0-19.5c18.3,0,36.5-0.1,54.8,0.1C187.6,172.2,185.2,189.3,174.8,202.1z M254.8,172.5c-5.4,0-10.9,0.1-16.4,0.1
	c-0.1,5.5-0.1,10.9-0.1,16.4c-5.4,0-10.9,0-16.3,0c-0.1-5.5-0.1-10.9-0.1-16.4c-5.4-0.1-10.9-0.1-16.4-0.1c0-5.4,0-10.9,0-16.3
	c5.4,0,10.9-0.1,16.4-0.1c0-5.4,0.1-10.9,0.1-16.4c5.4,0,10.8,0,16.3,0c0,5.4,0.1,10.9,0.1,16.4c5.4,0.1,10.9,0.1,16.4,0.1
	C254.8,161.7,254.8,167.1,254.8,172.5z"/>
</svg>
