<?xml version="1.0" encoding="utf-8"?>
<!-- Generator: Adobe Illustrator 19.2.1, SVG Export Plug-In . SVG Version: 6.00 Build 0)  -->
<svg version="1.1" id="Layer_2" xmlns="http://www.w3.org/2000/svg" xmlns:xlink="http://www.w3.org/1999/xlink" x="0px" y="0px"
	 width="300px" height="300px" viewBox="0 0 300 300" style="enable-background:new 0 0 300 300;" xml:space="preserve">
<style type="text/css">
	.st0{fill:#231F20;}
</style>
<path class="st0" d="M150,0C67.3,0,0,67.3,0,150s67.3,150,150,150s150-67.3,150-150S232.7,0,150,0z M56.3,260.6
	c-0.9-0.8-1.9-1.6-2.8-2.4c0,0-0.1-0.1-0.1-0.1c-0.9-0.8-1.8-1.6-2.6-2.4c-0.1-0.1-0.1-0.1-0.2-0.2c-0.9-0.9-1.8-1.7-2.7-2.6l16.2,0
	V263h-4.9C58.3,262.2,57.3,261.4,56.3,260.6C56.3,260.6,56.3,260.6,56.3,260.6z M34.4,237.4c-0.8-1-1.5-2.1-2.3-3.1h32v6.2H36.8
	C36,239.5,35.2,238.5,34.4,237.4C34.4,237.4,34.4,237.4,34.4,237.4z M29,229.8c-0.7-1.1-1.5-2.2-2.2-3.4l34,0v5.5h3.2v1.3H31.4
	c-0.8-1.1-1.5-2.2-2.3-3.3C29.1,229.9,29.1,229.9,29,229.8z M21.8,217.6c-0.5-1-1-2-1.5-2.9c-0.2-0.3-0.3-0.7-0.5-1
	c-0.6-1.1-1.1-2.3-1.6-3.4c-0.1-0.1-0.1-0.3-0.2-0.4c-0.6-1.3-1.2-2.6-1.7-3.9c-0.1-0.3-0.2-0.6-0.4-0.9c-0.4-1-0.8-2.1-1.2-3.1
	c-0.1-0.4-0.3-0.7-0.4-1.1c-0.4-1.1-0.8-2.2-1.2-3.3c-0.1-0.2-0.2-0.5-0.3-0.7c-0.5-1.3-0.9-2.7-1.3-4.1c-0.1-0.3-0.2-0.6-0.3-0.8
	c-0.3-1.1-0.6-2.2-0.9-3.3c-0.1-0.4-0.2-0.8-0.3-1.2c-0.3-1.1-0.6-2.1-0.8-3.2c-0.1-0.3-0.2-0.7-0.2-1c-0.3-1.4-0.6-2.8-0.9-4.2
	c-0.1-0.3-0.1-0.5-0.1-0.8c-0.2-1.2-0.4-2.3-0.6-3.5c-0.1-0.4-0.1-0.9-0.2-1.3c-0.2-1.1-0.3-2.1-0.5-3.2c-0.1-0.4-0.1-0.8-0.2-1.2
	c-0.2-1.4-0.4-2.9-0.5-4.3c0-0.2,0-0.3,0-0.5c-0.1-1.3-0.2-2.6-0.3-3.8c0-0.5-0.1-0.9-0.1-1.4c-0.1-1.1-0.1-2.1-0.2-3.2
	c0-0.4,0-0.9-0.1-1.3C5,153,5,151.5,5,150c0,0,0,0,0,0C5,70,70,5,150,5c80,0,145,65,145,145c0,0,0,0.1,0,0.1c0,1.4,0,2.8-0.1,4.2
	c0,0.4,0,0.9-0.1,1.3c0,1-0.1,2.1-0.2,3.1c0,0.5-0.1,0.9-0.1,1.4c-0.1,1.1-0.2,2.3-0.3,3.4c0,0.3,0,0.6-0.1,0.8
	c-0.1,1.5-0.3,2.9-0.5,4.4c0,0.1,0,0.1,0,0.2c-0.2,1.4-0.4,2.7-0.6,4.1c0,0.3-0.1,0.5-0.1,0.8c-0.2,1.2-0.4,2.5-0.7,3.7
	c0,0.2-0.1,0.4-0.1,0.6c-0.6,2.9-1.2,5.8-2,8.7c0,0,0,0,0,0l0.1-8.4l-23-15l0.2-70.4l-2,0l-0.2,69.1l-9.4-6.1l-0.4-0.2l-35,9.2v69.3
	l-4.3-1.4v-3.7l-9.2-2.9l-33.5,3.8v3.4l-7.4,0.8l0.1-125.1l-0.3-7.9l-3.7-0.2l-0.4-10.7H159v-9.1h-3.5l0.2-11.2l-3.1-0.4v-7.7
	l-1.3-1.1V56h-0.7l0.2-0.3l-39.6-28.4v-0.6h-5.5v6.7h-3.2v11.3h-4.1v16h-3.2v12.2h-2.6v11.2L71.9,71.6V71h-5.2v4.4l-2.9,0.3v15.6H60
	v14.9l-3.2,0.3v10.9h-3.5v15.1H49v12.2h-3.8v14.1l0,0v-0.4H40v4.8l-2.6,0.6v14.3h-2.8v10.6H31v14h-2.9v14.5h-3.8v4.9
	c-0.7-1.2-1.4-2.5-2.1-3.7C22.1,218.2,21.9,217.9,21.8,217.6z M287.4,196.3l-30.7-18.3l0-2.7l31.4,18.7
	C287.9,194.8,287.7,195.6,287.4,196.3z M286.4,199.3l-29.7-16.6l0-3.5l30.4,18.1C286.8,198,286.6,198.6,286.4,199.3z M285.5,201.7
	l-28.8-15.2l0-2.7l29.4,16.4C285.8,200.7,285.6,201.2,285.5,201.7z M285.1,202.7c-0.3,0.7-0.5,1.3-0.8,2c0,0,0,0,0,0l-27.6-14.4
	l0-2.7L285.1,202.7C285.1,202.7,285.1,202.7,285.1,202.7z M283.9,205.7c-0.3,0.8-0.7,1.7-1.1,2.5c0,0,0,0,0,0l-26.2-13.5l0-3.2
	L283.9,205.7C283.9,205.7,283.9,205.7,283.9,205.7z M282.4,209.1c-0.4,0.9-0.8,1.7-1.2,2.5c0,0,0,0,0,0l-24.6-13.2l0-2.7
	L282.4,209.1C282.4,209.1,282.4,209.1,282.4,209.1z M280.8,212.6c-0.3,0.6-0.6,1.2-0.9,1.8c0,0,0,0,0,0.1l-23.2-12l0-2.8
	L280.8,212.6C280.8,212.6,280.8,212.6,280.8,212.6z M279.4,215.4c-0.4,0.7-0.7,1.4-1.1,2.1c0,0,0,0,0,0l-21.7-11.2l0-2.7
	L279.4,215.4C279.4,215.4,279.4,215.4,279.4,215.4z M277.8,218.4c-0.3,0.6-0.7,1.2-1,1.9c0,0,0,0,0,0l-20.2-9.8l0-3L277.8,218.4
	C277.8,218.4,277.8,218.4,277.8,218.4z M276.3,221.1c-0.4,0.7-0.8,1.3-1.2,2c0,0,0,0,0,0l-18.6-8.8l0-2.8L276.3,221.1
	C276.3,221.1,276.3,221.1,276.3,221.1z M274.6,224c-0.4,0.7-0.9,1.4-1.3,2.1c0,0,0,0,0,0l-16.8-7.6l0-3.1L274.6,224
	C274.6,224,274.6,224,274.6,224z M272.8,227c-0.5,0.8-1,1.6-1.5,2.4c0,0,0,0,0,0l-14.7-6.4l0-3.4L272.8,227
	C272.8,227,272.8,227,272.8,227z M270.7,230.3c-0.5,0.7-1,1.5-1.5,2.2c0,0,0,0,0,0l-12.7-5.2l0-3.1L270.7,230.3
	C270.7,230.3,270.7,230.3,270.7,230.3z M268.6,233.3c-0.4,0.6-0.8,1.1-1.2,1.7c0,0,0,0,0,0l-10.9-4.4l0-2.3L268.6,233.3
	C268.6,233.3,268.6,233.3,268.6,233.3z M288.3,183.1l0,2.6l-31.5-19.6l0-2.6L288.3,183.1z M256.8,162.3l0-3.3l31.5,20.6l0,2.3
	L256.8,162.3z M288.2,186.9l0,2.7l-31.5-19.6l0-2.6L288.2,186.9z M288.2,190.7l0,2.2l-31.5-18.7l0-3.1L288.2,190.7z M256.4,243.5
	l0-3.7l5.6,2.1c-0.8,0.9-1.6,1.9-2.4,2.8L256.4,243.5z M259,245.6c-0.6,0.7-1.2,1.4-1.8,2.1l-0.7-0.3l0-2.8L259,245.6z M256.5,238.8
	l0-2.6l7.8,3.1c-0.5,0.6-1,1.3-1.5,1.9L256.5,238.8z M235.5,267c-1.3,1-2.7,1.9-4.1,2.9v-4.3l8.4-1.9c-1.3,1-2.7,2.1-4,3.1
	C235.7,266.9,235.6,266.9,235.5,267z M150.7,62.8v1.6l-1.5-1v-6.8l0.2,0.2v5L150.7,62.8z M150.7,65.5v5.7l3,0.4l-0.1,4.4l-4.5-2.7
	v-8.8L150.7,65.5z M153.6,77.2l-0.1,5.9h0.6v3l-5-2.9v-8.7L153.6,77.2z M154.1,87.2V95l-5-2.7v-7.9L154.1,87.2z M154.1,96.1v8.1
	l-5-2.5v-8.3L154.1,96.1z M154.1,105.3v9l-5-2.4v-9.1L154.1,105.3z M154.1,115.4v11.7l-5-2.3V113L154.1,115.4z M154.1,128.2v11.5
	l-5-2.1v-11.7L154.1,128.2z M154.1,140.8v10.6l-5-1.9v-10.7L154.1,140.8z M154.1,152.5v10.7l-5-1.7v-10.9L154.1,152.5z M154.1,164.2
	v9.9l-5-1.7v-9.9L154.1,164.2z M154.1,175.1v8.5l-5-1.6v-8.6L154.1,175.1z M154.1,184.7v9.7l-5-1.6v-9.7L154.1,184.7z M154.1,195.4
	v9.6l-5-1.6v-9.6L154.1,195.4z M154.1,206.1v9.2l-5-1.5v-9.2L154.1,206.1z M154.1,216.3v9.1l-5-1.5v-9.2L154.1,216.3z M154.1,226.5
	v8.1l-5-1.3V225L154.1,226.5z M154.1,235.6v9.6l-5-1.2v-9.7L154.1,235.6z M154.1,246.2v11.3l-5-1.1v-11.4L154.1,246.2z M154.1,258.6
	v9.7l-5-1v-9.8L154.1,258.6z M154.1,269.3v9.2l-5-1v-9.2L154.1,269.3z M154.1,279.5v8.5l-5-0.9v-8.6L154.1,279.5z M154.1,289v5.9
	c0,0,0,0-0.1,0l-4.9-0.7v-6.1L154.1,289z M157,89v3.3h2.9l0.2,6l-5-2.8v-7.7L157,89z M155.1,86.7v-3.6h1.9v4.7L155.1,86.7z
	 M160.2,99.4l0.1,3.4l0.6,0v4.7l-5.8-2.9v-8L160.2,99.4z M160.9,108.7v8.9l-5.8-2.9v-9L160.9,108.7z M160.9,118.8v11.4l-5.8-2.7
	v-11.6L160.9,118.8z M160.9,131.3v11.3l-5.8-2.4v-11.5L160.9,131.3z M160.9,143.7V154l-5.8-2.3v-10.6L160.9,143.7z M160.9,155.1
	v10.3l-5.8-2v-10.6L160.9,155.1z M160.9,166.5v9.9l-5.8-1.9v-9.9L160.9,166.5z M160.9,177.4v8.4l-5.8-1.9v-8.5L160.9,177.4z
	 M160.9,186.9v9.6l-5.8-1.9V185L160.9,186.9z M160.9,197.6v9.6l-5.8-1.8v-9.6L160.9,197.6z M160.9,208.3v9.1l-5.8-1.8v-9.1
	L160.9,208.3z M160.9,218.4v9l-5.8-1.7v-9.1L160.9,218.4z M160.9,228.5v7.9l-5.8-1.5v-8.1L160.9,228.5z M160.9,237.4v9.4l-5.8-1.4
	v-9.5L160.9,237.4z M160.9,247.8V259l-5.8-1.3v-11.3L160.9,247.8z M160.9,260v9.6l-5.8-1.2v-9.7L160.9,260z M160.9,270.7v9.1
	l-5.8-1.1v-9.2L160.9,270.7z M160.9,280.8v8.4l-5.8-1.1v-8.5L160.9,280.8z M160.9,290.3v4.3c-1.9,0.1-3.9,0.2-5.8,0.3v-5.7
	L160.9,290.3z M164.3,110.4l0,8.9l-2.3-1.1v-8.9L164.3,110.4z M161.9,108.1V103l2.1,0.1l0.2,6.1l0,0.1L161.9,108.1z M164.3,120.4
	l0,11.3l-2.3-1.1v-11.4L164.3,120.4z M164.3,132.8l0,11.1l-2.3-1v-11.2L164.3,132.8z M164.2,145.1l0,10.3l-2.3-0.9v-10.3
	L164.2,145.1z M164.2,156.4l0,10.1l-2.3-0.8v-10.2L164.2,156.4z M164.2,167.6l0,9.9l-2.3-0.8v-9.9L164.2,167.6z M164.2,178.5l0,8.4
	l-2.3-0.7v-8.4L164.2,178.5z M164.2,187.9l0,9.6l-2.3-0.7v-9.6L164.2,187.9z M164.2,198.6l0,9.6l-2.3-0.7v-9.6L164.2,198.6z
	 M164.2,209.3l0,9.1l-2.3-0.7v-9.1L164.2,209.3z M164.2,219.4l0,9l-2.3-0.7v-9L164.2,219.4z M164.2,229.4l0,7.8l-2.3-0.6v-7.9
	L164.2,229.4z M164.2,238.3l0,9.3l-2.2-0.5v-9.3L164.2,238.3z M164.2,248.6l0,11.1l-2.2-0.5v-11.2L164.2,248.6z M164.2,260.7l0,9.5
	l-2.2-0.5v-9.6L164.2,260.7z M164.2,271.3l0,9.1l-2.2-0.4v-9.1L164.2,271.3z M164.2,281.4l0,8.4l-2.2-0.4V281L164.2,281.4z
	 M164.2,290.8l0,3.5c-0.7,0.1-1.5,0.1-2.2,0.2v-4.1L164.2,290.8z M166.3,294.1v-57.8l1.5-0.2v57.8C167.3,294,166.8,294,166.3,294.1z
	 M168.8,293.8V236l1.9-0.2v57.7C170,293.6,169.4,293.7,168.8,293.8z M171.7,293.4v-57.7l1.9-0.2v57.6
	C173,293.2,172.3,293.3,171.7,293.4z M207.1,229.9l-31.6,3.3v-1.4l31.3-3.5l7.4,2.3v1.6L207.1,229.9z M213.6,234.2v46.1
	c-0.4,0.2-0.8,0.4-1.2,0.6v-47.1L213.6,234.2z M211.4,233.4v47.9c-0.4,0.2-0.8,0.4-1.2,0.6v-48.8L211.4,233.4z M209.2,232.7v49.6
	c-0.5,0.2-1.1,0.5-1.6,0.7l0.4-50.7L209.2,232.7z M206,232.1l-0.4,51.8c-0.6,0.3-1.3,0.5-1.9,0.8v-52.4L206,232.1z M202.7,232.4
	v52.7c-0.6,0.2-1.3,0.5-1.9,0.7v-53.2L202.7,232.4z M199.8,232.7v53.5c-0.6,0.2-1.3,0.5-1.9,0.7v-53.9L199.8,232.7z M196.9,233v54.2
	c-0.6,0.2-1.3,0.4-1.9,0.6v-54.6L196.9,233z M194,233.4v54.8c-0.6,0.2-1.3,0.4-1.9,0.6v-55.2L194,233.4z M191.1,233.7v55.4
	c-0.6,0.2-1.3,0.4-1.9,0.6v-55.8L191.1,233.7z M188.1,234v55.9c-0.6,0.2-1.3,0.4-1.9,0.5v-56.2L188.1,234z M185.2,234.3v56.4
	c-0.6,0.2-1.3,0.3-1.9,0.5v-56.6L185.2,234.3z M182.3,234.6v56.8c-0.6,0.1-1.3,0.3-1.9,0.4v-57L182.3,234.6z M179.4,234.9V292
	c-0.6,0.1-1.3,0.3-1.9,0.4v-57.3L179.4,234.9z M176.5,235.2v57.4c-0.6,0.1-1.3,0.2-1.9,0.3v-57.5L176.5,235.2z M214.6,279.8v-45.3
	l1.2,0.4v44.3C215.5,279.4,215,279.6,214.6,279.8z M216.9,278.6v-43.4l1.2,0.4V278C217.7,278.2,217.3,278.4,216.9,278.6z
	 M219.1,277.5v-41.6l1.2,0.4v40.5C219.9,277,219.5,277.3,219.1,277.5z M221.3,276.2v-39.6l1.2,0.4v38.5
	C222.1,275.8,221.7,276,221.3,276.2z M223.5,275v-37.6l1.2,0.4v36.5C224.3,274.5,223.9,274.7,223.5,275z M225.7,273.6v-35.6l1.2,0.4
	v34.4C226.5,273.1,226.1,273.4,225.7,273.6z M227.9,272.3v-33.5l1.1,0.3v32.5C228.6,271.8,228.2,272,227.9,272.3z M231.5,264.6v-2.8
	l14.7-3.3c-1.5,1.3-3,2.6-4.5,3.8L231.5,264.6z M247.7,257.1l-16.2,3.7v-3.3l20.8-4.7C250.7,254.2,249.2,255.7,247.7,257.1z
	 M231.5,256.4v-2.8l23-5.2l0,2.1c-0.3,0.3-0.6,0.6-0.9,0.9L231.5,256.4z M231.5,252.6v-2.8l23-5.2l0,2.8L231.5,252.6z M231.5,248.7
	V245l23-5.2l0,3.8L231.5,248.7z M231.5,244v-2.8l23-5.2l0,2.8L231.5,244z M231.5,240.1v-2.3l-2.1-0.7l25.1-5.6l0,3.3L231.5,240.1z
	 M227.5,236.5l-4.9-1.6l31.9-7.2l0,2.8L227.5,236.5z M222.6,233.9v-2.8l31.9-7.2l0,2.8L222.6,233.9z M222.6,230.1v-3.9l31.9-7.2
	l0,3.9L222.6,230.1z M222.6,225.2v-2.8l32-7.2l0,2.8L222.6,225.2z M222.6,221.4v-3.3l32-7.2l0,3.3L222.6,221.4z M222.6,217v-2.8
	l32-7.2l0,2.8L222.6,217z M222.6,213.2v-2.8l32-7.2l0,2.8L222.6,213.2z M222.6,209.4v-3l32-7.2l0,3L222.6,209.4z M222.6,205.4v-2.8
	l32-7.2l0,2.8L222.6,205.4z M222.6,201.6v-3.3l32-7.2l0,3.3L222.6,201.6z M222.6,197.2v-2.8l32.1-7.3l0,2.8L222.6,197.2z
	 M222.6,193.4v-2.8l32.1-7.3l0,2.8L222.6,193.4z M222.6,189.5v-3.7l32.1-7.3l0,3.7L222.6,189.5z M222.6,184.8V182l32.1-7.3l0,2.8
	L222.6,184.8z M222.6,181v-3.3l32.1-7.3l0,3.3L222.6,181z M222.6,176.6v-2.8l32.1-7.3l0,2.8L222.6,176.6z M222.6,172.8V170l32.2-7.3
	l0,2.8L222.6,172.8z M222.6,169v-2.4l32.2-8.4l0,3.6L222.6,169z M142.7,293.2v-6.3l5.5,1v6.1L142.7,293.2z M147.5,295
	c-1.6,0-3.3-0.1-4.9-0.2v-0.6L147.5,295z M142.7,285.9v-8.6l5.5,1.1v8.6L142.7,285.9z M142.7,276.2V267l5.5,1.1v9.2L142.7,276.2z
	 M142.7,265.9v-9.8l5.5,1.2v9.8L142.7,265.9z M142.7,255.1v-11.6l5.5,1.3v11.5L142.7,255.1z M142.7,242.5v-9.9l5.5,1.5v9.7
	L142.7,242.5z M142.7,231.6v-8.4l5.5,1.6v8.3L142.7,231.6z M142.7,222.1v-9.3l5.5,1.7v9.2L142.7,222.1z M142.7,211.7v-9.3l5.5,1.7
	v9.2L142.7,211.7z M142.7,201.4v-9.7l5.5,1.8v9.6L142.7,201.4z M142.7,190.7V181l5.5,1.8v9.7L142.7,190.7z M142.7,180v-8.7l5.5,1.8
	v8.6L142.7,180z M142.7,170.2v-9.9l5.5,1.9v9.9L142.7,170.2z M142.7,159.2V148l5.5,2.1v11L142.7,159.2z M142.7,146.9v-11l5.5,2.3
	v10.8L142.7,146.9z M142.7,134.9v-12l5.5,2.5v11.8L142.7,134.9z M142.7,121.8v-12l5.5,2.7v11.9L142.7,121.8z M142.7,108.7v-9.1
	l5.5,2.8v9.1L142.7,108.7z M142.7,98.4v-8.6l5.5,3v8.4L142.7,98.4z M142.7,88.6v-8.2l5.5,3.3v7.9L142.7,88.6z M142.7,79.3v-8.7
	l5.5,3.3v8.7L142.7,79.3z M142.7,69.4v-9.1l5.5,3.6v8.9L142.7,69.4z M142.7,59.1v-7.2l5.5,4v6.9L142.7,59.1z M135.8,292.2v-6.5
	l5.8,1.1v6.3L135.8,292.2z M141.7,294.1v0.7c-2-0.1-3.9-0.3-5.8-0.4v-1.1L141.7,294.1z M135.8,284.6v-8.7l5.8,1.1v8.7L135.8,284.6z
	 M135.8,274.9v-9.3l5.8,1.2v9.3L135.8,274.9z M135.8,264.6v-9.9l5.8,1.3v9.9L135.8,264.6z M135.8,253.6v-11.7l5.8,1.4v11.6
	L135.8,253.6z M135.8,240.9v-10.1l5.8,1.5v9.9L135.8,240.9z M135.8,229.7v-8.6l5.8,1.7v8.5L135.8,229.7z M135.8,220.1v-9.4l5.8,1.8
	v9.3L135.8,220.1z M135.8,209.6v-9.3l5.8,1.9v9.3L135.8,209.6z M135.8,199.2v-9.7l5.8,1.9v9.7L135.8,199.2z M135.8,188.5v-9.7
	l5.8,1.9v9.7L135.8,188.5z M135.8,177.8V169l5.8,2v8.7L135.8,177.8z M135.8,167.9v-10l5.8,2v9.9L135.8,167.9z M135.8,156.9v-11.6
	l5.8,2.3v11.3L135.8,156.9z M135.8,144.3v-11.2l5.8,2.5v11L135.8,144.3z M135.8,132v-12.2l5.8,2.7v12L135.8,132z M135.8,118.7v-12.3
	l5.8,2.9v12.1L135.8,118.7z M135.8,105.3v-9.2l5.8,2.9v9.1L135.8,105.3z M135.8,95v-9l5.8,3.2v8.7L135.8,95z M135.8,84.9v-8.4
	l5.8,3.5v8.2L135.8,84.9z M135.8,75.3v-8.8l5.8,3.5v8.8L135.8,75.3z M135.8,65.3v-9.4l5.8,3.8v9.1L135.8,65.3z M135.8,54.7V47
	l5.8,4.2v7.3L135.8,54.7z M129.4,291.2v-6.7l5.4,1v6.6L129.4,291.2z M134.8,293v1.2c-1.8-0.2-3.6-0.4-5.4-0.7v-1.3L134.8,293z
	 M129.4,283.5v-8.8l5.4,1v8.7L129.4,283.5z M129.4,273.7v-9.4l5.4,1.1v9.4L129.4,273.7z M129.4,263.3v-10l5.4,1.2v9.9L129.4,263.3z
	 M129.4,252.2v-11.8l5.4,1.3v11.7L129.4,252.2z M129.4,239.4v-10.3l5.4,1.4v10.1L129.4,239.4z M129.4,228.1v-8.8l5.4,1.6v8.7
	L129.4,228.1z M129.4,218.2v-9.5l5.4,1.7v9.4L129.4,218.2z M129.4,207.6v-9.4l5.4,1.7v9.3L129.4,207.6z M129.4,197.2v-9.7l5.4,1.7
	v9.7L129.4,197.2z M129.4,186.5v-9.7l5.4,1.7v9.7L129.4,186.5z M129.4,175.7v-8.9l5.4,1.8v8.8L129.4,175.7z M129.4,165.8v-10
	l5.4,1.8v10L129.4,165.8z M129.4,154.8v-11.9l5.4,2.1v11.6L129.4,154.8z M129.4,141.8v-11.4l5.4,2.3v11.2L129.4,141.8z M129.4,129.3
	v-12.5l5.4,2.5v12.3L129.4,129.3z M129.4,115.7v-12.5l5.4,2.6v12.3L129.4,115.7z M129.4,102.2v-9.3l5.4,2.7v9.2L129.4,102.2z
	 M129.4,91.8v-9.3l5.4,3v9L129.4,91.8z M129.4,81.3v-8.7l5.4,3.2v8.5L129.4,81.3z M129.4,71.5v-8.9l5.4,3.3v8.8L129.4,71.5z
	 M129.4,61.4v-9.7l5.4,3.5v9.4L129.4,61.4z M129.4,50.5v-8.2l5.4,3.9V54L129.4,50.5z M121.1,291v-6.8l6,0v6.8H121.1z M127.1,292v1.2
	c-2-0.3-4-0.7-6-1.1V292L127.1,292z M121.1,283.2v-8.8l6,0v8.8H121.1z M121.1,273.4V264l6,0v9.4H121.1z M121.1,263v-10.1l6,0V263
	H121.1z M121.1,251.9v-11.9l6,0V252L121.1,251.9z M121.1,239.1v-10.4l6,0v10.4L121.1,239.1z M121.1,227.7v-8.9l6,0v8.9L121.1,227.7z
	 M121.1,217.8v-9.6l6,0v9.6L121.1,217.8z M121.1,207.2v-9.5l6,0v9.5L121.1,207.2z M121.1,196.8V187l6,0v9.8L121.1,196.8z
	 M121.1,186.1v-9.8l6,0v9.8L121.1,186.1z M121.1,175.3v-9l6,0v9L121.1,175.3z M121.1,165.4v-10.1l6,0v10.1L121.1,165.4z
	 M120.9,154.3v-12.1l6.1,0v12.1L120.9,154.3z M116.3,141.3v-11.5l10.8,0v11.5L116.3,141.3z M114.7,281.9v-8.7l4.4,1v8.7L114.7,281.9
	z M119.1,284v6.8l-4.4-1.1v-6.7L119.1,284z M114.7,272.2v-9.6l4.4,1.2v9.4L114.7,272.2z M114.7,261.6v-10.1l4.4,1.2v10.1
	L114.7,261.6z M114.7,250.4v-12l4.4,1.4v11.9L114.7,250.4z M114.7,237.4V227l4.4,1.4v10.3L114.7,237.4z M114.7,226v-8.9l4.4,1.4v8.9
	L114.7,226z M114.7,216v-9.7l4.4,1.5v9.6L114.7,216z M114.7,205.3v-9.4l4.4,1.6v9.4L114.7,205.3z M114.7,194.8v-9.7l4.4,1.6v9.7
	L114.7,194.8z M114.7,184.1v-9.5l4.4,1.5v9.6L114.7,184.1z M114.7,173.5v-9l4.4,1.6v8.9L114.7,173.5z M114.7,163.4v-10l4.2,1.6v0.8
	h0.2v9.3L114.7,163.4z M114.7,152.3v-8.6h4.2v10.2L114.7,152.3z M116.3,128.8v-0.5h-3.2v-12.1h14v12.7L116.3,128.8z M108.8,280.4
	v-8.6l4.9,1.2v8.7L108.8,280.4z M113.7,282.7v6.7l-4.9-1.2v-6.7L113.7,282.7z M108.8,270.8V261l4.9,1.3v9.6L108.8,270.8z M108.8,260
	v-10.2l4.9,1.4v10.1L108.8,260z M108.8,248.7v-12.2l4.9,1.5v12L108.8,248.7z M108.8,235.5v-10.4l4.9,1.6V237L108.8,235.5z
	 M108.8,224v-8.9l4.9,1.6v8.9L108.8,224z M108.8,214.1v-9.8l4.9,1.7v9.7L108.8,214.1z M108.8,203.3v-9.5l4.9,1.7v9.4L108.8,203.3z
	 M108.8,192.7V183l4.9,1.8v9.7L108.8,192.7z M108.8,182v-9.4l4.9,1.7v9.5L108.8,182z M108.8,171.5v-9.2l4.9,1.8v9.1L108.8,171.5z
	 M108.8,161.2v-10.1l4.9,1.8v10L108.8,161.2z M108.8,150.1v-10.2l4.9,1.9v10.1L108.8,150.1z M108.8,138.8v-10.3l2.3,1v0.9h2.6v10.4
	L108.8,138.8z M108.8,127.4v-9.6h2.3v10.5L108.8,127.4z M110.2,115.1v-9.8H107v-2.8h20.1v12.6L110.2,115.1z M102.5,278.8v-8.6
	l5.4,1.3v8.6L102.5,278.8z M107.8,281.2v6.7l-5.4-1.4v-6.7L107.8,281.2z M102.5,269.2v-9.9l5.4,1.4v9.7L102.5,269.2z M102.5,258.3
	V248l5.4,1.5v10.2L102.5,258.3z M102.5,246.9v-12.4l5.4,1.7v12.2L102.5,246.9z M102.5,233.5V223l5.4,1.8v10.4L102.5,233.5z
	 M102.5,222V213l5.4,1.8v8.9L102.5,222z M102.5,212v-9.9l5.4,1.9v9.8L102.5,212z M102.5,201v-9.5l5.4,1.9v9.5L102.5,201z
	 M102.5,190.5v-9.7l5.4,1.9v9.7L102.5,190.5z M102.5,179.7v-9.3l5.4,1.8v9.4L102.5,179.7z M102.5,169.3v-9.3l5.4,2v9.2L102.5,169.3z
	 M102.5,158.9v-10.1l5.4,2v10.1L102.5,158.9z M102.5,147.7v-10.4l5.4,2.1v10.2L102.5,147.7z M102.5,136.2v-10.5l5.4,2.3v10.4
	L102.5,136.2z M102.5,124.7v-11.7l5.4,2.6v11.4L102.5,124.7z M102.5,111.8v-11l2.5,1.3v5.3h3.2v1.9h-0.3v5.2L102.5,111.8z
	 M102.5,99.7v-8l2.5,1.5v7.8L102.5,99.7z M107,101.5v-9.4h-0.7l0.1-0.2l-0.2-0.1h20.8v9.7H107z M104.6,90.8l-9.1-5.4h28.4v4.1h3.2
	v1.3H104.6z M95.9,277.2v-8.5l5.6,1.4v8.6L95.9,277.2z M101.5,279.6v6.7l-2.9-0.7c-0.9-0.3-1.8-0.7-2.7-1.1v-6.3L101.5,279.6z
	 M95.9,267.6v-10.1l5.6,1.5v9.9L95.9,267.6z M95.9,256.5v-10.4l5.6,1.6V258L95.9,256.5z M95.9,245.1v-12.6l5.6,1.8v12.5L95.9,245.1z
	 M95.9,231.4v-10.6l5.6,1.9v10.5L95.9,231.4z M95.9,219.8v-8.9l5.6,1.9v8.9L95.9,219.8z M95.9,209.8v-10l5.6,2v9.9L95.9,209.8z
	 M95.9,198.7v-9.5l5.6,2v9.5L95.9,198.7z M95.9,188.1v-9.7l5.6,2v9.7L95.9,188.1z M95.9,177.3v-9.2l5.6,1.9v9.3L95.9,177.3z
	 M95.9,167v-9.5l5.6,2.1v9.4L95.9,167z M95.9,156.4v-10.2l5.6,2.1v10.1L95.9,156.4z M95.9,145.2v-10.5l5.6,2.2v10.4L95.9,145.2z
	 M95.9,133.6v-10.7l5.6,2.4v10.5L95.9,133.6z M95.9,121.9v-12.2l5.6,2.7v11.8L95.9,121.9z M95.9,108.6V97.4l5.6,2.9v11L95.9,108.6z
	 M95.9,96.3v-8.6l5.6,3.3v8.1L95.9,96.3z M90.8,275.9v-8.5l4,1v8.5L90.8,275.9z M94.9,278v6.1c-1.4-0.6-2.7-1.1-4-1.7V277L94.9,278z
	 M90.8,266.4v-10.2l4,1.1v10.1L90.8,266.4z M90.8,255.2v-10.5l4,1.1v10.4L90.8,255.2z M90.8,243.7v-12.8l4,1.3v12.7L90.8,243.7z
	 M90.8,229.8v-10.6l4,1.3v10.6L90.8,229.8z M90.8,218.1v-8.9l4,1.3v8.9L90.8,218.1z M90.8,208.1L90.8,208.1l0.1-10.1l4,1.4v10.1
	L90.8,208.1z M90.9,197l0.1-9.5l3.9,1.4v9.5L90.9,197z M91,186.4l0.1-9.7l3.8,1.4v9.8L91,186.4z M91.1,175.6l0.1-9.2l3.7,1.3v9.2
	L91.1,175.6z M91.1,165.4l0.1-9.6l3.6,1.3v9.5L91.1,165.4z M91.2,154.7l0.1-10.2l3.6,1.3v10.2L91.2,154.7z M91.3,143.5l0-4.5h-0.5
	v-6.3l4,1.6v10.5L91.3,143.5z M90.8,131.6v-10.8l4,1.7v10.7L90.8,131.6z M90.8,119.7v-12.5l4,2v12.2L90.8,119.7z M90.8,106.1V94.9
	l4,2v11.2L90.8,106.1z M90.8,93.8v-9l4,2.4v8.7L90.8,93.8z M94.8,84.5v-4.6h29.1v4.6H94.8z M112.3,35.3v4.9h-7.6v-4.9h3.2v-6.7h1.5
	v6.7H112.3z M111.4,33.3v-3.9l1.4,1v2.9H111.4z M112.3,41.1v5.8h2v1.3h-13.7v-1.6h4.1v-5.5H112.3z M114.3,44.9v-3l3.3,2.1v8.4h-1.3
	v-7.5H114.3z M114.3,40.7v-7.4h-0.5v-2.2l3.8,2.7v9L114.3,40.7z M114.3,49.2v5h-13.7v-5H114.3z M116.3,55.2v5h-15.7v-5H116.3z
	 M116.3,61.2v5.6H97.4v-4.2h3.2v-1.4H116.3z M120.4,67.8v5.5h-23v-5.5H120.4z M122.8,47.4v10l-4.2-2.6V44.7L122.8,47.4z M118.5,43.5
	v-8.9l4.2,3v8.6L118.5,43.5z M122.8,58.6v9l-0.4-0.2v-2.1h-3.8V56L122.8,58.6z M122.8,68.7v7h-0.4v-7.2L122.8,68.7z M120.4,74.3v3.4
	h3.5v1.2H94.8v-4.1h2.6v-0.5H120.4z M125.9,87.6v-7.1l2.6,1.4v5.6H125.9z M125.9,79.4v-3.7h-2.1v-6.4l4.7,2.8v8.7L125.9,79.4z
	 M123.8,68.1v-9l4.7,2.8v8.9L123.8,68.1z M123.8,58v-9.9l4.7,3v9.7L123.8,58z M123.8,46.9v-8.5l5.1,3.7h-0.5v7.9L123.8,46.9z
	 M83.8,275.6v-8.5h4.6l-0.1,8.5L83.8,275.6z M88.3,276.6l0,4.6c-1.5-0.7-3-1.4-4.5-2.2v-2.4H88.3z M83.8,266.1v-10.3h4.7l-0.1,10.3
	L83.8,266.1z M83.8,254.8v-10.5h4.8l-0.1,10.5L83.8,254.8z M83.8,243.3v-5.3v-7.6h4.9l-0.1,12.9L83.8,243.3z M83.8,229.5v-9h-4.1
	v-1.6l9,0l-0.1,10.7L83.8,229.5z M78.4,274.7v-8.4l3.4,0.6v8.4L78.4,274.7z M81.8,276.4v1.5c-1.1-0.6-2.3-1.2-3.4-1.9v-0.3
	L81.8,276.4z M78.4,265.3v-10.3l3.4,0.6v10.3L78.4,265.3z M78.4,254.1v-10.4l3.4,0.5v10.5L78.4,254.1z M78.4,242.6v-13l3.4,0.6v7.8
	v5.1L78.4,242.6z M78.4,228.6v-6.2h3.4v6.8L78.4,228.6z M79.7,217.8v-9l9.1,0l-0.1,9L79.7,217.8z M79.7,207.8v-3.1h-2.9v-7.1l12.1,0
	l-0.1,10.2L79.7,207.8z M72.5,264.3v-10.2l4.9,0.8v10.2L72.5,264.3z M77.4,266.2v8.4l-2.3-0.4c-0.9-0.5-1.7-1.1-2.6-1.6v-7.2
	L77.4,266.2z M72.5,253.1v-10.4l4.9,0.8v10.4L72.5,253.1z M72.5,241.7v-13.2l4.9,0.9v13L72.5,241.7z M72.5,227.5v-10l4.9,1v9.9
	L72.5,227.5z M72.5,216.5v-9.2l4.9,1.2v9L72.5,216.5z M72.5,206.3v-9.5l2.3,0.6v9.3h2.6v0.7L72.5,206.3z M72.5,195.8v-3h2.3v3.6
	L72.5,195.8z M76.8,196.6v-5.8h-4.1V187l16.2,0l-0.1,9.6L76.8,196.6z M72.8,186.1v-7.7h-2.9v-2.1l19.2,0l-0.1,9.8L72.8,186.1z
	 M66.5,263.2v-10.2l5,0.8v10.2L66.5,263.2z M71.5,265.1v6.7c-1.7-1.1-3.4-2.2-5-3.4v-4.2L71.5,265.1z M66.5,252.1v-10.3l5,0.8v10.4
	L66.5,252.1z M66.5,240.7v-13.4l5,1v13.2L66.5,240.7z M66.5,226.3v-10.1l5,1v10L66.5,226.3z M66.5,215.2v-9.4l5,1.2v9.2L66.5,215.2z
	 M66.5,204.8v-9.5l5,1.3v9.5L66.5,204.8z M66.5,194.2v-8.5l4.3,1.1v6h0.7v2.7L66.5,194.2z M67.9,176v4.3h2.9v5.5l-4.3-1.1v-9.1
	L67.9,176z M66.5,174.6v-7l1.4,0.4v7L66.5,174.6z M69.9,175.3v-8.4H69l0.1-0.3l-2.5-0.8l22.5,0.3l-0.1,9.2L69.9,175.3z M63.4,164.7
	L47,159.4h0.2v-4h42l-0.1,9.7L63.4,164.7z M62.9,225.6v-7.4h-1.8v-3.1l4.4,0.9v10.1L62.9,225.6z M65.5,227.2v2.8h-2.6v-3.3
	L65.5,227.2z M61.1,214.1v-9.6l4.4,1.1v9.5L61.1,214.1z M61.1,203.4v-9.6l4.4,1.1v9.5L61.1,203.4z M61.1,192.9v-8.5l4.4,1.1v8.5
	L61.1,192.9z M61.1,183.3v-9.2l4.4,1.2v9.1L61.1,183.3z M61.1,173v-7.2l4.4,1.4v7.1L61.1,173z M30.1,208.6v-3.8H33v-1.8h20.9v1.6
	h2.9v8.9l-26.7,0v-3.8h26.4v-1H30.1z M46.9,165.6v3.7l-7.6,0v-3.9l2.6-0.6v-4.4h1.2v5.2H46.9z M45.2,163.6v-3l2.9,0.9v2.1H45.2z
	 M46.9,170.4v3.2h-7.6v-3.2H46.9z M46.9,174.6v3.5h2.9v2.6l-13.3,0v-0.5h2.8v-5.6H46.9z M54.4,172.2v9.4l-2.6-0.7v-4.8H49v-5.4
	L54.4,172.2z M49,169.6v-7.7l5.4,1.7v7.5L49,169.6z M54.4,182.6v6h-2.6V182L54.4,182.6z M49.8,181.7v3.2H36.5v-3.2H49.8z
	 M49.8,185.9v4.7h4.1v0.7l-20.9,0v-0.6h3.6v-4.8H49.8z M53.9,192.3v4.1H33v-4.1H53.9z M53.9,197.4v4.6l-20.9,0v-4.6H53.9z
	 M60.1,173.8v9.2l-4.7-1.2v-9.4L60.1,173.8z M55.4,171.4V164l4.7,1.5v7.3L55.4,171.4z M60.1,184.1v8.5l-4.2-1.1v-2.9h-0.5v-5.7
	L60.1,184.1z M58.8,213.6v-9.7l1.3,0.3v9.7L58.8,213.6z M60.1,214.9v3.3h-1.3v-3.5L60.1,214.9z M58.8,202.9v-0.4h-1.5l-1.4-0.4v-9.6
	l4.2,1.1v9.6L58.8,202.9z M56.8,214.4v4.8H30.1v-4.8H56.8z M60.9,220.2v5.2H26.3v-5.2H60.9z M47.2,154.4v-7.6H51v-2.6h38.3
	l-0.1,10.3H47.2z M51,143.1v-4.6h36v2.4h2.3l0,2.2H51z M73.1,77.4v2.8h-7.3v-2.6l2.9-0.3V73h1.2v4.4H73.1z M71.9,75.4v-1.8l3,1.8
	H71.9z M73.1,81.2v4.1h-7.3v-4.1H73.1z M73.1,86.3v5.3h3.2V94H62v-0.7h3.8v-7H73.1z M79.7,89.2v10.8h-1.4V89.6h-3.2v-2.7L79.7,89.2z
	 M75.1,85.8V75.5l4.6,2.7v9.9L75.1,85.8z M76.3,95v6H62v-6H76.3z M76.3,102L76.3,102l2.9,0.1v6.6H58.8v-0.3l3.2-0.3V102H76.3z
	 M79.2,109.6v4.9h3.2v2.1H58.8v-7H79.2z M85.2,92v11.4l-4-2v-1.4h-0.5V89.7L85.2,92z M80.7,88.6v-9.8l4.5,2.7v9.4L80.7,88.6z
	 M84.4,117v-4.5h-3.2v-10l4,2v12.8L84.4,117z M85.2,118.4v7.5h-0.8v-7.8L85.2,118.4z M82.4,117.6v5.8h-27v-3.9h3.5v-1.9H82.4z
	 M82.4,124.4v3.5H87v2.6H55.3v-6.1H82.4z M87,131.5v6H51v-3h4.4v-3H87z M89,139v-7l0.8,0.3v6.7H89z M89,130.9v-5h-2.8v-7l3.6,1.5
	v10.8L89,130.9z M86.2,117.8V105l3.6,1.8v12.6L86.2,117.8z M86.2,103.9V92.5l3.6,1.8v11.3L86.2,103.9z M86.2,91.4v-9.4l3.6,2.1v9.1
	L86.2,91.4z M64.1,241.5v10.3H46.9c-3.3-3.3-6.4-6.8-9.3-10.3L64.1,241.5z M64.1,264v2.8c-1.2-0.9-2.4-1.8-3.6-2.7L64.1,264z
	 M264.9,238.4l-8.4-3.3l0-3.4l10.3,4.2c0,0,0,0,0,0C266.2,236.7,265.5,237.5,264.9,238.4z"/>
</svg>
