<?xml version="1.0" encoding="utf-8"?>
<!-- Generator: Adobe Illustrator 19.2.1, SVG Export Plug-In . SVG Version: 6.00 Build 0)  -->
<svg version="1.1" id="Layer_1" xmlns="http://www.w3.org/2000/svg" xmlns:xlink="http://www.w3.org/1999/xlink" x="0px" y="0px"
	 viewBox="0 0 59.7 83" style="enable-background:new 0 0 59.7 83;" xml:space="preserve">
<g>
	<circle cx="9.1" cy="15.5" r="1.6"/>
	<circle cx="38.6" cy="15.5" r="1.6"/>
	<circle cx="44.6" cy="15.5" r="1.6"/>
	<circle cx="50.6" cy="15.5" r="1.6"/>
	<path d="M58.2,7.9H1.5C0.7,7.9,0,8.6,0,9.4v12.1v54.8c0,0.8,0.7,1.5,1.5,1.5h3.7v3.7c0,0.8,0.7,1.5,1.5,1.5s1.5-0.7,1.5-1.5v-3.7
		h43.4v3.7c0,0.8,0.7,1.5,1.5,1.5s1.5-0.7,1.5-1.5v-3.7h3.7c0.8,0,1.5-0.7,1.5-1.5V21.6V9.4C59.7,8.6,59.1,7.9,58.2,7.9z M3,10.9
		h53.7v9.1H3V10.9z M56.7,74.8H3V23.1h53.7V74.8z"/>
	<path d="M1.5,3h56.7c0.8,0,1.5-0.7,1.5-1.5S59.1,0,58.2,0H1.5C0.7,0,0,0.7,0,1.5S0.7,3,1.5,3z"/>
	<path d="M29.9,66.8c9.9,0,17.9-8,17.9-17.9s-8-17.9-17.9-17.9S12,39.1,12,49S20,66.8,29.9,66.8z M29.9,63.8
		C21.7,63.8,15,57.2,15,49c0.7,0.2,1.2,0.6,1.8,1.1c1.1,0.9,2.4,2,5,2c2.6,0,3.9-1.1,5-2c0.9-0.8,1.6-1.3,3.1-1.3
		c1.5,0,2.2,0.5,3.1,1.3c1.1,0.9,2.4,2,5,2c2.6,0,3.9-1.1,5-2c0.6-0.5,1.1-0.9,1.8-1.1C44.7,57.2,38.1,63.8,29.9,63.8z M29.9,34.1
		c7.2,0,13.2,5.1,14.6,11.9c-1.6,0.3-2.6,1.1-3.4,1.8c-0.9,0.8-1.6,1.3-3.1,1.3c-1.5,0-2.2-0.5-3.1-1.3c-1.1-0.9-2.4-2-5-2
		s-3.9,1.1-5,2c-0.9,0.8-1.6,1.3-3.1,1.3c-1.5,0-2.2-0.5-3.1-1.3c-0.8-0.7-1.8-1.5-3.4-1.8C16.7,39.2,22.7,34.1,29.9,34.1z"/>
</g>
</svg>
