<?xml version="1.0" encoding="utf-8"?>
<!-- Generator: Adobe Illustrator 19.2.1, SVG Export Plug-In . SVG Version: 6.00 Build 0)  -->
<svg version="1.1" id="Layer_1" xmlns="http://www.w3.org/2000/svg" xmlns:xlink="http://www.w3.org/1999/xlink" x="0px" y="0px"
	 width="616.8px" height="616.8px" viewBox="0 0 616.8 616.8" style="enable-background:new 0 0 616.8 616.8;" xml:space="preserve"
	>
<g>
	<g>
		<path d="M571.2,0H45.5C20.4,0,0,19.9,0,44.5v527.9c0,24.6,20.4,44.5,45.5,44.5h525.7c25.1,0,45.6-19.9,45.6-44.5V44.5
			C616.8,19.9,596.3,0,571.2,0z M183,525.6H91.4V231.2H183V525.6z M137.2,191c-29.4,0-53.1-23.8-53.1-53.1
			c0-29.3,23.7-53.1,53.1-53.1c29.3,0,53,23.8,53,53.1C190.2,167.3,166.5,191,137.2,191z M525.6,525.6h-91.5V382.5
			c0-34.1-0.6-78.1-47.5-78.1c-47.6,0-54.9,37.2-54.9,75.6v145.6h-91.4V231.2h87.7v40.2h1.3c12.2-23.1,42-47.5,86.6-47.5
			c92.6,0,109.8,61,109.8,140.2V525.6z"/>
	</g>
</g>
</svg>
