<?xml version="1.0" encoding="utf-8"?>
<!-- Generator: Adobe Illustrator 19.2.1, SVG Export Plug-In . SVG Version: 6.00 Build 0)  -->
<svg version="1.1" id="Layer_1" xmlns="http://www.w3.org/2000/svg" xmlns:xlink="http://www.w3.org/1999/xlink" x="0px" y="0px"
	 width="40px" height="54.4px" viewBox="0 0 40 54.4" style="enable-background:new 0 0 40 54.4;" xml:space="preserve">
<title>pin</title>
<desc>Created with Sketch.</desc>
<g id="Suite">
	<g id="Housing_dev" transform="translate(-204.000000, -2542.000000)">
		<g id="nearby" transform="translate(0.000000, 2245.000000)">
			<g id="illustration" transform="translate(127.000000, 101.000000)">
				<path id="pin" d="M97,225.6c-5.1,0-9.2-4.2-9.2-9.3c0-5.1,4.1-9.3,9.2-9.3c5.1,0,9.2,4.2,9.2,9.3
					C106.2,221.4,102.1,225.6,97,225.6 M97,196c-9.8,0-18,7.2-19.7,16.8c-0.2,0.7-0.2,1.5-0.2,2.2c0,0.4-0.1,0.9-0.1,1.2v0.2
					c0,0.6,0.1,1.2,0.1,1.8c0.1,0.6,0.2,1.2,0.3,1.9c0.2,0.8,0.3,1.5,0.5,2.2c0.4,1.2,0.8,2.4,1.4,3.7c0.2,0.5,0.5,1.2,0.8,1.7
					c0.2,0.5,0.5,1,0.8,1.5c0.4,0.7,0.8,1.5,1.2,2.2c5.5,9.4,13.7,18.1,14.1,18.6c0.2,0.2,0.5,0.4,0.8,0.4c0.3,0,0.6-0.2,0.8-0.4
					c0.6-0.6,14.7-15.6,18.2-27.6c0.2-0.7,0.4-1.4,0.5-2.2c0.2-1.3,0.4-2.6,0.4-3.9C116.9,205.1,108,196,97,196"/>
			</g>
		</g>
	</g>
</g>
</svg>
