
<svg width="65px" height="65px" viewBox="346 220 65 65" version="1.1" xmlns="http://www.w3.org/2000/svg" xmlns:xlink="http://www.w3.org/1999/xlink">
    <!-- Generator: Sketch 3.8.1 (29687) - http://www.bohemiancoding.com/sketch -->

    <path d="M378.482667,220 C360.568667,220 346,234.575167 346,252.491333 C346,270.405333 360.570833,284.974 378.482667,284.974 C396.3945,284.974 410.978333,270.403167 410.978333,252.491333 C410.978333,234.575167 396.396667,220 378.482667,220 L378.482667,220 Z M378.482667,282.642667 C361.855667,282.642667 348.331333,269.122667 348.331333,252.491333 C348.331333,235.86 361.855667,222.331333 378.482667,222.331333 C395.114,222.331333 408.647,235.86 408.647,252.491333 C408.647,269.122667 395.114,282.642667 378.482667,282.642667 L378.482667,282.642667 Z M393.129333,249.414667 L372.790833,238.124167 C370.019667,236.583667 367.3655,238.217333 367.3655,241.32 L367.3655,263.656167 C367.3655,265.937667 368.676333,267.473833 370.624167,267.473833 C371.326167,267.473833 372.0585,267.265833 372.795167,266.856333 L393.129333,255.5615 C394.474833,254.816167 395.2505,253.696 395.2505,252.4935 C395.2505,251.291 394.474833,250.168667 393.129333,249.414667 L393.129333,249.414667 Z M391.996167,253.5205 L371.666333,264.815333 C371.280667,265.027667 370.925333,265.140333 370.626333,265.140333 C369.8225,265.140333 369.699,264.213 369.699,263.654 L369.699,241.32 C369.699,240.765333 369.8225,239.838 370.626333,239.838 C370.9275,239.838 371.282833,239.952833 371.666333,240.163 L391.996167,251.4535 C392.563833,251.769833 392.919167,252.1685 392.919167,252.491333 C392.917,252.809833 392.561667,253.206333 391.996167,253.5205 L391.996167,253.5205 Z" id="Play-round-2" stroke="none" fill="#FFFFFF" fill-rule="evenodd"></path>
</svg>