<?xml version="1.0" encoding="utf-8"?>
<!-- Generator: Adobe Illustrator 20.1.0, SVG Export Plug-In . SVG Version: 6.00 Build 0)  -->
<svg version="1.1" id="Layer_1" xmlns="http://www.w3.org/2000/svg" xmlns:xlink="http://www.w3.org/1999/xlink" x="0px" y="0px"
	 viewBox="0 0 44.7 60" style="enable-background:new 0 0 44.7 60;" xml:space="preserve">
<g id="Suite">
	<g id="Housing_dev" transform="translate(-621.000000, -3809.000000)">
		<g id="features" transform="translate(211.000000, 3683.000000)">
			<g id="Group-10" transform="translate(1.000000, 126.000000)">
				<g id="Group-12" transform="translate(345.000000, 0.000000)">
					<g id="private-bathroom" transform="translate(64.000000, 0.000000)">
						<path id="Fill-1" d="M12.1,40.2c-0.7,0-1.3-0.6-1.3-1.3s0.6-1.3,1.3-1.3s1.3,0.6,1.3,1.3C13.4,39.7,12.8,40.2,12.1,40.2
							 M12.1,35.7c-1.8,0-3.2,1.4-3.2,3.2s1.4,3.2,3.2,3.2s3.2-1.4,3.2-3.2C15.4,37.2,13.9,35.7,12.1,35.7"/>
						<path id="Fill-3" d="M14.4,42.9c-0.3,0.2-0.5,0.5-0.5,0.8v6.2c0,1-0.8,1.8-1.8,1.8s-1.8-0.8-1.8-1.8v-6.2
							c0-0.3-0.2-0.7-0.5-0.8c-1.4-0.8-2.3-2.3-2.3-3.9c0-2.5,2-4.5,4.5-4.5s4.5,2,4.5,4.5C16.7,40.6,15.8,42.1,14.4,42.9
							 M12.1,32.5c-3.6,0-6.5,2.9-6.5,6.5c0,2.1,1,4.1,2.7,5.3V50c0,2,1.7,3.7,3.7,3.7s3.7-1.7,3.7-3.7v-5.7
							c1.7-1.2,2.7-3.2,2.7-5.3C18.6,35.4,15.7,32.5,12.1,32.5"/>
					</g>
				</g>
			</g>
		</g>
	</g>
</g>
<g id="Group-7">
	<g id="Clip-6">
	</g>
	<path id="Fill-5" d="M41.5,17.9H12.2c-0.7,0-1.3-0.6-1.3-1.3c0-0.7,0.6-1.3,1.3-1.3h29.4c0.7,0,1.3,0.6,1.3,1.3
		C42.8,17.3,42.2,17.9,41.5,17.9L41.5,17.9z M12.2,19.8h3.1c-0.8,0.8-1.9,1.3-3.2,1.3c-2.5,0-4.5-2-4.5-4.5s2-4.5,4.5-4.5
		c1.2,0,2.3,0.5,3.2,1.3h-3.1c-1.8,0-3.2,1.4-3.2,3.2S10.4,19.8,12.2,19.8L12.2,19.8z M22.3,47.9c0,5.6-4.6,10.2-10.2,10.2
		S1.9,53.5,1.9,47.9V12.1c0-5.6,4.6-10.2,10.2-10.2s10.2,4.6,10.2,10.2v1.2h-4.6c-1.1-1.9-3.2-3.2-5.6-3.2c-3.6,0-6.5,2.9-6.5,6.5
		s2.9,6.5,6.5,6.5c2.4,0,4.5-1.3,5.6-3.2h4.6V47.9L22.3,47.9z M41.5,13.4H24.3v-1.2C24.3,5.4,18.8,0,12.1,0S0,5.4,0,12.1v35.7
		C0,54.6,5.4,60,12.1,60s12.1-5.4,12.1-12.1v-28h17.2c1.8,0,3.2-1.4,3.2-3.2C44.7,14.8,43.3,13.4,41.5,13.4L41.5,13.4z"/>
</g>
</svg>
