
<svg width="66px" height="65px" viewBox="0 0 66 65" version="1.1" xmlns="http://www.w3.org/2000/svg" xmlns:xlink="http://www.w3.org/1999/xlink">
    <!-- Generator: Sketch 3.8.1 (29687) - http://www.bohemiancoding.com/sketch -->
    <desc>Created with Sketch.</desc>
    <defs></defs>
    <path d="M32.5,65 C50.4492544,65 65,50.4492544 65,32.5 C65,14.5507456 50.4492544,0 32.5,0 C14.5507456,0 0,14.5507456 0,32.5 C0,50.4492544 14.5507456,65 32.5,65 Z M43.001,42.6011 C37.701,42.3011 34.301,41.6011 34.301,37.2011 C34.301,35.8011 34.901,34.5001 35.601,33.1011 L40.901,23.0001 L44.501,24.4001 L41.601,33.8001 C41.501,34.3001 41.601,34.5001 42.101,34.7011 L45.001,36.0001 L43.001,42.6011 Z M28.7,42.6011 C23.4,42.3011 20,41.6011 20,37.2011 C20,35.8011 20.6,34.5001 21.3,33.1011 L26.6,23.0001 L30.2,24.4001 L27.3,33.8001 C27.2,34.3001 27.3,34.5001 27.8,34.7011 L30.701,36.0001 L28.7,42.6011 Z" id="quote-mark" stroke="none" fill="#CA4A24" fill-rule="evenodd"></path>
</svg>