<?xml version="1.0" encoding="utf-8"?>
<!-- Generator: Adobe Illustrator 19.2.1, SVG Export Plug-In . SVG Version: 6.00 Build 0)  -->
<svg version="1.1" id="Layer_1" xmlns="http://www.w3.org/2000/svg" xmlns:xlink="http://www.w3.org/1999/xlink" x="0px" y="0px"
	 width="103.3px" height="81px" viewBox="0 0 103.3 81" style="enable-background:new 0 0 103.3 81;" xml:space="preserve">
<path d="M89.3,44.6l12-38.9L86.4,0L64.5,41.7c-2.9,5.8-5.4,11.2-5.4,16.9c0,18.2,14.1,21.1,36,22.3l8.3-27.3l-12-5.4
	C89.3,47.5,88.9,46.7,89.3,44.6z"/>
<path d="M30.2,44.6l12-38.9L27.3,0L5.4,41.7C2.5,47.5,0,52.9,0,58.7C0,76.9,14.1,79.8,36,81l8.3-27.3l-12-5.4
	C30.2,47.5,29.8,46.7,30.2,44.6z"/>
</svg>
