<?xml version="1.0" encoding="utf-8"?>
<!-- Generator: Adobe Illustrator 19.2.1, SVG Export Plug-In . SVG Version: 6.00 Build 0)  -->
<svg version="1.1" id="Layer_1" xmlns="http://www.w3.org/2000/svg" xmlns:xlink="http://www.w3.org/1999/xlink" x="0px" y="0px" viewBox="0 0 45.6 60" style="enable-background:new 0 0 45.6 60;" xml:space="preserve">
<title>refrigerator</title>
<desc>Created with Sketch.</desc>
<g id="Suite">
	<g id="Housing_dev" transform="translate(-439.000000, -3809.000000)">
		<g id="features" transform="translate(211.000000, 3683.000000)">
			<g id="Group-10" transform="translate(1.000000, 126.000000)">
				<g id="Group-8" transform="translate(173.000000, 0.000000)">
					<g id="refrigerator" transform="translate(54.000000, 0.000000)">
						<path id="Fill-1" d="M43.2,6H2.4V2.7c0-0.1,0.1-0.2,0.2-0.2H43c0.1,0,0.2,0.1,0.2,0.2L43.2,6L43.2,6z M43.2,21.3h-3.1v-6.1
							c0-0.7-0.6-1.3-1.3-1.3s-1.3,0.6-1.3,1.3v6.1h-35V6.4h40.7V21.3z M43.2,51.6c0,0,0,1.6-0.8,3.1c-1,1.9-2.7,2.9-5.2,2.9H8.4
							c0,0-1.6,0-3.1-0.8c-1.9-1-2.9-2.7-2.9-5.2V21.7h35v6.1c0,0.7,0.6,1.3,1.3,1.3s1.3-0.6,1.3-1.3v-6.1h3.1L43.2,51.6L43.2,51.6z
							 M43,0H2.7C1.2,0,0,1.2,0,2.7v48.9C0,55.9,2.3,58,4.3,59c2,1,4.1,1,4.1,1h28.8c4.3,0,6.4-2.3,7.4-4.3c1-2,1-4.1,1-4.1V2.7
							C45.6,1.2,44.4,0,43,0L43,0z M38.8,3.5c-0.5,0-0.9,0.4-0.9,0.9c0,0.5,0.4,0.9,0.9,0.9s0.9-0.4,0.9-0.9
							C39.7,3.9,39.3,3.5,38.8,3.5L38.8,3.5z"/>
					</g>
				</g>
			</g>
		</g>
	</g>
</g>
</svg>
