<?xml version="1.0" encoding="utf-8"?>
<!-- Generator: Adobe Illustrator 19.2.1, SVG Export Plug-In . SVG Version: 6.00 Build 0)  -->
<svg version="1.1" id="Layer_1" xmlns="http://www.w3.org/2000/svg" xmlns:xlink="http://www.w3.org/1999/xlink" x="0px" y="0px"
	 width="140.7px" height="140.7px" viewBox="0 0 140.7 140.7" style="enable-background:new 0 0 140.7 140.7;" xml:space="preserve"
	>
<title>Search</title>
<desc>Created with Sketch.</desc>
<path d="M140.7,128.1L89.4,76.8c4.1-7.6,6.5-16.3,6.5-25.7C95.9,22.9,74.4,0,48,0S0,22.9,0,51.2c0,28.3,21.5,51.2,48,51.2
	c11.5,0,22-4.3,30.3-11.5l49.9,49.9L140.7,128.1z M48,90.9c-20.6,0-37.3-17.8-37.3-39.8c0-22,16.7-39.8,37.3-39.8
	c20.6,0,37.3,17.8,37.3,39.8c0,9.7-3.3,18.6-8.7,25.5l-6.2,6.2l0,0C64.1,88,56.4,90.9,48,90.9z"/>
</svg>
