<?xml version="1.0" encoding="utf-8"?>
<!-- Generator: Adobe Illustrator 20.1.0, SVG Export Plug-In . SVG Version: 6.00 Build 0)  -->
<svg version="1.1" id="Layer_1" xmlns="http://www.w3.org/2000/svg" xmlns:xlink="http://www.w3.org/1999/xlink" x="0px" y="0px"
	 viewBox="0 0 363 341.4" style="enable-background:new 0 0 363 341.4;" xml:space="preserve">
<style type="text/css">
	.st0{fill:#FFFFFF;}
	.st1{fill:#030303;}
</style>
<g>
	<g>
		<g>
			<g>
				<path class="st0" d="M183.7,336.1c-0.9,0-1.8,0-2.7-0.1h0c-0.6,0-1.2,0.1-1.8,0.1c-20.9,0-34.3-9.5-47.3-18.6
					c-9-6.3-17.4-12.3-27.3-14c-4.9-0.8-9.7-1.2-14.4-1.2c-8.4,0-15.1,1.3-19.9,2.2c-2.9,0.6-5.5,1.1-7.4,1.1c-2,0-4.2-0.4-5.2-3.7
					c-0.8-2.8-1.4-5.5-2-8.2c-1.5-6.8-2.5-11-5.4-11.4c-33.1-5.1-42.6-12.1-44.7-17c-0.3-0.7-0.5-1.4-0.5-2.1
					c-0.1-1.9,1.2-3.6,3.1-3.9c50.9-8.4,73.8-60.4,74.7-62.6c0-0.1,0.1-0.1,0.1-0.2c3.1-6.3,3.7-11.8,1.8-16.3
					c-3.5-8.2-14.9-11.9-22.4-14.2c-1.8-0.6-3.6-1.1-5-1.7c-15.1-6-16.3-12.1-15.7-15.2c1-5.3,8.1-9,13.8-9c1.6,0,3,0.3,4.1,0.8
					c6.8,3.2,12.9,4.8,18.1,4.8c7.3,0,10.5-3.1,10.8-3.5c-0.2-3.4-0.4-7-0.6-10.8c-1.5-24.1-3.4-54,4.2-71.1
					c22.8-51.2,71.2-55.2,85.5-55.2c0.4,0,6.3-0.1,6.3-0.1l0.8,0c14.3,0,62.8,4,85.7,55.2c7.6,17.1,5.7,47,4.2,71.1l-0.1,1
					c-0.2,3.4-0.4,6.6-0.6,9.7c0.4,0.4,3.3,3.2,9.9,3.4h0c5-0.2,10.8-1.8,17.1-4.8c1.9-0.9,3.9-1,5.3-1c2.1,0,4.3,0.4,6.1,1.2l0.1,0
					c5.1,1.8,8.5,5.4,8.5,9.1c0.1,3.5-2.6,8.8-15.8,14c-1.4,0.5-3.1,1.1-5,1.7c-7.6,2.4-18.9,6-22.4,14.2c-1.9,4.5-1.3,10,1.8,16.3
					c0,0.1,0.1,0.1,0.1,0.2c0.9,2.2,23.8,54.2,74.7,62.6c1.9,0.3,3.2,2,3.1,3.9c0,0.7-0.2,1.4-0.5,2.1c-2.1,4.9-11.6,11.9-44.7,17
					c-2.7,0.4-3.8,3.9-5.4,11.3c-0.6,2.7-1.2,5.3-2,8.1c-0.7,2.4-2.2,3.5-4.7,3.5H300c-1.8,0-4.3-0.3-7.4-0.9
					c-5.6-1.1-11.9-2.1-19.9-2.1c-4.7,0-9.5,0.4-14.4,1.2c-9.9,1.7-18.4,7.6-27.3,13.9C218,326.7,204.6,336.1,183.7,336.1z"/>
				<path d="M183.7,337.6c-0.9,0-1.8,0-2.7-0.1c-0.6,0-1.2,0.1-1.8,0.1c-21.4,0-35-9.6-48.1-18.9c-8.8-6.2-17.1-12.1-26.7-13.7
					c-4.8-0.8-9.5-1.2-14.1-1.2c-8.3,0-14.8,1.3-19.6,2.2c-3,0.6-5.6,1.1-7.7,1.1c-1.3,0-5.2,0-6.6-4.8c-0.9-2.9-1.5-5.8-2-8.3
					c-1.3-5.8-2.3-9.9-4.1-10.2c-27.1-4.2-42.6-10.2-45.9-17.9c-0.4-0.9-0.6-1.7-0.6-2.6c-0.2-2.7,1.7-5,4.4-5.5
					c50.1-8.2,72.6-59.6,73.6-61.8l0.1-0.2c2.9-5.9,3.5-11,1.8-15.1c-3.2-7.6-14.2-11.1-21.5-13.4c-1.9-0.6-3.7-1.2-5.1-1.7
					c-16.1-6.3-17.3-13.3-16.6-16.8c1.2-6.1,8.9-10.2,15.3-10.2c1.8,0,3.4,0.3,4.8,1c6.6,3.1,12.5,4.6,17.5,4.6
					c5.4,0,8.2-1.8,9.3-2.6c-0.2-3.1-0.4-6.3-0.6-9.6l0-0.4c-1.5-24.2-3.4-54.3,4.3-71.8c23.2-52,72.4-56,86.9-56
					c0.4,0,6.2-0.1,6.2-0.1l0.9,0c14.6,0,63.8,4,87.1,56.1c7.8,17.4,5.9,47.6,4.3,71.8l-0.1,1c-0.2,3.1-0.4,6.1-0.5,9
					c1,0.8,3.6,2.4,8.3,2.6c4.8-0.2,10.3-1.7,16.5-4.6c2.1-1,4.4-1.2,5.9-1.2c2.3,0,4.7,0.5,6.7,1.3l0.1,0c5.6,2,9.4,6.1,9.5,10.5
					c0.1,4-2.8,9.9-16.8,15.5c-1.4,0.6-3.2,1.1-5.1,1.7c-7.3,2.3-18.3,5.8-21.5,13.4c-1.7,4.1-1.1,9.1,1.8,15
					c0.1,0.2,0.1,0.2,0.1,0.3c0.9,2.1,23.5,53.4,73.5,61.7c2.6,0.4,4.5,2.8,4.4,5.5c-0.1,0.9-0.3,1.8-0.6,2.6
					c-3.3,7.7-18.7,13.7-45.9,17.9c-1.7,0.3-2.7,3.5-4.1,10.2c-0.6,2.7-1.2,5.4-2,8.2c-0.9,3.1-3,4.6-6.2,4.6H300
					c-1.9,0-4.4-0.3-7.7-1c-5.5-1.1-11.7-2.1-19.6-2.1c-4.6,0-9.3,0.4-14.1,1.2c-9.6,1.6-17.9,7.5-26.7,13.7
					C218.7,328,205.1,337.6,183.7,337.6z M181,334.6L181,334.6c1,0,1.8,0.1,2.7,0.1c20.4,0,33.6-9.3,46.4-18.4
					c9.1-6.4,17.6-12.5,27.9-14.2c4.9-0.8,9.9-1.2,14.6-1.2c8.1,0,14.5,1,20.2,2.1c3.1,0.6,5.5,0.9,7.1,0.9h0.4
					c1.9,0,2.8-0.7,3.3-2.5c0.8-2.8,1.4-5.4,2-8c1.6-7.4,2.8-11.9,6.6-12.5c34.2-5.3,42-12.4,43.6-16.1c0.2-0.5,0.4-1.1,0.4-1.6
					c0.1-1.1-0.7-2.1-1.9-2.3c-51.7-8.5-74.9-61.3-75.8-63.5l1.3-0.7l-1.4,0.6c-3.3-6.7-3.9-12.6-1.8-17.5
					c3.8-8.9,15.6-12.6,23.4-15.1c1.8-0.6,3.5-1.1,4.9-1.6c9.7-3.8,15-8.3,14.9-12.6c-0.1-3.1-3-6.2-7.5-7.8l-0.2-0.1
					c-1.6-0.7-3.6-1.1-5.5-1.1c-1.2,0-3.1,0.2-4.7,0.9c-6.5,3-12.5,4.7-17.7,4.9l-0.1,0l-0.1,0c-7-0.3-10.3-3.3-10.9-3.9l-0.5-0.5
					l0-0.7c0.2-3.1,0.4-6.4,0.6-9.7l0.1-1c1.5-23.9,3.4-53.6-4.1-70.4C246.8,10.6,199.1,6.7,185,6.7l-0.8,0c0,0-5.9,0.1-6.3,0.1
					c-14.1,0-61.7,3.9-84.2,54.3c-7.5,16.7-5.6,46.5-4.1,70.4l0,0.4c0.2,3.6,0.4,7,0.6,10.3l0,0.7l-0.5,0.5
					c-0.6,0.7-4.2,3.9-11.9,3.9c-5.5,0-11.8-1.7-18.8-4.9c-1-0.5-2.1-0.7-3.5-0.7c-5.1,0-11.5,3.3-12.4,7.8
					c-0.4,2.1,0.2,7.7,14.8,13.5c1.3,0.5,3,1.1,4.8,1.6c7.9,2.5,19.6,6.2,23.4,15.1c2.1,4.9,1.5,10.8-1.9,17.5l0,0.1
					c-1,2.2-24.2,55-75.8,63.5c-1.1,0.2-1.9,1.2-1.9,2.3c0,0.5,0.2,1.1,0.4,1.6c1.6,3.8,9.4,10.9,43.6,16.1c4,0.6,5.2,5.9,6.6,12.5
					c0.5,2.5,1.2,5.3,2,8.1c0.6,2.2,1.8,2.6,3.7,2.6c1.8,0,4.3-0.5,7.1-1c4.9-1,11.6-2.3,20.2-2.3c4.7,0,9.7,0.4,14.6,1.2
					c10.3,1.7,18.9,7.8,28,14.2c12.8,9,26,18.4,46.4,18.4C179.8,334.6,180.4,334.6,181,334.6L181,334.6z"/>
			</g>
			<g>
				<path class="st1" d="M185,9c13.6,0,60.3,3.6,82.3,53c7.2,16.2,5.4,45.7,3.9,69.3c-0.2,3.7-0.5,7.4-0.7,10.9l-0.1,1.5l1,1.1
					c0.4,0.4,4.2,4.4,12.5,4.7l0.1,0l0.1,0c5.5-0.2,11.8-1.9,18.6-5.1c1-0.5,2.3-0.7,3.7-0.7c1.6,0,3.3,0.3,4.7,0.9l0.2,0.1
					c3.6,1.2,6.1,3.6,6.1,5.7c0,1.2-0.9,5.5-13.5,10.5c-1.2,0.5-2.9,1-4.7,1.6c-8.2,2.6-20.6,6.5-24.7,16.3
					c-2.3,5.5-1.7,12.1,1.9,19.4c1.5,3.5,24.9,56.2,77.5,64.8c0,0.2-0.1,0.5-0.2,0.8c-0.9,2.1-6.6,9.4-41.9,14.8
					c-5.5,0.9-6.9,7-8.4,14.2c-0.6,2.6-1.1,5.2-1.9,7.9c-0.2,0.8-0.3,0.9-1.2,0.9c-0.1,0-0.3,0-0.4,0l0,0c-1.6,0-3.9-0.3-6.7-0.9
					c-5-1-11.9-2.2-20.6-2.2c-4.9,0-9.9,0.4-15,1.3c-10.8,1.8-19.6,8-28.9,14.6c-12.5,8.8-25.4,18-45.1,18c-0.9,0-1.7,0-2.5-0.1
					l-0.2,0l-0.2,0c-0.5,0-1,0.1-1.5,0.1c-19.7,0-32.6-9.1-45.1-18c-9.3-6.6-18.1-12.8-28.9-14.6c-5.1-0.8-10.1-1.3-15-1.3
					c-8.8,0-15.6,1.3-20.6,2.3c-2.8,0.5-5.1,1-6.7,1c-1.3,0-1.3-0.1-1.6-1c-0.8-2.7-1.4-5.4-1.9-7.9c-1.6-7.2-2.9-13.4-8.4-14.3
					c-35.3-5.4-41-12.7-41.9-14.8C9,263.6,9,263.3,9,263c52.6-8.7,76-61.4,77.5-64.9c3.6-7.3,4.3-13.9,1.9-19.4
					c-4.2-9.8-16.5-13.7-24.7-16.4c-1.9-0.6-3.5-1.1-4.7-1.6c-10.6-4.2-13.9-8.4-13.4-11c0.6-3,5.7-6,10.2-6c1,0,1.9,0.2,2.5,0.5
					c7.3,3.4,13.9,5.1,19.7,5.1c9.2,0,13.2-4.3,13.7-4.7l1-1.1l-0.1-1.5c-0.2-3.5-0.4-7.1-0.7-10.9c-1.5-23.6-3.3-53.1,3.9-69.3
					C117.7,12.8,164.1,9,177.9,9c0.3,0,6.3-0.1,6.3-0.1C184.4,9,184.7,9,185,9 M185,1.5L185,1.5c-0.3,0-0.6,0-0.9,0l0,0
					c0,0-5.8,0.1-6.2,0.1c-14.9,0-65.2,4.1-88.9,57.4c-8,17.9-6.1,48.3-4.5,72.8c0.2,2.9,0.4,5.9,0.5,8.8c-1.2,0.7-3.5,1.5-7,1.5
					c-4.7,0-10.3-1.5-16.6-4.4c-1.7-0.8-3.6-1.2-5.7-1.2c-7.3,0-16.1,4.8-17.5,12c-1,5.2,1.3,12.8,18,19.3c1.5,0.6,3.3,1.2,5.2,1.8
					c6.9,2.2,17.3,5.5,20.1,12.1c1.5,3.4,0.9,7.9-1.7,13.2c-0.1,0.1-0.1,0.2-0.2,0.4c-0.9,2.1-23,52.4-71.9,60.4
					c-3.8,0.6-6.5,4-6.2,7.8c0.1,1.1,0.3,2.3,0.8,3.4c3.7,8.6,19.2,14.9,47.4,19.3c0.9,1.3,1.9,5.8,2.5,8.5c0.6,2.7,1.2,5.5,2.1,8.4
					c0.8,2.9,3.1,6.4,8.7,6.4c2.3,0,5-0.5,8.1-1.1c4.7-0.9,11.1-2.2,19.2-2.2c4.5,0,9.1,0.4,13.8,1.2c9.1,1.5,16.8,7,25.8,13.3
					c12.8,9.1,27.3,19.3,49.4,19.3c0.6,0,1.2,0,1.8-0.1c0.7,0,1.6,0.1,2.6,0.1c22.1,0,36.6-10.3,49.4-19.3
					c9-6.3,16.7-11.8,25.8-13.3c4.7-0.8,9.3-1.2,13.8-1.2c7.7,0,13.8,1,19.2,2c3.4,0.7,6.1,1,8.1,1l0.2,0h0.2c4.2,0,7.2-2.2,8.3-6.2
					c0.8-2.9,1.5-5.6,2.1-8.4c0.6-2.7,1.6-7.2,2.5-8.5c28.2-4.4,43.7-10.7,47.4-19.2c0.5-1.1,0.7-2.2,0.8-3.4
					c0.2-3.8-2.5-7.2-6.2-7.8c-48.9-8.1-71-58.3-71.9-60.4c-0.1-0.1-0.1-0.2-0.2-0.4c-2.6-5.3-3.2-9.7-1.7-13.2
					c2.8-6.7,13.2-10,20.1-12.1c1.9-0.6,3.7-1.2,5.2-1.8C319,163,325.1,157,325,150.2c-0.1-5.4-4.3-10.2-11-12.6l0,0
					c-2.2-0.9-4.9-1.4-7.5-1.4c-1.8,0-4.4,0.2-6.9,1.4c-5.8,2.7-11,4.2-15.5,4.4c-3-0.1-4.9-0.9-6-1.5c0.1-2.5,0.3-5,0.5-7.7l0.1-1
					c1.5-24.5,3.5-54.9-4.5-72.8C250.3,5.6,199.9,1.5,185,1.5L185,1.5z"/>
				<path d="M183.7,341.4c-1,0-1.9,0-2.6-0.1c-0.6,0-1.2,0.1-1.8,0.1c-22.6,0-37.3-10.4-50.3-19.6c-8.8-6.2-16.4-11.6-25.2-13.1
					c-4.6-0.8-9.1-1.1-13.5-1.1c-7.9,0-14.3,1.2-18.9,2.1c-3.2,0.6-6,1.2-8.4,1.2c-5.2,0-8.8-2.6-10.2-7.4c-0.9-3-1.5-5.8-2.1-8.5
					c-0.4-1.9-1.3-5.9-2-7.5c-28.7-4.5-43.9-10.9-47.8-20c-0.5-1.3-0.8-2.6-0.9-3.9c-0.3-4.6,3-8.6,7.5-9.3
					c48-7.9,69.8-57.4,70.7-59.5c0-0.1,0.1-0.2,0.2-0.4c2.4-5,3-9,1.7-12c-2.6-6-12.6-9.2-19.2-11.3c-2-0.6-3.8-1.2-5.3-1.8
					c-17.6-7-20-15.3-18.9-21c1.5-7.9,11-13.3,19-13.3c2.4,0,4.5,0.4,6.3,1.3c6.1,2.8,11.4,4.3,15.9,4.3c2.5,0,4.3-0.5,5.4-0.9
					c-0.1-2.1-0.3-4.3-0.4-6.4l-0.1-1.3c-1.5-24.6-3.5-55.2,4.7-73.5c24.1-54.1,75.2-58.3,90.3-58.3c0.5,0,6.2-0.1,6.2-0.1
					c0.3,0,0.6,0,0.9,0h0c15.1,0,66.3,4.2,90.5,58.3c8.1,18.3,6.2,48.9,4.7,73.5l-0.1,1c-0.1,2.3-0.3,4.5-0.4,6.7
					c1,0.4,2.5,0.8,4.5,0.9c4.3-0.2,9.3-1.6,14.9-4.3c2.7-1.3,5.6-1.5,7.5-1.5c2.8,0,5.7,0.6,8.1,1.6c7.2,2.6,11.8,7.9,11.9,13.9
					c0.1,7.5-6.3,13.9-19.1,19c-1.5,0.6-3.4,1.2-5.3,1.8c-6.6,2.1-16.6,5.3-19.2,11.3c-1.3,3-0.7,7,1.7,11.9
					c0.1,0.1,0.1,0.3,0.2,0.4c0.9,2.1,22.7,51.6,70.7,59.5c4.5,0.7,7.7,4.8,7.5,9.3c-0.1,1.3-0.4,2.6-0.9,3.9
					c-3.9,9.1-19.1,15.5-47.8,20c-0.7,1.6-1.6,5.6-2,7.4c-0.6,2.8-1.2,5.6-2.1,8.5c-1.4,4.6-4.9,7.3-9.8,7.3l-0.4,0
					c-2.1,0-4.9-0.3-8.4-1c-5.3-1-11.3-2-18.9-2c-4.4,0-8.9,0.4-13.5,1.1c-8.8,1.5-16.4,6.8-25.2,13
					C221,330.9,206.3,341.4,183.7,341.4z M181.1,338.3L181.1,338.3c0.8,0,1.7,0.1,2.7,0.1c21.6,0,35.9-10.1,48.5-19.1
					c9.1-6.5,17-12,26.4-13.6c4.7-0.8,9.4-1.2,14-1.2c7.8,0,14,1,19.5,2.1c3.3,0.6,5.9,1,7.8,1l0.4,0c3.5,0,5.9-1.8,6.9-5.2
					c0.8-2.8,1.4-5.5,2-8.3c0.9-4,1.7-7.7,2.8-9.1l0.4-0.5l0.6-0.1c27.3-4.2,42.8-10.4,46.2-18.3c0.4-0.9,0.6-1.9,0.7-2.9
					c0.2-3-2-5.7-5-6.2c-49.7-8.2-72.1-59.1-73-61.3c0-0.1-0.1-0.2-0.1-0.3c-2.8-5.7-3.4-10.6-1.8-14.5c3.1-7.3,13.9-10.7,21-13
					c1.9-0.6,3.7-1.2,5.1-1.7c11.6-4.6,17.4-10,17.2-16.2c-0.1-4.7-3.9-9-10-11.2c-2.1-0.9-4.6-1.4-7-1.4c-1.6,0-4,0.2-6.3,1.3
					c-6,2.8-11.4,4.3-16.1,4.5l-0.1,0l-0.1,0c-3.3-0.2-5.5-1-6.7-1.7l-0.8-0.5l0.1-0.9c0.1-2.5,0.3-5,0.5-7.7l0.1-1
					c1.5-24.3,3.4-54.5-4.4-72.1C249.3,7.1,199.6,3,185,3h0c-0.3,0-0.6,0-0.9,0c0,0-5.8,0.1-6.3,0.1c-14.6,0-64.2,4.1-87.6,56.5
					c-7.8,17.6-5.9,47.8-4.4,72L86,133c0.2,2.5,0.3,5,0.5,7.4l0.1,0.9l-0.8,0.5c-1.4,0.8-3.9,1.7-7.7,1.7c-4.9,0-10.7-1.5-17.2-4.6
					c-1.5-0.7-3.2-1-5.1-1c-6.6,0-14.8,4.4-16,10.8c-1.3,6.6,4.6,12.8,17.1,17.7c1.5,0.6,3.2,1.1,5.1,1.7c7.2,2.3,18,5.7,21.1,13
					c1.6,3.9,1,8.7-1.8,14.4c-0.1,0.1-0.1,0.2-0.1,0.3C80.1,198,57.6,249,8,257.1c-3,0.5-5.2,3.2-5,6.2c0.1,1,0.3,1.9,0.7,2.9
					c3.4,7.9,18.9,14.1,46.2,18.4l0.6,0.1l0.4,0.5c1,1.4,1.9,5.1,2.8,9c0.6,2.8,1.2,5.5,2.1,8.4c1,3.5,3.5,5.3,7.3,5.3
					c2.2,0,4.8-0.5,7.8-1.1c4.8-0.9,11.3-2.2,19.5-2.2c4.6,0,9.3,0.4,14,1.2c9.4,1.6,17.3,7.1,26.4,13.6c12.6,8.9,27,19.1,48.6,19.1
					C179.9,338.4,180.5,338.3,181.1,338.3L181.1,338.3z M183.7,333.9c-0.9,0-1.7,0-2.6-0.1l-0.1,0l-0.1,0c-0.5,0-1.1,0.1-1.6,0.1
					c-20.2,0-33.3-9.3-46-18.2c-9.2-6.5-17.8-12.6-28.3-14.3c-5-0.8-9.9-1.2-14.7-1.2c-8.7,0-15.4,1.3-20.3,2.3c-2.7,0.5-5.2,1-7,1
					c-1.7,0-2.5-0.3-3-2.1c-0.8-2.7-1.4-5.4-1.9-7.9c-1.7-7.8-2.9-12.5-7.2-13.2c-35.1-5.4-41.8-12.8-43-15.7
					c-0.2-0.4-0.3-0.9-0.3-1.4l-0.1-1.3l1.3-0.2c52.1-8.6,75.4-61.7,76.4-64c3.4-7,4.1-13.1,1.9-18.2c-3.9-9.2-15.9-13-23.8-15.5
					c-1.8-0.6-3.5-1.1-4.9-1.6c-14.1-5.6-14.7-10.7-14.3-12.7c0.8-4,6.9-7.2,11.6-7.2c1.2,0,2.3,0.2,3.2,0.6c7.1,3.3,13.5,5,19.1,5
					c8.5,0,12.2-3.8,12.5-4.2l0.6-0.6l0-0.9c-0.2-3.5-0.4-7.1-0.7-10.8c-1.5-23.8-3.4-53.4,4-70c22.3-50,69.5-53.8,83.5-53.8
					c0.3,0,6.3-0.1,6.3-0.1c0.3,0,0.5,0,0.8,0l0,0c14,0,61.3,3.9,83.6,53.9c7.4,16.6,5.5,46.2,4,70c-0.2,3.7-0.5,7.4-0.7,10.8l0,0.9
					l0.6,0.6c0.1,0.2,3.6,3.9,11.5,4.2l0.1,0l0.1,0c5.3-0.2,11.4-1.9,18-5c1.5-0.7,3.2-0.8,4.4-0.8c1.9,0,3.7,0.4,5.3,1l0.2,0.1
					c4.1,1.4,7,4.3,7,7.1c0,2.3-1.8,6.9-14.4,11.9c-1.3,0.5-3,1.1-4.8,1.6c-8,2.5-19.9,6.3-23.8,15.5c-2.2,5.1-1.5,11.2,1.9,18.2
					c1,2.3,24.3,55.5,76.4,64l1.3,0.2l-0.1,1.3c0,0.4-0.1,0.9-0.3,1.4c-1.2,2.9-7.9,10.3-43,15.7c-4.3,0.7-5.5,5.4-7.2,13.1
					c-0.6,2.6-1.2,5.2-2,8c-0.4,1.5-1.1,1.9-2.6,1.9H300c-2,0-4.9-0.5-7-0.9c-5.7-1.1-12.1-2.1-20.3-2.1c-4.8,0-9.8,0.4-14.7,1.2
					c-10.4,1.7-19.1,7.8-28.2,14.3C217,324.6,203.9,333.9,183.7,333.9z M180.9,330.8l0.3,0c0.8,0,1.6,0.1,2.5,0.1
					c19.2,0,31.9-9,44.2-17.7c9.5-6.7,18.4-13,29.5-14.8c5.1-0.9,10.3-1.3,15.2-1.3c8.5,0,15.3,1.1,20.9,2.2c2.8,0.5,5,0.8,6.4,0.8
					h0.2c0.7-2.6,1.3-5,1.8-7.5c1.6-7.4,3.1-14.4,9.7-15.4c25.4-3.9,37.2-9.3,40.2-13c-52.4-9.8-75.8-63.1-76.8-65.4
					c-3.8-7.7-4.4-14.6-1.9-20.6c4.4-10.4,17.2-14.5,25.6-17.2c1.8-0.6,3.5-1.1,4.7-1.6c12.5-4.9,12.5-8.9,12.5-9.1
					c0-1.3-1.9-3.2-5.1-4.3l-0.3-0.1c-2.2-0.9-5.6-1-7.2-0.2c-7,3.3-13.4,5-19.1,5.2l-0.1,0l-0.2,0c-9-0.3-13.2-4.7-13.6-5.2
					l-1.4-1.6l0.1-2.1c0.2-3.5,0.4-7.1,0.7-10.9c1.5-23.5,3.3-52.7-3.8-68.6c-21.6-48.3-67.4-52.1-80.9-52.1c-0.3,0-0.5,0-0.8,0
					c0,0-6,0.1-6.3,0.1c-13.5,0-59.2,3.8-80.7,52.1c-7.1,15.9-5.3,45.1-3.8,68.6c0.2,3.8,0.5,7.4,0.7,10.9l0.1,2.1l-1.4,1.6
					c-0.5,0.5-5,5.2-14.8,5.2c-6,0-12.9-1.8-20.4-5.3c-0.4-0.2-1.1-0.3-1.9-0.3c-3.9,0-8.3,2.7-8.7,4.7c-0.3,1.4,2,5.2,12.5,9.3
					c1.2,0.5,3,1,4.6,1.6c8.5,2.7,21.2,6.8,25.7,17.2c2.5,6,1.9,12.9-1.9,20.6c-0.9,2.2-24.3,55.5-76.7,65.3
					c2.9,3.8,14.8,9.1,40.2,13c6.5,1,8.1,8,9.7,15.4c0.6,2.6,1.1,5.2,1.9,7.7c0,0,0.1,0,0.2,0c1.5,0,4-0.5,6.4-1
					c5.1-1,12-2.3,20.9-2.3c5,0,10.1,0.4,15.2,1.3c11.1,1.9,20.1,8.2,29.5,14.8c12.3,8.7,25,17.7,44.2,17.7c0.5,0,0.9,0,1.3-0.1
					L180.9,330.8z"/>
			</g>
		</g>
	</g>
</g>
</svg>
