<?xml version="1.0" encoding="utf-8"?>
<!-- Generator: Adobe Illustrator 19.2.1, SVG Export Plug-In . SVG Version: 6.00 Build 0)  -->
<svg version="1.1" id="Layer_1" xmlns="http://www.w3.org/2000/svg" xmlns:xlink="http://www.w3.org/1999/xlink" x="0px" y="0px"
	 width="2541.6px" height="335.4px" viewBox="0 0 2541.6 335.4" style="enable-background:new 0 0 2541.6 335.4;"
	 xml:space="preserve">
<style type="text/css">
	.st0{enable-background:new    ;}
</style>
<title>Transformative Exper</title>
<desc>Created with Sketch.</desc>
<g id="Symbols">
	<g id="hero-overlay" transform="translate(-66.000000, -73.000000)">
		<g id="Transformative-Exper">
			<g class="st0">
				<path d="M236.9,121.7c-2,0-1.2-1.5-2.6-1.5c-1.5,0-6.4,3.2-9,3.2c-17.1,2-30.2,3.5-45,7.8c-0.9,6.1-1.5,14.5-2.9,21.8
					c-1.2,2.6-2,7.5-2.9,10.7c-1.5,6.7-3.2,12.5-4.1,18.6c-2.3,13.1-8.4,35.4-8.4,48.7l-11.9,79.8c-2.6,0.9-4.4,2.9-5.5,4.1
					l-1.5-1.5c-2,2-2.3,4.4-4.6,4.4c-1.5,0-8.1-5.5-12.5-9c1.5-2.3,4.6-4.4,4.6-6.4c0.9-11.3,1.2-21.8,2-33.1l0.6-18.6
					c2.3-22.3,5.5-45.6,8.1-68.5l10.4-45.6c-3.2,0-6.4,0-10.2,0.3c-6.1,0.9-24.1,4.6-35.7,5.5c-0.9,0-1.7-0.3-4.1-0.3l-1.2,1.5
					c-3.5-1.2-9.3,0.6-11.6,0.6c-2.6,0-10.7-5.8-13.9-7.5c-3.2-2.6-4.9-7-7-10.4c-2-3.8-1.2-9.3-2.3-13.1c0-0.9,0.3-2.9,2.3-2.9
					c2,0,7.8,1.2,9,1.2c4.4,0,8.1-0.6,9.6-2.6l0.3,0.3c0,0.3,0.3,0.6,0.6,0.6c2.3,0.9,4.9,0.3,7.3,1.2l65.6-8.4
					c4.9-0.9,11.3-0.6,16-0.6v-0.9c0-0.3,0.6-0.6,1.5-0.6c28.7,0,41.8-0.9,78,7c-0.9,0.9-0.6,1.5,0.3,2c0.3,0.6-0.6,1.5-2.3,2.9
					c0.9,0.9,1.7,2.3,2.9,2.6C251.1,117.7,238.6,121.7,236.9,121.7z"/>
				<path d="M274.9,231.4c-3.2,0-6.7-1.2-12.2,0c-0.3-2-0.6-4.6-1.5-8.4c-11.6,4.4-21.2,18-28.4,29.3c0-0.9-0.3-1.5-1.2-1.5
					c-0.9,1.7-1.2,2.9-0.6,3.5c-0.3,0-0.6,0-0.9,0.3c-0.6,0.9-0.9,1.2-0.9,1.2c-0.3,0.9,0.9,1.2,0.9,2.3c-0.9,0-0.9,0.6-2,0.6h-0.3
					c-0.6,0-0.9,0.3-0.9,0.6c-0.9,1.2,1.2,1.7,1.2,2c-1.7,3.2-4.1,7-7,10.7c0,1.2,0.9,1.7,0.6,2c-1.2,2.6-2.9,4.1-4.9,6.1
					c-1.5,2-1.2,4.9-2.3,7.3c-3.8,7.8-7.5,17.4-4.9,25.5c-1.7,1.2-3.5,1.7-5.5,1.7c-1.2,0-5.5-2-8.1-3.2c-1.2-1.2,0-4.9-3.2-4.1
					c-2-6.1-4.9-10.4-4.9-15.1c0-1.7,4.6-17.7,5.2-25.5c2.6-10.7,4.6-21.5,5.5-32.8c0.9-6.7,2-15.4,2.9-23.8
					c0.9-5.5,1.2-11.9,2.6-17.4h3.5c3.2,0,9,4.4,10.4,8.1c1.5,4.4,2.6,8.4,2.9,12.8c0.3,3.2-0.9,5.8-0.9,10.2
					c2.9-7.3,18.9-19.4,28.1-19.4c8.4,0,21.2,4.9,27.9,13.1c1.2,1.5,1.7,4.1,3.2,6.4C278.1,226.5,273.7,228.8,274.9,231.4z"/>
				<path d="M393,286.8c-1.5,1.5-2,2.6-1.2,4.1c-2.3,2.6-6.7,6.4-11,9.6c0,0.3,1.5,2,2.3,2c-6.1,0.9-16,9.9-18.6,9.9h-12.2
					c-11.9,0-22.6-24.1-22.6-26.1c0-3.5,0-9.3-0.9-14.8c-3.2,5.5-6.4,9.6-9.9,15.4c-3.2,4.6-18,26.4-26.7,26.4
					c-1.5,0-4.6,1.2-6.1,1.2c-9.6,0-12.8-6.1-18.3-10.7c-0.3-2.3-2.3-7.3-2.3-8.7c0-17.7,23.5-57.4,33.4-70.5c2-2.6,7.8-8.4,11.6-11
					c2.6-1.2,5.8-4.9,8.4-7.3c0.9-0.9-0.3-1.7,0.6-2.6c2.6-1.2,4.6-0.6,6.1-1.7c1.5-0.9,2.6-2.3,3.5-4.1h2.3c2,1.7,3.5,2.6,4.9,2.6
					c1.5,0,3.2,0.6,4.6,0.6c3.5-3.8,1.2-5.8,4.9-5.8c2,0,0.6,2.3,2.6,2.3c2.3,0,0.3-0.9,1.7-0.9c3.5,0,10.4,3.2,12.8,5.8
					c0.9,1.5,2.3,5.5,1.2,6.7c0,1.2,0.9-1.2,0.9,1.2c0,2-6.1,21.2-8.4,32.2c-3.2,15.4-6.4,44.4-6.4,46.1c0,1.5,0.9,6.4,0.9,9
					c3.2,1.2,6.4-0.3,8.7-0.3c4.4,0,36.6-15.1,38.3-16C397.3,283.6,393.8,284.8,393,286.8z M326.5,232.6c-1.2-1.2,0-2.3,0-3.2
					C317,241,308,256.7,301,270.3l1.7,2c9.3-11.3,17.1-27.6,25.5-41.5L326.5,232.6z"/>
				<path d="M503.5,283.6c-0.9,0.9,0.6,2.3,0.3,2.6c-0.9,0.9-1.7,1.5-2.6,2.6c0.6,0.3,1.5,0.6,2.3,0.6l-0.3,0.3
					c-0.6,0.6-0.9,0.9-1.2,0.6c-1.2,1.2-0.3,3.5-2.3,4.9c0.9,1.5,0,3.2,1.2,4.6c-1.5,1.5-3.8,2.6-4.1,4.9c-1.4,2.6-6.7,4.6-9,7.3
					c-2,0.9-4.4,4.9-5.2,6.4c-3.8,0.3-9.6-0.6-11.6-0.6c-3.2,0-16.8-7-17.7-9.9c-4.4-8.4-8.4-18-9.6-27c-1.5-5.8-1.5-17.1-1.7-25.5
					c-0.9-0.3,0.3-1.2-0.6-1.5c-7.8,9-17.1,22.3-25.2,31.9c-0.3,0.3-0.3,0.9,0,2c-2.6,4.9-5.5,10.2-9.3,14.8
					c-2.6,3.5-9,9.9-10.4,10.2c-2,0-3.5-2.9-4.9-2.6c-2.3,0,0.3,0.9-1.7,0.9c-7.3,0.9-8.4-13.6-9.6-14.8c-1.2-0.9-2.6-2.6-2.9-5.2
					c0-1.5,2.3-11,2.6-16.8c1.5-2.6,2.9-6.4,3.8-9c1.2-4.4,0.9-9.6,2-13.9c5.5-16,13.6-39.2,21.5-59.8c0-1.2-0.3-3.8-0.3-6.1
					c2.6-2.3,5.8-5.5,8.1-6.4c1.4,2,3.2,3.8,5.2,6.4c1.2-1.2,1.2-3.5,0.9-4.9c2,1.5,4.1,3.2,7.3,4.1c0,1.5-1.2,3.5,0,4.9h0.3
					c0.9,0,0.6-0.3,1.7-0.6l0.3,3.2c0.3,2-1.5,4.1-2.3,6.7c-0.9,4.9-1.5,12.5-2.6,18.3c0,2-0.9,2.9-1.7,4.1c-1.5,4.4-2,8.7-1.7,12.8
					c4.4-4.4,11.3-16.2,17.1-18.6c2.6-1.2,5.8-0.3,9.3-2.3c2,1.5,2.6,2.9,3.5,4.4c1.4-0.9,2-1.7,4.1-2c1.5,0,5.2,3.8,7.5,5.8v0.3
					c0,0.3-0.3,0.6-0.6,0.9c0,0.9,1.5,1.2,1.7,1.2c7,13.6,5.2,8.4,6.1,16.2c0.9,2-1.5,25.2-0.6,37.1c-0.9,4.6,0.3,10.2,0.6,16
					c0.9,0.6,2.3,0.9,3.8,0.6c4.9,0,15.1-8.1,20-10.2h-0.3c-0.6,0-0.9,0.3-0.6,0.6l-0.3,0.6h1.2c2-0.3,6.4-4.6,10.7-7
					C504.4,279.6,503.8,281.6,503.5,283.6z M457.4,218.9l-0.3-1.5l-2,0.3l0.3,1.5L457.4,218.9z"/>
				<path d="M584.2,200.9c0.9,5.8,0.3,16-2.3,21.5c-1.2,1.2-4.1,2-6.1,2c-1.5,0-6.1-2-8.7-4.6c-1.5,0.6-2,1.5-2.3,2.6
					c-2.6,21.8-0.3,44.4-4.1,66.4c-1.5,10.7-4.6,38-21.8,38c-2.3,0-1.7-0.9-2.9-1.2c-0.9-0.9,0,0.3-2.3,0.3
					c-5.2,0-12.2-8.1-13.3-8.1c-9.3-5.5-22.3-27.9-22.3-39.7c0-3.5,2.6-12.8,6.1-17.7c0.9,0,1.7-0.3,2.3-0.6
					c0.3,1.5-0.9,3.8-1.2,5.8c0.9,1.2,1.5,0.9,2.6,2c1.2,0,0.3,2,0.3,4.6c1.5,1.5,2.6,0.9,0,3.5c1.2,2,1.5,3.8,1.2,5.2
					c1.2,2.3,4.4,4.6,2.9,7.8l1.2,1.2c0.9-1.2,2-1.7,3.2-1.7c3.2,5.5,3.2,13.1,9,16.8c3.5-3.2,5.8-8.1,7.3-12.5
					c7-16.5,5.5-46.4,5.5-59.5c0-4.4,2-9.9,2-14.5c0-1.5-0.9-3.2-0.9-4.6c0-3.8,0.9-7.3,1.7-13.3c0-3.5,0.9-29.3,8.1-29.3
					c2.3,0,2,0.3,3.2,1.2c4.6-0.6,9.6,0.9,15.1,4.4c5.5,3.2,9.9,6.4,12.8,9.3c0.3,1.2,0.3,2,0.3,3.2c2.3,1.5,4.6,6.1,4.6,8.1
					C585.3,199.5,585,200.1,584.2,200.9z M516,287.7h-1.2v-4.4h1.2V287.7z"/>
				<path d="M750.4,228.5l-1.5,1.7c1.2,0.9,2.3,1.5,2.3,2.9c-2.6,0.9-6.1,2.6-8.7,2.9c-0.6,4.9-9.3,2.9-13.6,3.8
					c-4.6,1.2-12.8,5.2-14.8,5.2c-2.3,0-0.3-0.9-2.3-0.9c-2,0-14.2,5.2-21.8,6.7c-16,4.6-34.5,7.8-51.1,12.5
					c-1.2,1.2-2.9,3.5-2.9,4.4c-5.5,20.6-11.6,55.1-15.4,78c-0.3,0-0.6-0.9-1.5-2.9c-0.9,1.2-1.4,2.9-2,5.2
					c-0.3,4.4-1.5,12.5-1.5,14.5v19.1c6.1,3.2,2.9,9.6,3.5,14.5l1.5-1.5c-0.9,3.8,1.5,2.6,1.5,3.8c0,2.3-1.7,5.8-2.9,8.4h-0.9
					c-0.3,0-0.6-0.3-1.2-0.9c-0.9,0-1.2,1.2-1.2,2.3c-4.4-2.6-9.6-7-12.8-11.3c-1.5-7.5-2.9-22.6-2.9-24.7l5.2-56.9
					c0-2.3,7.8-31.3,9.3-47c-1.5-0.6-2.9-0.3-4.4,1.2c-0.9-1.5-3.2-2.3-5.5-2.3c-2,0-0.3,0.6-0.3,1.5c-0.9-0.9-2-1.5-3.2-1.5
					c-2,0-3.5-0.9-4.9-2l-5.2-4.6c-0.9-0.9-6.7-15.1-6.7-18.9c0-1.2,3.8-0.3,1.7-4.6c7.5,5.2,7,1.5,13.3,1.5c2,0,0.3-1.5,1.7-1.5
					c2.6,0,6.1,0.6,10.7-0.9c2-0.9,5.5-1.5,9.9-1.5c3.2-14.8,6.1-31.3,9.6-45c2.3-8.1,4.1-17.7,6.7-25.5
					c7.8-24.4,16.8-56.6,30.8-78.9C670.6,82.3,679.3,73,682,73c2,0,2.9,0.9,4.4,2c2,1.2,5.2,0.9,7.8,1.2c2.6,1.2,6.1,2.9,7.5,4.1
					c3.8,3.2,9,7.5,11.6,10.7c2,4.4,5.8,11.3,5.8,13.3c0,2.3-3.5,11.9-4.9,16.8c-2.6,0-5.2,3.2-7.5,6.4c-1.2,0-2.3-1.5-2.6-1.5
					l-2.3,1.5c-1.2-1.2-2.3-0.9-3.2-0.9l1.5-1.5c-2-1.2-4.4-2-5.5-3.2c-1.5-2.6-3.2-7.3-3.2-9.3c0-2.3,1.2-2.6,2-3.5
					c1.2,0.9,0.6,1.2,1.7,2.3c1.2-2,1.7-4.6,1.7-7.3c0-1.5,0.3-3.5-1.7-3.5c-4.4,0-14.5,25.8-15.4,30.2c-0.9,2.6-2.9,7.5-6.1,14.2
					c-2.9,6.7-5.2,13.1-7.3,19.1c-2.6,9.3-7,23.8-9.3,35.7c-1.5,5.8-3.5,12.8-6.1,20c-0.9,0.9-1.5,0.3-2.6,1.5
					c0,0.9,0.3,1.7,1.2,2.6c0.3,1.2-0.9,2.9-2,4.4v2c5.8,2,15.1-0.6,21.2-1.5c7.3-1.2,16-0.6,24.1-1.7c1.7,0,3.2-0.6,4.1-1.5
					c8.4,0.3,21.5-0.6,31.9-0.6c0.9-0.3,2.3,0,2.6-1.2c4.4,1.2,9.6,0,14.2-0.3l0.3-0.3c0.6-0.6,1.2-0.9,1.7-0.9c2,0-1.2,1.5,1.2,1.5
					c1.5,0,6.1-1.5,8.1-1.5s2,1.5,3.2,1.5C757.4,224.2,754.8,225.9,750.4,228.5z M613.8,360.5v-4.6h-1.5v4.6H613.8z M619,362.3h-1.2
					v-4.9h1.2V362.3z M753.9,225v-1.2h2.9v1.2H753.9z M759.1,222.4v1.2V222.4z"/>
				<path d="M752.8,306c-1.2,0.9-1.5,3.2-2.3,4.4c-6.7,4.1-12.5,6.1-18,6.1c-9,0-13.6-5.5-19.4-10.2c-2-1.5-3.2-8.7-6.7-8.7
					c-0.9-3.5-2.3-10.2-2.3-11.6c0-12.8,11.3-36.8,13.9-40.9c0.9-0.9,0.3-3.5,1.5-4.6c2-3.5,5.2-7,6.7-10.4c1.2-0.9,1.2-0.6,2.3-0.9
					c1.2-0.3,0.6-2,1.7-3.5c1.5-2.6,5.2-4.1,7.3-6.7c1.2-1.5,0.6-3.8,1.7-5.8c-0.9,0-2.6-1.5-3.8,0.6c0-0.9-0.3-1.5-0.6-1.7
					c-0.6,0.3-0.9,1.2-0.9,2.3c0-1.5-0.6-2-2-2l0.6-0.3c0.3,0,0.6-0.3,1.2-0.9c-1.5-11,18.3-14.8,21.5-18c1.5,3.2,3.8,1.2,7,2.6
					c1.5,1.2,6.4,6.1,9,8.7c0,0.3,0.3,0.6,0.6,1.2c0.3,0.9,0.9,1.7,1.2,2c0.9,0.3,2,0,2.9,0.9c9,12.5,15.1,23.8,15.1,36.3
					C790.8,265.9,773.9,287.4,752.8,306z M763.2,224.7c-3.2,6.1-9.9,13.6-12.5,18c-6.4,11.6-18.3,35.1-18.3,37.4v2.6
					c3.8-2.6,10.2-8.7,11.6-8.7c2,0-1.5,1.7,0.9,1.7c2.6,0,14.5-18.9,15.1-20.3c1.7-2.6,6.7-19.4,6.7-20
					C766.7,233.2,764.6,227.9,763.2,224.7z M760,222.4v-4.4h-1.5v4.4H760z"/>
				<path d="M878.7,231.4c-3.2,0-6.7-1.2-12.2,0c-0.3-2-0.6-4.6-1.5-8.4c-11.6,4.4-21.2,18-28.4,29.3c0-0.9-0.3-1.5-1.2-1.5
					c-0.9,1.7-1.2,2.9-0.6,3.5c-0.3,0-0.6,0-0.9,0.3c-0.6,0.9-0.9,1.2-0.9,1.2c-0.3,0.9,0.9,1.2,0.9,2.3c-0.9,0-0.9,0.6-2,0.6h-0.3
					c-0.6,0-0.9,0.3-0.9,0.6c-0.9,1.2,1.2,1.7,1.2,2c-1.7,3.2-4.1,7-7,10.7c0,1.2,0.9,1.7,0.6,2c-1.2,2.6-2.9,4.1-4.9,6.1
					c-1.5,2-1.2,4.9-2.3,7.3c-3.8,7.8-7.5,17.4-4.9,25.5c-1.7,1.2-3.5,1.7-5.5,1.7c-1.2,0-5.5-2-8.1-3.2c-1.2-1.2,0-4.9-3.2-4.1
					c-2-6.1-4.9-10.4-4.9-15.1c0-1.7,4.6-17.7,5.2-25.5c2.6-10.7,4.6-21.5,5.5-32.8c0.9-6.7,2-15.4,2.9-23.8
					c0.9-5.5,1.2-11.9,2.6-17.4h3.5c3.2,0,9,4.4,10.4,8.1c1.5,4.4,2.6,8.4,2.9,12.8c0.3,3.2-0.9,5.8-0.9,10.2
					c2.9-7.3,18.9-19.4,28.1-19.4c8.4,0,21.2,4.9,27.9,13.1c1.2,1.5,1.7,4.1,3.2,6.4C881.9,226.5,877.5,228.8,878.7,231.4z"/>
				<path d="M1051.9,295c-0.6,1.5,0,2.3,1.5,2.9c-0.9,1.5-2.3,2.3-3.5,3.5c0.3,1.2,0,2-0.6,2.6c-4.4,2-9.3,4.9-11.6,5.2
					c-2,0-7.8-2.6-9.9-2.6c-1.5,0.3,1.2,1.2-0.9,1.5c-1.5,0-9.6-5.8-13.3-9.6c-6.1-6.7-7-18-9.3-28.7c-0.3-2.6,0.3-5.8-1.7-9.6
					c-2.3,2.6-3.2,5.2-5.5,8.4c-3.2,4.6-13.3,15.4-19.1,23.8c-3.8,4.6-7.5,10.4-13.1,13.6c-0.9,1.2,0.3,1.7-0.9,2
					c-3.2,2-8.1,4.6-10.2,4.6c-6.1,0.9-21.2-9-22-14.2c-1.5-13.3,6.1-35.4,6.7-44.1c0.9-1.5-0.6-1.5-0.6-2.3l0.9-1.2
					c-0.3-1.2-1.2-1.7-1.2-3.2c-9.3,9.6-19.7,24.4-29,36.3c-0.3,0.9-0.6,2.6-1.5,4.1l-6.4,7.5v2.3c-3.8,3.5-7,9.9-10.4,13.3
					c-1.5,1.2-6.1,4.4-8.4,4.4c-1.5,0.3-6.4-3.2-8.7-5.5c-3.2-2-3.5-6.7-3.8-11c-1.2-9.3,3.5-26.1,8.1-40.9
					c4.6-14.8,9.6-27.6,10.4-32.2c0.9-3.2,2.9-9,3.8-13.3c0.3-0.3,1.2-0.6,1.5-1.7c0-8.4,1.5-12.8,6.4-24.1c2-0.3,4.6-1.7,6.7-1.7
					c2-0.3,3.8,0.3,5.2,1.5c0.3,0.9,0.6,1.2,0.9,1.5c4.4,0.9,7.3,8.7,7.3,10.2c0.3,1.2-0.3,4.4-1.2,9.6c-0.9,4.9-1.7,9.3-2.9,12.5
					c-0.9,5.8-7.5,18.9-7,23.8c0.3,0,0.9-1.7,3.2-2c1.5,0,19.4-24.1,27.9-36.3c2-0.9,6.4-0.9,11,0c3.2,0.9,11,3.8,14.8,8.1
					c1.5,2.6,4.1,9,4.4,11.6c0,2-2.9,21.2-3.8,31.6c-3.2,0.9-2.9,5.8-3.2,9.3v0.3c0,0.3,0,0.6,0.3,0.9c2-2,1.7-3.5,5.2-3.5
					l37.7-45.8c0.9,0.3,3.8-0.6,6.4,0.3c1.5,0.3,4.1,2.9,5.2,3.8c0.3,0.3,2.6-0.3,3.8,0.9c1.5,0.9,2.9,2,4.9,4.4
					c2,2.3,1.5,5.2,4.1,7.3c-0.9,0.3,0.3,1.7,0.6,3.2c0,1.7-3.2,18.9-3.2,27c-0.3,2-0.3,5.2-0.3,9.3c0,4.1,0,6.7,0.3,7.8
					c0.9,7.8,1.7,11.3,11.9,10.2c1.5,0,9.6-2.6,13.3-4.6C1054.5,290,1052.2,292.9,1051.9,295z M995.6,268.8h-0.9l-1.7,2.6l1.5,0.9
					L995.6,268.8z"/>
				<path d="M1174.3,286.8c-1.5,1.5-2,2.6-1.2,4.1c-2.3,2.6-6.7,6.4-11,9.6c0,0.3,1.5,2,2.3,2c-6.1,0.9-16,9.9-18.6,9.9h-12.2
					c-11.9,0-22.6-24.1-22.6-26.1c0-3.5,0-9.3-0.9-14.8c-3.2,5.5-6.4,9.6-9.9,15.4c-3.2,4.6-18,26.4-26.7,26.4
					c-1.5,0-4.6,1.2-6.1,1.2c-9.6,0-12.8-6.1-18.3-10.7c-0.3-2.3-2.3-7.3-2.3-8.7c0-17.7,23.5-57.4,33.4-70.5c2-2.6,7.8-8.4,11.6-11
					c2.6-1.2,5.8-4.9,8.4-7.3c0.9-0.9-0.3-1.7,0.6-2.6c2.6-1.2,4.6-0.6,6.1-1.7c1.5-0.9,2.6-2.3,3.5-4.1h2.3c2,1.7,3.5,2.6,4.9,2.6
					s3.2,0.6,4.6,0.6c3.5-3.8,1.2-5.8,4.9-5.8c2,0,0.6,2.3,2.6,2.3c2.3,0,0.3-0.9,1.7-0.9c3.5,0,10.4,3.2,12.8,5.8
					c0.9,1.5,2.3,5.5,1.2,6.7c0,1.2,0.9-1.2,0.9,1.2c0,2-6.1,21.2-8.4,32.2c-3.2,15.4-6.4,44.4-6.4,46.1c0,1.5,0.9,6.4,0.9,9
					c3.2,1.2,6.4-0.3,8.7-0.3c4.4,0,36.6-15.1,38.3-16C1178.7,283.6,1175.2,284.8,1174.3,286.8z M1107.9,232.6c-1.2-1.2,0-2.3,0-3.2
					c-9.6,11.6-18.6,27.3-25.5,40.9l1.7,2c9.3-11.3,17.1-27.6,25.5-41.5L1107.9,232.6z"/>
				<path d="M1273.3,214.6c0,0.9,0.6,1.2,1.5,1.2c-0.9,2.6-3.8,2-0.6,4.6c-3.2,1.5-7.3,3.2-9.9,4.6c0,1.2,1.2,1.5,2.3,2.3
					c-2,4.9-9,6.4-14.8,7.5c-1.2,2-4.6,6.7-6.7,6.7c-1.5,0,0.3-0.6-0.9-1.5c-0.9,0-1.2,0.9-1.2,2.6c-5.8,1.2-13.1,4.1-20,6.4
					c-0.9,0.3,0,0.9,0,1.7c-0.9,0,0-0.6-2.3-0.6c-1.2,0-8.7,2.6-13.3,4.6l-2.3,3.5c-2.6,0.3-6.1,3.2-8.4,4.6
					c-2.3,9.6-5.5,27.9-5.5,29.9c0,2,2.9,13.1,2.9,14.5c0,2-3.5,4.1-3.5,6.7c-0.9,0-3.2,0.6-4.6,0.6c-2,0-2.3-3.5-3.5-4.6
					c-9-8.1-7.5-15.4-8.7-22.6c-1.2-4.4,1.2-15.7,0.9-29.9c0-2-8.1-11.6-8.1-13.3c0-1.5,1.5-7.3,1.5-11.6c0.9-0.9,1.5-1.7,1.5-2
					c1.2-0.3,2-1.2,3.5-1.2c2.3,0,0.3,0.9,2.6,0.9c1.5,0,3.8-2.3,4.1-4.4c3.2-8.7,6.7-36,9.9-48.5c3.2-12.8,7.5-25.8,11-38.9
					c1.5-6.1,3.8-14.2,6.4-21.5c2-5.8,2.3-15.4,8.1-19.1c1.2-1.2,4.1-2,4.9-2c2.3,0,4.4,4.6,6.4,4.6s2-0.3,3.2-0.3
					c-0.6,0.3-0.9,0.3-0.9,0.3s0,0.6,0,1.5c0,2.6,5.5,11.3,5.5,13.9c0,1.5-1.5,8.4-3.5,12.2c0.6,2,0.9,3.5,0.9,4.9
					c-5.8,19.7-11.9,38.9-17.7,57.2c-1.2,7.8-3.5,17.1-5.8,25.5v1.5c2,1.2,3.2,0.6,5.8,0.6c1.5-0.6,3.5-0.9,6.1-0.9
					c2,0,0.3,1.5,2.6,1.5c2,0,4.6-1.5,7.3-1.7c13.1-2.3,27.6-3.5,45.8-4.9C1275.6,212.8,1274.4,213.4,1273.3,214.6z"/>
				<path d="M1305.2,282.5c0.9,0.3,2,0,2.9,1.2c-0.3,1.5-2.3,3.2-3.5,4.1c-0.9,1.2-1.2,2.9-0.9,4.9c-4.6,2.6-11.6,9-15.1,13.3
					c0,0.9,0.6,2.9-1.7,4.1c-3.5,2-9.6,3.8-11.6,3.8c-19.4,1.5-29.6-22.9-30.5-35.7c-0.3-3.5,0.6-13.6,2-19.1l3.2-12.2
					c2.6-12.5,5.8-22.6,9.6-30.5c0-0.9,0-2,0.3-4.1c1.2-0.9,1.5-3.2,3.5-5.2c2.3,0,4.4-1.2,6.7-1.5c3.8-0.3,7.5,1.5,11.6,4.6
					c4.4,3.2,6.7,6.7,7,10.4c0,1.5-1.2,3.2-1.5,5.5c-0.9,3.5-2,8.7-2.9,15.7c-0.9,6.7-2.3,11.9-4.4,15.1c-1.2,2.6-1.7,7.8-2.6,10.4
					c-3.5,11.9-6.1,15.7-4.1,22.6c13.6-6.1,27.3-16.8,36.8-26.4C1306.3,266.8,1311.6,277,1305.2,282.5z M1292.1,178.3
					c-4.4,0.3-8.4-2.3-11.6-3.8c-0.3-0.9,0-1.2-0.9-2c-4.4-2.3-7-9.6-8.4-14.5c-1.2-2.3-0.3-7.3-1.7-9.9c13.1,0.9,14.5-2.3,21.8-3.2
					c2,2.6,4.6,4.1,5.5,6.1c1.5,1.5-0.6,5.5,2.9,8.7C1294.7,167,1306,177.4,1292.1,178.3z"/>
				<path d="M1411.6,192.2c0,0.3,0.3,0.3,0.6,0.3h0.9c0.3,1.2-1.2,2-1.5,3.2c0,0.3,1.2,0.6,3.5,1.5c-3.2,3.5-7.8,8.1-7,11.9
					c-2.3,3.2-5.8,6.7-8.1,9.3c0.9,0.9,1.7,0.9,2,0.3c-4.4,7.3-11.3,18.6-15.1,23.2c-7,11.3-19.1,32.5-23.8,40
					c-3.2,2.6-9.3,16.8-11,23.2c-2.3,3.5-4.1,8.7-5.5,13.3c-0.3,0.3-2,1.7-3.5,2l-3.8,0.6c-10.2,1.5-21.2-19.2-22-23.2
					c0-1.2-2-33.9-3.5-50.2c-0.3-9.6-0.9-21.8-3.2-33.7c-0.3-1.2-2.3-3.5-2.3-5.8l-0.6-5.2l3.8-0.3c2-0.9,1.2,0.6,3.2,0.3
					c1.5,0-0.3-0.3,1.2-0.3c1.5-0.6,11.3,5.2,14.2,9c2.6,3.8,3.5,9.6,5.5,15.1c0,9,2.3,18.6,6.1,34.8c10.2-16,21.5-31.6,32.2-43.5
					c3.8-2.9,15.4-16.8,21.8-19.7c1.2-1.2,1.5-2.3,2.9-3.8c3.5-2,9.9-5.8,11-6.1c3.5-2,2.3-0.9,5.5,0.3L1411.6,192.2z M1405,216.3
					l-1.7,2.3l-0.9-0.9l1.7-1.7L1405,216.3z"/>
				<path d="M1471.4,291.8c0,1.5,1.2,2.3,3.2,2.9c-1.2,1.5-2,4.4-3.2,7c-4.9-1.2-7.5,5.2-7.5,9.9c-3.5,1.2-7,1.7-11.3,1.7
					c-1.5,0.9,0,1.2,1.2,1.2c-3.2,0.3-7.5,2.9-10.7,3.2v0.9c0,0.3-0.3,0.6-1.2,0.6c-3.5,0-11.9-5.8-12.8,0l-3.2-4.4
					c-8.4-2-10.7-4.1-18-11.9c-5.2-4.6-2.6,2.6-8.1-20.6c-1.5-11.6,1.2-17.7,2.3-22.3c1.2-5.5,5.5-16.8,9.9-25.8
					c2.3-4.6,5.2-11.3,9.6-18.3c2-2.6,5.5-7,7.5-10.7c4.4-3.8,4.9-6.7,10.7-10.2c2.6-1.2,8.7-2.9,7.8-6.1c-0.3,0.3-0.6,0.3-0.6,0.6
					c0,0.6,0.3,0.9,1.2,0.9c2.3,0-0.6-0.9,1.7-0.9c1.5,0,5.5,2.6,8.1,3.5c0.9,2.6,0,5.5,2,5.5c2.3,0,0-0.9,2-0.9
					c1.5,0,2.3,1.5,3.5,2.6c0,12.2,5.8,5.8,5.8,13.3c0,1.7-3.2,16.2-5.5,23.5c-2.3,4.6-8.4,13.3-13.3,19.4
					c-8.4,10.2-25,26.7-25,29.3c0,2.3,5.2,5.8,8.7,7.3c2,1.2,6.4,0.9,8.4,0.9c3.2,0,5.5-2.9,10.2-0.9c7.8-2.3,15.1-4.9,20.9-6.4
					c0.9,0.9,2,1.2,2.9,1.2C1475.5,288.9,1474,290.9,1471.4,291.8z"/>
				<path d="M1791.1,133.9h-38.3c-1.5,0-3.5,1.7-4.6,1.7c-3.5,1.2-9.6,0.6-13.1,1.5c-4.9,1.5-11.3,2-19.1,3.2l-1.5,1.5
					c-6.7-1.2-11.6,0.9-18.6,2v0.6c0,0.3-0.3,0.3-0.6,0.3c-2,0-6.1,1.2-9.3,1.2c-2,0.9-3.2,1.7-4.1,3.2c-3.5,7.8-5.5,16.2-7.8,24.4
					c-3.5,9.6-5.8,19.2-10.2,28.7l1.2,1.2c1.7-0.9,3.2-1.5,4.1-1.5c2,0,1.2,0.6,2,1.5l2-2c0.6,0.3,0.9,0.6,0.9,0.6s0.3,0,0.9,0
					c2.3,0,49-11,51.4-11c2,0,0.6,0.6,1.7,0.6l19.4-4.4l-1.4,1.2c1.4,1.2,2,2.9,2,4.4c0,2-1.5,2-2.3,4.1c-0.3,1.2,1.2,1.5,1.2,2.6
					c-3.8,0.9-7.5,3.5-11,4.4c-0.3,1.2-3.2,2.9-0.6,2.9c-2,0-4.4,0.6-7,2c0.9,0.9,1.7,0.3,2.9,0.3l-42.9,17.1
					c-3.8,0-11,3.2-15.7,5.2c-4.6,1.5-13.1,2-14.5,2c-2,0,0.6-0.6-1.5-0.6c-2.9,0-5.5,17.1-6.4,22.6c-1.7,8.7-4.1,25.8-4.1,27.9
					s0.6,1.7,0.6,2.6c0.3,2.3-1.2,3.8,3.2,9.3c1.5,0.3,1.7,0.9,3.8,0.9c2,0,0.9-1.5,2.9-1.5c2,0,2.9,2.3,4.4,2.3
					c2,0,3.8-0.9,5.8-0.9c1.2,0,5.5-1.7,7.8-2.6c4.6-1.5,9.9-3.8,16-7c4.4-2.3,8.4-7.8,12.8-7.8c1.5,0,0.9,1.5,2,1.5
					c0.9,2.3-1.7,4.1,1.7,6.7c-1.2,1.2-2,4.6-4.4,7c0,0.9,1.2,0.9,2.3,0.9c-2,1.2-7.8,7.5-8.1,8.7c-0.9,1.2-1.2,2.9-3.5,4.4
					c-5.2,4.4-19.7,9.6-20.6,9.6h-11c-2,0-1.5-0.6-2.6-0.9c-4.6,0-10.4-2.9-15.1-6.7c-10.7-7.3-16.5-15.1-19.1-22.9
					c-2-4.9-3.5-17.1-3.5-18.6v-19.4c0.9-0.9,1.2-1.5,1.2-1.7c3.8-22.6,10.4-31.9,6.4-40c0.9,0.3,2.9,0,3.8-2
					c4.9-13.9,10.2-29.3,15.1-44.4c0.9-2.3,3.8-7,3.8-9c0-2-4.1-4.6-6.4-5.5c0-1.5-3.5-4.1-4.4-7.3c-1.2-3.5-2.6-7.5-3.8-11.9v-2
					l0.3-0.3c0.3-0.6,0.9-0.9,1.5-0.9c1.5,0-0.3,0.9,1.2,0.9c2,0,1.5-1.2,2.3-1.5c7.3-2,15.4-4.4,24.4-6.4
					c7.8-11,2.6-11.3,12.2-11.3c1.5,0,2.3,0.9,3.5,1.7c0.9,2.3,3.8,4.1,6.4,6.1c1.2,0.3,0.3,0.3,1.7,0.3c1.7,0,12.5-2.3,18.9-2.3
					c16.2-0.9,45.8,0.3,48.2,0.3c1.2,0,15.4,2.9,22.6,5.2c3.5,1.2,9.3,2.6,13.9,6.1c3.2,2.3,1.2,4.9,3.5,7.5
					C1795.5,131.6,1792.6,133.9,1791.1,133.9z"/>
				<path d="M1815.8,229.1c-0.9,2.3-7,7.5-11.9,13.3c-0.9,1.2-1.2,2.6-0.9,4.6h-0.9c-0.3,0-0.6-0.3-1.2-0.9
					c-2.6,7.8-10.2,11.3-10.2,18c0,5.2,1.2,11.3,3.2,18.6l5.5,17.1c0.9,4.4,4.6,11,10.2,14.8c8.1,6.7,20,6.7,29,11
					c-1.2-0.3-2.9,0-4.4,0.3c-1.2,0.6-1.7,1.2-1.7,1.7c-2.3,0.3-6.7,2.6-9,2.6c-1.5,0-10.2-1.5-12.5-1.5c-1.5,0-6.1-2.9-8.4-5.2
					c-15.4-9.3-22.9-27-29.6-41.8c-4.9,4.6-13.6,16-18,23.2c-1.2,0-0.9-1.5-2-2.6l-23.8,23.2c-1.2,0-0.6-1.5-2.6-1.5
					c-2.3,0-0.3,0.6-2.3,0.6c-1.7,0-3.8-1.5-5.8-4.6c-2.3-3.2-3.5-5.5-3.5-7c0-8.1,50.2-64.1,50.2-67.9c0-1.5-1.5-2.3-2.3-3.8
					c-0.9-7.8-0.3-16.8-1.5-23.8c-1.5-9.9,1.7-11.3-2.3-18.9c0.3-1.2,2.6-3.5,4.6-3.5s0.9,0.3,2,1.4c5.8,1.2,11.6,5.5,16,11
					c1.2,0.9,2,3.2,2.3,4.4c1.2,2.3,1.7,6.4,3.2,10.2c7.3-7.3,21.8-22.6,29.3-32.2c0.9-0.9,1.2-2,1.2-3.8c3.2-1.2,3.8-2.6,6.4-2.6
					l1.5-1.5c2.6,2.6,8.7,2.9,10.2,8.7l0.6-0.6c0.3-0.3,0.3-0.3,0.3-0.6c0,0.9,2,4.1,2,5.5C1838.2,205,1817,226.8,1815.8,229.1z"/>
				<path d="M1894.4,310c-1.5,0.9-6.1,0.6-7.5,0.6V310c-1.2-1.2-1.5-0.6-3.5-0.6h-2.3c-4.1-5.5-11.9-18.3-11.9-19.4
					c0-1.5,2.3-4.4,4.9-5.8c0-1.5-0.6-2-2-2c0.3,0,1.7,1.2,3.2,1.2c2,0,6.1-5.2,9.6-7.8c15.1-12.5,22.6-29.9,25.2-43.5
					c-5.5-0.9-12.2,2.3-20,9c-4.4,2.9-10.4,15.4-12.2,15.4c-2,0,0.3-0.6-0.9-1.7c-1.5,3.2-5.5,7.3-7,11.6c-4.1,7.8-9.9,32.2-13.1,47
					c-0.9,4.6-3.8,11.9-5.2,16.8c-3.8,11.3-4.9,23.5-7.5,35.4c-0.3,2.6-2.3,7.8-4.6,10.4h-2c-2,0,0.6-1.7-1.5-1.7
					c-2.3,0-1.5,1.7-3.8,1.7c-1.5,0-3.2-2.6-4.6-2.9c0-0.3-0.3-1.2,0-2.3c-2.6-2.6-4.6-4.9-7.8-7.5c1.2-1.5,2-3.8,2.9-5.8
					c0.3-2.6-0.9-5.8-0.6-10.4c0-1.2,0.9-2,2-3.2c1.2-1.5,0-5.5,1.2-8.7c1.2-2.6,3.8-12.2,7.5-13.3c4.9-21.2,10.2-47,15.1-71.1
					c0.9-2.3-0.6-4.6-0.3-7.3c1.5-6.1,3.5-12.2,5.8-18.3c0.9-1.5,0.9-5.2,0-7.5c5.8-17.1,12.2-37.4,16.5-54.5
					c0.6-1.2,0.3-2.6-0.9-4.6c1.2,0,0.6,0.9,2.9,0.9c1.5,0,1.5-2.3,3.5-2.3c1.5,0,5.8,4.6,10.2,7.8c0.9,5.2,3.5,16.2,3.5,18.9
					c0,1.2-4.9,24.1-8.7,36l1.5,1.2h1.2c0.3,0,1.2-0.3,1.5-0.3c-1.5,2-4.9,5.2-6.4,8.4v0.6c0,0.3,0.3,0.3,0.6,0.6
					c3.5-5.8,20.3-22.3,28.4-22.3c2.3,0,10.2,2,15.1,3.2c2,1.2,4.9,4.1,6.4,5.2c9,4.4,10.7,14.5,10.7,21.2
					C1939.4,260.7,1917.1,297.6,1894.4,310z"/>
				<path d="M2014.8,291.8c0,1.5,1.2,2.3,3.2,2.9c-1.2,1.5-2,4.4-3.2,7c-4.9-1.2-7.5,5.2-7.5,9.9c-3.5,1.2-7,1.7-11.3,1.7
					c-1.5,0.9,0,1.2,1.2,1.2c-3.2,0.3-7.5,2.9-10.7,3.2v0.9c0,0.3-0.3,0.6-1.2,0.6c-3.5,0-11.9-5.8-12.8,0l-3.2-4.4
					c-8.4-2-10.7-4.1-18-11.9c-5.2-4.6-2.6,2.6-8.1-20.6c-1.5-11.6,1.2-17.7,2.3-22.3c1.2-5.5,5.5-16.8,9.9-25.8
					c2.3-4.6,5.2-11.3,9.6-18.3c2-2.6,5.5-7,7.5-10.7c4.4-3.8,4.9-6.7,10.7-10.2c2.6-1.2,8.7-2.9,7.8-6.1c-0.3,0.3-0.6,0.3-0.6,0.6
					c0,0.6,0.3,0.9,1.2,0.9c2.3,0-0.6-0.9,1.7-0.9c1.5,0,5.5,2.6,8.1,3.5c0.9,2.6,0,5.5,2,5.5c2.3,0,0-0.9,2-0.9
					c1.5,0,2.3,1.5,3.5,2.6c0,12.2,5.8,5.8,5.8,13.3c0,1.7-3.2,16.2-5.5,23.5c-2.3,4.6-8.4,13.3-13.3,19.4
					c-8.4,10.2-25,26.7-25,29.3c0,2.3,5.2,5.8,8.7,7.3c2,1.2,6.4,0.9,8.4,0.9c3.2,0,5.5-2.9,10.2-0.9c7.8-2.3,15.1-4.9,20.9-6.4
					c0.9,0.9,2,1.2,2.9,1.2C2018.9,288.9,2017.5,290.9,2014.8,291.8z"/>
				<path d="M2106.8,231.4c-3.2,0-6.7-1.2-12.2,0c-0.3-2-0.6-4.6-1.5-8.4c-11.6,4.4-21.2,18-28.4,29.3c0-0.9-0.3-1.5-1.2-1.5
					c-0.9,1.7-1.2,2.9-0.6,3.5c-0.3,0-0.6,0-0.9,0.3c-0.6,0.9-0.9,1.2-0.9,1.2c-0.3,0.9,0.9,1.2,0.9,2.3c-0.9,0-0.9,0.6-2,0.6h-0.3
					c-0.6,0-0.9,0.3-0.9,0.6c-0.9,1.2,1.2,1.7,1.2,2c-1.7,3.2-4.1,7-7,10.7c0,1.2,0.9,1.7,0.6,2c-1.2,2.6-2.9,4.1-4.9,6.1
					c-1.5,2-1.2,4.9-2.3,7.3c-3.8,7.8-7.5,17.4-4.9,25.5c-1.7,1.2-3.5,1.7-5.5,1.7c-1.2,0-5.5-2-8.1-3.2c-1.2-1.2,0-4.9-3.2-4.1
					c-2-6.1-4.9-10.4-4.9-15.1c0-1.7,4.6-17.7,5.2-25.5c2.6-10.7,4.6-21.5,5.5-32.8c0.9-6.7,2-15.4,2.9-23.8
					c0.9-5.5,1.2-11.9,2.6-17.4h3.5c3.2,0,9,4.4,10.4,8.1c1.5,4.4,2.6,8.4,2.9,12.8c0.3,3.2-0.9,5.8-0.9,10.2
					c2.9-7.3,18.9-19.4,28.1-19.4c8.4,0,21.2,4.9,27.9,13.1c1.2,1.5,1.7,4.1,3.2,6.4C2110,226.5,2105.7,228.8,2106.8,231.4z"/>
				<path d="M2163.7,282.5c0.9,0.3,2,0,2.9,1.2c-0.3,1.5-2.3,3.2-3.5,4.1c-0.9,1.2-1.2,2.9-0.9,4.9c-4.6,2.6-11.6,9-15.1,13.3
					c0,0.9,0.6,2.9-1.7,4.1c-3.5,2-9.6,3.8-11.6,3.8c-19.4,1.5-29.6-22.9-30.5-35.7c-0.3-3.5,0.6-13.6,2-19.1l3.2-12.2
					c2.6-12.5,5.8-22.6,9.6-30.5c0-0.9,0-2,0.3-4.1c1.2-0.9,1.5-3.2,3.5-5.2c2.3,0,4.4-1.2,6.7-1.5c3.8-0.3,7.5,1.5,11.6,4.6
					c4.4,3.2,6.7,6.7,7,10.4c0,1.5-1.2,3.2-1.5,5.5c-0.9,3.5-2,8.7-2.9,15.7c-0.9,6.7-2.3,11.9-4.4,15.1c-1.2,2.6-1.7,7.8-2.6,10.4
					c-3.5,11.9-6.1,15.7-4.1,22.6c13.6-6.1,27.3-16.8,36.8-26.4C2164.8,266.8,2170.1,277,2163.7,282.5z M2150.6,178.3
					c-4.4,0.3-8.4-2.3-11.6-3.8c-0.3-0.9,0-1.2-0.9-2c-4.4-2.3-7-9.6-8.4-14.5c-1.2-2.3-0.3-7.3-1.7-9.9c13.1,0.9,14.5-2.3,21.8-3.2
					c2,2.6,4.6,4.1,5.5,6.1c1.5,1.5-0.6,5.5,2.9,8.7C2153.2,167,2164.6,177.4,2150.6,178.3z"/>
				<path d="M2232.7,291.8c0,1.5,1.2,2.3,3.2,2.9c-1.2,1.5-2,4.4-3.2,7c-4.9-1.2-7.5,5.2-7.5,9.9c-3.5,1.2-7,1.7-11.3,1.7
					c-1.5,0.9,0,1.2,1.2,1.2c-3.2,0.3-7.5,2.9-10.7,3.2v0.9c0,0.3-0.3,0.6-1.2,0.6c-3.5,0-11.9-5.8-12.8,0l-3.2-4.4
					c-8.4-2-10.7-4.1-18-11.9c-5.2-4.6-2.6,2.6-8.1-20.6c-1.5-11.6,1.2-17.7,2.3-22.3c1.2-5.5,5.5-16.8,9.9-25.8
					c2.3-4.6,5.2-11.3,9.6-18.3c2-2.6,5.5-7,7.5-10.7c4.4-3.8,4.9-6.7,10.7-10.2c2.6-1.2,8.7-2.9,7.8-6.1c-0.3,0.3-0.6,0.3-0.6,0.6
					c0,0.6,0.3,0.9,1.2,0.9c2.3,0-0.6-0.9,1.7-0.9c1.5,0,5.5,2.6,8.1,3.5c0.9,2.6,0,5.5,2,5.5c2.3,0,0-0.9,2-0.9
					c1.5,0,2.3,1.5,3.5,2.6c0,12.2,5.8,5.8,5.8,13.3c0,1.7-3.2,16.2-5.5,23.5c-2.3,4.6-8.4,13.3-13.3,19.4
					c-8.4,10.2-25,26.7-25,29.3c0,2.3,5.2,5.8,8.7,7.3c2,1.2,6.4,0.9,8.4,0.9c3.2,0,5.5-2.9,10.2-0.9c7.8-2.3,15.1-4.9,20.9-6.4
					c0.9,0.9,2,1.2,2.9,1.2C2236.8,288.9,2235.3,290.9,2232.7,291.8z"/>
				<path d="M2363.6,283.6c-0.9,0.9,0.6,2.3,0.3,2.6c-0.9,0.9-1.7,1.5-2.6,2.6c0.6,0.3,1.5,0.6,2.3,0.6l-0.3,0.3
					c-0.6,0.6-0.9,0.9-1.2,0.6c-1.2,1.2-0.3,3.5-2.3,4.9c0.9,1.5,0,3.2,1.2,4.6c-1.5,1.5-3.8,2.6-4.1,4.9c-1.5,2.6-6.7,4.6-9,7.3
					c-2,0.9-4.4,4.9-5.2,6.4c-3.8,0.3-9.6-0.6-11.6-0.6c-3.2,0-16.8-7-17.7-9.9c-4.4-8.4-8.4-18-9.6-27c-1.5-5.8-1.5-17.1-1.7-25.5
					c-0.9-0.3,0.3-1.2-0.6-1.5c-7.8,9-17.1,22.3-25.2,31.9c-0.3,0.3-0.3,0.9,0,2c-2.6,4.9-5.5,10.2-9.3,14.8
					c-2.6,3.5-9,9.9-10.4,10.2c-2,0-3.5-2.9-4.9-2.6c-2.3,0,0.3,0.9-1.7,0.9c-7.3,0.9-8.4-13.6-9.6-14.8c-1.2-0.9-2.6-2.6-2.9-5.2
					c0-1.5,2.3-11,2.6-16.8c1.5-2.6,2.9-6.4,3.8-9c1.2-4.4,0.9-9.6,2-13.9c5.5-16,13.6-39.2,21.5-59.8c0-1.2-0.3-3.8-0.3-6.1
					c2.6-2.3,5.8-5.5,8.1-6.4c1.5,2,3.2,3.8,5.2,6.4c1.2-1.2,1.2-3.5,0.9-4.9c2,1.5,4.1,3.2,7.3,4.1c0,1.5-1.2,3.5,0,4.9h0.3
					c0.9,0,0.6-0.3,1.7-0.6l0.3,3.2c0.3,2-1.5,4.1-2.3,6.7c-0.9,4.9-1.5,12.5-2.6,18.3c0,2-0.9,2.9-1.7,4.1c-1.5,4.4-2,8.7-1.7,12.8
					c4.4-4.4,11.3-16.2,17.1-18.6c2.6-1.2,5.8-0.3,9.3-2.3c2,1.5,2.6,2.9,3.5,4.4c1.5-0.9,2-1.7,4.1-2c1.5,0,5.2,3.8,7.5,5.8v0.3
					c0,0.3-0.3,0.6-0.6,0.9c0,0.9,1.5,1.2,1.7,1.2c7,13.6,5.2,8.4,6.1,16.2c0.9,2-1.5,25.2-0.6,37.1c-0.9,4.6,0.3,10.2,0.6,16
					c0.9,0.6,2.3,0.9,3.8,0.6c4.9,0,15.1-8.1,20-10.2h-0.3c-0.6,0-0.9,0.3-0.6,0.6l-0.3,0.6h1.2c2-0.3,6.4-4.6,10.7-7
					C2364.5,279.6,2363.9,281.6,2363.6,283.6z M2317.5,218.9l-0.3-1.5l-2,0.3l0.3,1.5L2317.5,218.9z"/>
				<path d="M2451.8,266.8c-2,0-0.9-1.2-1.7,0c0,1.2-1.2,1.5,0.3,1.5c2,0,0.9-0.3,2-0.3c-1.2,1.2-2.6,4.4-1.7,5.5
					c-3.5,3.2-8.1,6.1-11.3,9.3c0,0.9,0.6,1.2,1.5,1.2v2.9c-7,3.8-14.5,9-25,15.1c-1.2,1.2-2,3.8-3.5,4.9c-3.2,1.7-18.3,7-24.7,7
					c-15.1,0-28.1-16-29-28.7c0-2.3-0.3-5.2-0.3-7.3c0-4.4,0.6-10.2,2-17.4c1.5-7.5,3.5-13.9,6.4-18.9c0.9-0.3,0.6-2.3,0.9-3.8
					c2.6-5.8,5.5-11.3,9.3-16c2.6-2.6,5.2-4.6,6.7-7.8c0-0.3,0-0.6-0.3-0.9c-0.9,0.9-1.2,1.2-1.2,1.5c3.5-4.4,7.5-12.5,12.2-17.4
					c1.2-2,4.4-1.7,6.7-2.9c2-1.2,2.6-3.2,4.9-3.2c1.5,0,9,1.5,12.2,2.9c3.2,2,9.3,6.7,11.3,11.3c1.5,3.2,2.9,8.7,2.9,11
					c0,2.9-3.2,20-6.4,21.8c-0.9,0.6-2.3,0.9-4.4,0.9c-4.6,0-7-3.5-8.1-7.8c-1.2-3.2-3.8-5.8-2.6-9v-0.3h-0.9
					c-10.7,13.6-19.1,28.7-24.1,39.5c-2.9,6.7-7.8,23.5-7.8,25v4.1c2.6,1.2,7,2,8.4,2s8.1-3.2,12.8-5.2c10.4-4.4,23.8-8.7,37.4-15.7
					c3.5-2,12.8-7.3,19.7-10.4C2455,262.5,2454.1,266.8,2451.8,266.8z"/>
				<path d="M2515.3,291.8c0,1.5,1.2,2.3,3.2,2.9c-1.2,1.5-2,4.4-3.2,7c-4.9-1.2-7.5,5.2-7.5,9.9c-3.5,1.2-7,1.7-11.3,1.7
					c-1.5,0.9,0,1.2,1.2,1.2c-3.2,0.3-7.5,2.9-10.7,3.2v0.9c0,0.3-0.3,0.6-1.2,0.6c-3.5,0-11.9-5.8-12.8,0l-3.2-4.4
					c-8.4-2-10.7-4.1-18-11.9c-5.2-4.6-2.6,2.6-8.1-20.6c-1.5-11.6,1.2-17.7,2.3-22.3c1.2-5.5,5.5-16.8,9.9-25.8
					c2.3-4.6,5.2-11.3,9.6-18.3c2-2.6,5.5-7,7.5-10.7c4.4-3.8,4.9-6.7,10.7-10.2c2.6-1.2,8.7-2.9,7.8-6.1c-0.3,0.3-0.6,0.3-0.6,0.6
					c0,0.6,0.3,0.9,1.2,0.9c2.3,0-0.6-0.9,1.7-0.9c1.5,0,5.5,2.6,8.1,3.5c0.9,2.6,0,5.5,2,5.5c2.3,0,0-0.9,2-0.9
					c1.5,0,2.3,1.5,3.5,2.6c0,12.2,5.8,5.8,5.8,13.3c0,1.7-3.2,16.2-5.5,23.5c-2.3,4.6-8.4,13.3-13.3,19.4
					c-8.4,10.2-25,26.7-25,29.3c0,2.3,5.2,5.8,8.7,7.3c2,1.2,6.4,0.9,8.4,0.9c3.2,0,5.5-2.9,10.2-0.9c7.8-2.3,15.1-4.9,20.9-6.4
					c0.9,0.9,2,1.2,2.9,1.2C2519.4,288.9,2517.9,290.9,2515.3,291.8z"/>
				<path d="M2606.4,200.9c0.9,5.8,0.3,16-2.3,21.5c-1.2,1.2-4.1,2-6.1,2c-1.5,0-6.1-2-8.7-4.6c-1.4,0.6-2,1.5-2.3,2.6
					c-2.6,21.8-0.3,44.4-4.1,66.4c-1.5,10.7-4.6,38-21.8,38c-2.3,0-1.7-0.9-2.9-1.2c-0.9-0.9,0,0.3-2.3,0.3
					c-5.2,0-12.2-8.1-13.3-8.1c-9.3-5.5-22.3-27.9-22.3-39.7c0-3.5,2.6-12.8,6.1-17.7c0.9,0,1.7-0.3,2.3-0.6
					c0.3,1.5-0.9,3.8-1.2,5.8c0.9,1.2,1.5,0.9,2.6,2c1.2,0,0.3,2,0.3,4.6c1.5,1.5,2.6,0.9,0,3.5c1.2,2,1.5,3.8,1.2,5.2
					c1.2,2.3,4.4,4.6,2.9,7.8l1.2,1.2c0.9-1.2,2-1.7,3.2-1.7c3.2,5.5,3.2,13.1,9,16.8c3.5-3.2,5.8-8.1,7.3-12.5
					c7-16.5,5.5-46.4,5.5-59.5c0-4.4,2-9.9,2-14.5c0-1.5-0.9-3.2-0.9-4.6c0-3.8,0.9-7.3,1.7-13.3c0-3.5,0.9-29.3,8.1-29.3
					c2.3,0,2,0.3,3.2,1.2c4.6-0.6,9.6,0.9,15.1,4.4c5.5,3.2,9.9,6.4,12.8,9.3c0.3,1.2,0.3,2,0.3,3.2c2.3,1.5,4.6,6.1,4.6,8.1
					C2607.6,199.5,2607.3,200.1,2606.4,200.9z M2538.3,287.7h-1.2v-4.4h1.2V287.7z"/>
			</g>
		</g>
	</g>
</g>
</svg>
