<?xml version="1.0" encoding="utf-8"?>
<!-- Generator: Adobe Illustrator 19.2.1, SVG Export Plug-In . SVG Version: 6.00 Build 0)  -->
<svg version="1.1" id="Layer_1" xmlns="http://www.w3.org/2000/svg" xmlns:xlink="http://www.w3.org/1999/xlink" x="0px" y="0px"
	 width="1412.7px" height="571.7px" viewBox="0 0 1412.7 571.7" style="enable-background:new 0 0 1412.7 571.7;"
	 xml:space="preserve">
<title>Transformative Exper</title>
<desc>Created with Sketch.</desc>
<g>
	<path d="M170.9,48.7c-2,0-1.2-1.5-2.6-1.5c-1.5,0-6.4,3.2-9,3.2c-17.1,2-30.2,3.5-45,7.8c-0.9,6.1-1.5,14.5-2.9,21.8
		c-1.2,2.6-2,7.5-2.9,10.7c-1.5,6.7-3.2,12.5-4.1,18.6c-2.3,13.1-8.4,35.4-8.4,48.7l-11.9,79.8c-2.6,0.9-4.4,2.9-5.5,4.1l-1.5-1.5
		c-2,2-2.3,4.4-4.6,4.4c-1.5,0-8.1-5.5-12.5-9c1.5-2.3,4.6-4.4,4.6-6.4c0.9-11.3,1.2-21.8,2-33.1l0.6-18.6
		c2.3-22.3,5.5-45.6,8.1-68.5l10.4-45.6c-3.2,0-6.4,0-10.2,0.3C69.6,65,51.6,68.8,40,69.6c-0.9,0-1.7-0.3-4.1-0.3l-1.2,1.5
		c-3.5-1.2-9.3,0.6-11.6,0.6c-2.6,0-10.7-5.8-13.9-7.5c-3.2-2.6-4.9-7-7-10.4c-2-3.8-1.2-9.3-2.3-13.1c0-0.9,0.3-2.9,2.3-2.9
		c2,0,7.8,1.2,9,1.2c4.4,0,8.1-0.6,9.6-2.6l0.3,0.3c0,0.3,0.3,0.6,0.6,0.6c2.3,0.9,4.9,0.3,7.3,1.2l65.6-8.4
		c4.9-0.9,11.3-0.6,16-0.6v-0.9c0-0.3,0.6-0.6,1.5-0.6c28.7,0,41.8-0.9,78,7c-0.9,0.9-0.6,1.5,0.3,2c0.3,0.6-0.6,1.5-2.3,2.9
		c0.9,0.9,1.7,2.3,2.9,2.6C185.1,44.7,172.6,48.7,170.9,48.7z"/>
	<path d="M208.9,158.4c-3.2,0-6.7-1.2-12.2,0c-0.3-2-0.6-4.6-1.5-8.4c-11.6,4.4-21.2,18-28.4,29.3c0-0.9-0.3-1.5-1.2-1.5
		c-0.9,1.7-1.2,2.9-0.6,3.5c-0.3,0-0.6,0-0.9,0.3c-0.6,0.9-0.9,1.2-0.9,1.2c-0.3,0.9,0.9,1.2,0.9,2.3c-0.9,0-0.9,0.6-2,0.6h-0.3
		c-0.6,0-0.9,0.3-0.9,0.6c-0.9,1.2,1.2,1.7,1.2,2c-1.7,3.2-4.1,7-7,10.7c0,1.2,0.9,1.7,0.6,2c-1.2,2.6-2.9,4.1-4.9,6.1
		c-1.5,2-1.2,4.9-2.3,7.3c-3.8,7.8-7.5,17.4-4.9,25.5c-1.7,1.2-3.5,1.7-5.5,1.7c-1.2,0-5.5-2-8.1-3.2c-1.2-1.2,0-4.9-3.2-4.1
		c-2-6.1-4.9-10.4-4.9-15.1c0-1.7,4.6-17.7,5.2-25.5c2.6-10.7,4.6-21.5,5.5-32.8c0.9-6.7,2-15.4,2.9-23.8c0.9-5.5,1.2-11.9,2.6-17.4
		h3.5c3.2,0,9,4.4,10.4,8.1c1.5,4.4,2.6,8.4,2.9,12.8c0.3,3.2-0.9,5.8-0.9,10.2c2.9-7.3,18.9-19.4,28.1-19.4
		c8.4,0,21.2,4.9,27.9,13.1c1.2,1.5,1.7,4.1,3.2,6.4C212.1,153.5,207.7,155.8,208.9,158.4z"/>
	<path d="M327,213.8c-1.5,1.5-2,2.6-1.2,4.1c-2.3,2.6-6.7,6.4-11,9.6c0,0.3,1.5,2,2.3,2c-6.1,0.9-16,9.9-18.6,9.9h-12.2
		c-11.9,0-22.6-24.1-22.6-26.1c0-3.5,0-9.3-0.9-14.8c-3.2,5.5-6.4,9.6-9.9,15.4c-3.2,4.6-18,26.4-26.7,26.4c-1.5,0-4.6,1.2-6.1,1.2
		c-9.6,0-12.8-6.1-18.3-10.7c-0.3-2.3-2.3-7.3-2.3-8.7c0-17.7,23.5-57.4,33.4-70.5c2-2.6,7.8-8.4,11.6-11c2.6-1.2,5.8-4.9,8.4-7.3
		c0.9-0.9-0.3-1.7,0.6-2.6c2.6-1.2,4.6-0.6,6.1-1.7c1.5-0.9,2.6-2.3,3.5-4.1h2.3c2,1.7,3.5,2.6,4.9,2.6c1.5,0,3.2,0.6,4.6,0.6
		c3.5-3.8,1.2-5.8,4.9-5.8c2,0,0.6,2.3,2.6,2.3c2.3,0,0.3-0.9,1.7-0.9c3.5,0,10.4,3.2,12.8,5.8c0.9,1.5,2.3,5.5,1.2,6.7
		c0,1.2,0.9-1.2,0.9,1.2c0,2-6.1,21.2-8.4,32.2c-3.2,15.4-6.4,44.4-6.4,46.1c0,1.5,0.9,6.4,0.9,9c3.2,1.2,6.4-0.3,8.7-0.3
		c4.4,0,36.6-15.1,38.3-16C331.3,210.6,327.8,211.8,327,213.8z M260.5,159.6c-1.2-1.2,0-2.3,0-3.2C251,168,242,183.7,235,197.3
		l1.7,2c9.3-11.3,17.1-27.6,25.5-41.5L260.5,159.6z"/>
	<path d="M437.5,210.6c-0.9,0.9,0.6,2.3,0.3,2.6c-0.9,0.9-1.7,1.5-2.6,2.6c0.6,0.3,1.5,0.6,2.3,0.6l-0.3,0.3
		c-0.6,0.6-0.9,0.9-1.2,0.6c-1.2,1.2-0.3,3.5-2.3,4.9c0.9,1.5,0,3.2,1.2,4.6c-1.5,1.5-3.8,2.6-4.1,4.9c-1.4,2.6-6.7,4.6-9,7.3
		c-2,0.9-4.4,4.9-5.2,6.4c-3.8,0.3-9.6-0.6-11.6-0.6c-3.2,0-16.8-7-17.7-9.9c-4.4-8.4-8.4-18-9.6-27c-1.5-5.8-1.5-17.1-1.7-25.5
		c-0.9-0.3,0.3-1.2-0.6-1.5c-7.8,9-17.1,22.3-25.2,31.9c-0.3,0.3-0.3,0.9,0,2c-2.6,4.9-5.5,10.2-9.3,14.8c-2.6,3.5-9,9.9-10.4,10.2
		c-2,0-3.5-2.9-4.9-2.6c-2.3,0,0.3,0.9-1.7,0.9c-7.3,0.9-8.4-13.6-9.6-14.8c-1.2-0.9-2.6-2.6-2.9-5.2c0-1.5,2.3-11,2.6-16.8
		c1.5-2.6,2.9-6.4,3.8-9c1.2-4.4,0.9-9.6,2-13.9c5.5-16,13.6-39.2,21.5-59.8c0-1.2-0.3-3.8-0.3-6.1c2.6-2.3,5.8-5.5,8.1-6.4
		c1.4,2,3.2,3.8,5.2,6.4c1.2-1.2,1.2-3.5,0.9-4.9c2,1.5,4.1,3.2,7.3,4.1c0,1.5-1.2,3.5,0,4.9h0.3c0.9,0,0.6-0.3,1.7-0.6l0.3,3.2
		c0.3,2-1.5,4.1-2.3,6.7c-0.9,4.9-1.5,12.5-2.6,18.3c0,2-0.9,2.9-1.7,4.1c-1.5,4.4-2,8.7-1.7,12.8c4.4-4.4,11.3-16.2,17.1-18.6
		c2.6-1.2,5.8-0.3,9.3-2.3c2,1.5,2.6,2.9,3.5,4.4c1.4-0.9,2-1.7,4.1-2c1.5,0,5.2,3.8,7.5,5.8v0.3c0,0.3-0.3,0.6-0.6,0.9
		c0,0.9,1.5,1.2,1.7,1.2c7,13.6,5.2,8.4,6.1,16.2c0.9,2-1.5,25.2-0.6,37.1c-0.9,4.6,0.3,10.2,0.6,16c0.9,0.6,2.3,0.9,3.8,0.6
		c4.9,0,15.1-8.1,20-10.2h-0.3c-0.6,0-0.9,0.3-0.6,0.6l-0.3,0.6h1.2c2-0.3,6.4-4.6,10.7-7C438.4,206.6,437.8,208.6,437.5,210.6z
		 M391.4,145.9l-0.3-1.5l-2,0.3l0.3,1.5L391.4,145.9z"/>
	<path d="M518.2,127.9c0.9,5.8,0.3,16-2.3,21.5c-1.2,1.2-4.1,2-6.1,2c-1.5,0-6.1-2-8.7-4.6c-1.5,0.6-2,1.5-2.3,2.6
		c-2.6,21.8-0.3,44.4-4.1,66.4c-1.5,10.7-4.6,38-21.8,38c-2.3,0-1.7-0.9-2.9-1.2c-0.9-0.9,0,0.3-2.3,0.3c-5.2,0-12.2-8.1-13.3-8.1
		c-9.3-5.5-22.3-27.9-22.3-39.7c0-3.5,2.6-12.8,6.1-17.7c0.9,0,1.7-0.3,2.3-0.6c0.3,1.5-0.9,3.8-1.2,5.8c0.9,1.2,1.5,0.9,2.6,2
		c1.2,0,0.3,2,0.3,4.6c1.5,1.5,2.6,0.9,0,3.5c1.2,2,1.5,3.8,1.2,5.2c1.2,2.3,4.4,4.6,2.9,7.8l1.2,1.2c0.9-1.2,2-1.7,3.2-1.7
		c3.2,5.5,3.2,13.1,9,16.8c3.5-3.2,5.8-8.1,7.3-12.5c7-16.5,5.5-46.4,5.5-59.5c0-4.4,2-9.9,2-14.5c0-1.5-0.9-3.2-0.9-4.6
		c0-3.8,0.9-7.3,1.7-13.3c0-3.5,0.9-29.3,8.1-29.3c2.3,0,2,0.3,3.2,1.2c4.6-0.6,9.6,0.9,15.1,4.4c5.5,3.2,9.9,6.4,12.8,9.3
		c0.3,1.2,0.3,2,0.3,3.2c2.3,1.5,4.6,6.1,4.6,8.1S519,127.1,518.2,127.9z M450,214.7h-1.2v-4.4h1.2V214.7z"/>
	<path d="M684.4,155.5l-1.5,1.7c1.2,0.9,2.3,1.5,2.3,2.9c-2.6,0.9-6.1,2.6-8.7,2.9c-0.6,4.9-9.3,2.9-13.6,3.8
		c-4.6,1.2-12.8,5.2-14.8,5.2c-2.3,0-0.3-0.9-2.3-0.9c-2,0-14.2,5.2-21.8,6.7c-16,4.6-34.5,7.8-51.1,12.5c-1.2,1.2-2.9,3.5-2.9,4.4
		c-5.5,20.6-11.6,55.1-15.4,78c-0.3,0-0.6-0.9-1.5-2.9c-0.9,1.2-1.4,2.9-2,5.2c-0.3,4.4-1.5,12.5-1.5,14.5v19.1
		c6.1,3.2,2.9,9.6,3.5,14.5l1.5-1.5c-0.9,3.8,1.5,2.6,1.5,3.8c0,2.3-1.7,5.8-2.9,8.4h-0.9c-0.3,0-0.6-0.3-1.2-0.9
		c-0.9,0-1.2,1.2-1.2,2.3c-4.4-2.6-9.6-7-12.8-11.3c-1.5-7.5-2.9-22.6-2.9-24.7l5.2-56.9c0-2.3,7.8-31.3,9.3-47
		c-1.5-0.6-2.9-0.3-4.4,1.2c-0.9-1.5-3.2-2.3-5.5-2.3c-2,0-0.3,0.6-0.3,1.5c-0.9-0.9-2-1.5-3.2-1.5c-2,0-3.5-0.9-4.9-2l-5.2-4.6
		c-0.9-0.9-6.7-15.1-6.7-18.9c0-1.2,3.8-0.3,1.7-4.6c7.5,5.2,7,1.5,13.3,1.5c2,0,0.3-1.5,1.7-1.5c2.6,0,6.1,0.6,10.7-0.9
		c2-0.9,5.5-1.5,9.9-1.5c3.2-14.8,6.1-31.3,9.6-45c2.3-8.1,4.1-17.7,6.7-25.5c7.8-24.4,16.8-56.6,30.8-78.9C604.6,9.3,613.3,0,616,0
		c2,0,2.9,0.9,4.4,2c2,1.2,5.2,0.9,7.8,1.2c2.6,1.2,6.1,2.9,7.5,4.1c3.8,3.2,9,7.5,11.6,10.7c2,4.4,5.8,11.3,5.8,13.3
		c0,2.3-3.5,11.9-4.9,16.8c-2.6,0-5.2,3.2-7.5,6.4c-1.2,0-2.3-1.5-2.6-1.5l-2.3,1.5c-1.2-1.2-2.3-0.9-3.2-0.9l1.5-1.5
		c-2-1.2-4.4-2-5.5-3.2c-1.5-2.6-3.2-7.3-3.2-9.3c0-2.3,1.2-2.6,2-3.5c1.2,0.9,0.6,1.2,1.7,2.3c1.2-2,1.7-4.6,1.7-7.3
		c0-1.5,0.3-3.5-1.7-3.5c-4.4,0-14.5,25.8-15.4,30.2c-0.9,2.6-2.9,7.5-6.1,14.2c-2.9,6.7-5.2,13.1-7.3,19.1
		c-2.6,9.3-7,23.8-9.3,35.7c-1.5,5.8-3.5,12.8-6.1,20c-0.9,0.9-1.5,0.3-2.6,1.5c0,0.9,0.3,1.7,1.2,2.6c0.3,1.2-0.9,2.9-2,4.4v2
		c5.8,2,15.1-0.6,21.2-1.5c7.3-1.2,16-0.6,24.1-1.7c1.7,0,3.2-0.6,4.1-1.5c8.4,0.3,21.5-0.6,31.9-0.6c0.9-0.3,2.3,0,2.6-1.2
		c4.4,1.2,9.6,0,14.2-0.3l0.3-0.3c0.6-0.6,1.2-0.9,1.7-0.9c2,0-1.2,1.5,1.2,1.5c1.5,0,6.1-1.5,8.1-1.5s2,1.5,3.2,1.5
		C691.4,151.2,688.8,152.9,684.4,155.5z M547.8,287.5v-4.6h-1.5v4.6H547.8z M553,289.3h-1.2v-4.9h1.2V289.3z M687.9,152v-1.2h2.9
		v1.2H687.9z M693.1,149.4v1.2V149.4z"/>
	<path d="M686.8,233c-1.2,0.9-1.5,3.2-2.3,4.4c-6.7,4.1-12.5,6.1-18,6.1c-9,0-13.6-5.5-19.4-10.2c-2-1.5-3.2-8.7-6.7-8.7
		c-0.9-3.5-2.3-10.2-2.3-11.6c0-12.8,11.3-36.8,13.9-40.9c0.9-0.9,0.3-3.5,1.5-4.6c2-3.5,5.2-7,6.7-10.4c1.2-0.9,1.2-0.6,2.3-0.9
		c1.2-0.3,0.6-2,1.7-3.5c1.5-2.6,5.2-4.1,7.3-6.7c1.2-1.5,0.6-3.8,1.7-5.8c-0.9,0-2.6-1.5-3.8,0.6c0-0.9-0.3-1.5-0.6-1.7
		c-0.6,0.3-0.9,1.2-0.9,2.3c0-1.5-0.6-2-2-2l0.6-0.3c0.3,0,0.6-0.3,1.2-0.9c-1.5-11,18.3-14.8,21.5-18c1.5,3.2,3.8,1.2,7,2.6
		c1.5,1.2,6.4,6.1,9,8.7c0,0.3,0.3,0.6,0.6,1.2c0.3,0.9,0.9,1.7,1.2,2c0.9,0.3,2,0,2.9,0.9c9,12.5,15.1,23.8,15.1,36.3
		C724.8,192.9,707.9,214.4,686.8,233z M697.2,151.7c-3.2,6.1-9.9,13.6-12.5,18c-6.4,11.6-18.3,35.1-18.3,37.4v2.6
		c3.8-2.6,10.2-8.7,11.6-8.7c2,0-1.5,1.7,0.9,1.7c2.6,0,14.5-18.9,15.1-20.3c1.7-2.6,6.7-19.4,6.7-20
		C700.7,160.2,698.6,154.9,697.2,151.7z M694,149.4v-4.4h-1.5v4.4H694z"/>
	<path d="M812.7,158.4c-3.2,0-6.7-1.2-12.2,0c-0.3-2-0.6-4.6-1.5-8.4c-11.6,4.4-21.2,18-28.4,29.3c0-0.9-0.3-1.5-1.2-1.5
		c-0.9,1.7-1.2,2.9-0.6,3.5c-0.3,0-0.6,0-0.9,0.3c-0.6,0.9-0.9,1.2-0.9,1.2c-0.3,0.9,0.9,1.2,0.9,2.3c-0.9,0-0.9,0.6-2,0.6h-0.3
		c-0.6,0-0.9,0.3-0.9,0.6c-0.9,1.2,1.2,1.7,1.2,2c-1.7,3.2-4.1,7-7,10.7c0,1.2,0.9,1.7,0.6,2c-1.2,2.6-2.9,4.1-4.9,6.1
		c-1.5,2-1.2,4.9-2.3,7.3c-3.8,7.8-7.5,17.4-4.9,25.5c-1.7,1.2-3.5,1.7-5.5,1.7c-1.2,0-5.5-2-8.1-3.2c-1.2-1.2,0-4.9-3.2-4.1
		c-2-6.1-4.9-10.4-4.9-15.1c0-1.7,4.6-17.7,5.2-25.5c2.6-10.7,4.6-21.5,5.5-32.8c0.9-6.7,2-15.4,2.9-23.8c0.9-5.5,1.2-11.9,2.6-17.4
		h3.5c3.2,0,9,4.4,10.4,8.1c1.5,4.4,2.6,8.4,2.9,12.8c0.3,3.2-0.9,5.8-0.9,10.2c2.9-7.3,18.9-19.4,28.1-19.4
		c8.4,0,21.2,4.9,27.9,13.1c1.2,1.5,1.7,4.1,3.2,6.4C815.9,153.5,811.5,155.8,812.7,158.4z"/>
	<path d="M985.9,222c-0.6,1.5,0,2.3,1.5,2.9c-0.9,1.5-2.3,2.3-3.5,3.5c0.3,1.2,0,2-0.6,2.6c-4.4,2-9.3,4.9-11.6,5.2
		c-2,0-7.8-2.6-9.9-2.6c-1.5,0.3,1.2,1.2-0.9,1.5c-1.5,0-9.6-5.8-13.3-9.6c-6.1-6.7-7-18-9.3-28.7c-0.3-2.6,0.3-5.8-1.7-9.6
		c-2.3,2.6-3.2,5.2-5.5,8.4c-3.2,4.6-13.3,15.4-19.1,23.8c-3.8,4.6-7.5,10.4-13.1,13.6c-0.9,1.2,0.3,1.7-0.9,2
		c-3.2,2-8.1,4.6-10.2,4.6c-6.1,0.9-21.2-9-22-14.2c-1.5-13.3,6.1-35.4,6.7-44.1c0.9-1.5-0.6-1.5-0.6-2.3l0.9-1.2
		c-0.3-1.2-1.2-1.7-1.2-3.2c-9.3,9.6-19.7,24.4-29,36.3c-0.3,0.9-0.6,2.6-1.5,4.1l-6.4,7.5v2.3c-3.8,3.5-7,9.9-10.4,13.3
		c-1.5,1.2-6.1,4.4-8.4,4.4c-1.5,0.3-6.4-3.2-8.7-5.5c-3.2-2-3.5-6.7-3.8-11c-1.2-9.3,3.5-26.1,8.1-40.9
		c4.6-14.8,9.6-27.6,10.4-32.2c0.9-3.2,2.9-9,3.8-13.3c0.3-0.3,1.2-0.6,1.5-1.7c0-8.4,1.5-12.8,6.4-24.1c2-0.3,4.6-1.7,6.7-1.7
		c2-0.3,3.8,0.3,5.2,1.5c0.3,0.9,0.6,1.2,0.9,1.5c4.4,0.9,7.3,8.7,7.3,10.2c0.3,1.2-0.3,4.4-1.2,9.6c-0.9,4.9-1.7,9.3-2.9,12.5
		c-0.9,5.8-7.5,18.9-7,23.8c0.3,0,0.9-1.7,3.2-2c1.5,0,19.4-24.1,27.9-36.3c2-0.9,6.4-0.9,11,0c3.2,0.9,11,3.8,14.8,8.1
		c1.5,2.6,4.1,9,4.4,11.6c0,2-2.9,21.2-3.8,31.6c-3.2,0.9-2.9,5.8-3.2,9.3v0.3c0,0.3,0,0.6,0.3,0.9c2-2,1.7-3.5,5.2-3.5l37.7-45.8
		c0.9,0.3,3.8-0.6,6.4,0.3c1.5,0.3,4.1,2.9,5.2,3.8c0.3,0.3,2.6-0.3,3.8,0.9c1.5,0.9,2.9,2,4.9,4.4c2,2.3,1.5,5.2,4.1,7.3
		c-0.9,0.3,0.3,1.7,0.6,3.2c0,1.7-3.2,18.9-3.2,27c-0.3,2-0.3,5.2-0.3,9.3c0,4.1,0,6.7,0.3,7.8c0.9,7.8,1.7,11.3,11.9,10.2
		c1.5,0,9.6-2.6,13.3-4.6C988.5,217,986.2,219.9,985.9,222z M929.6,195.8h-0.9l-1.7,2.6l1.5,0.9L929.6,195.8z"/>
	<path d="M1108.3,213.8c-1.5,1.5-2,2.6-1.2,4.1c-2.3,2.6-6.7,6.4-11,9.6c0,0.3,1.5,2,2.3,2c-6.1,0.9-16,9.9-18.6,9.9h-12.2
		c-11.9,0-22.6-24.1-22.6-26.1c0-3.5,0-9.3-0.9-14.8c-3.2,5.5-6.4,9.6-9.9,15.4c-3.2,4.6-18,26.4-26.7,26.4c-1.5,0-4.6,1.2-6.1,1.2
		c-9.6,0-12.8-6.1-18.3-10.7c-0.3-2.3-2.3-7.3-2.3-8.7c0-17.7,23.5-57.4,33.4-70.5c2-2.6,7.8-8.4,11.6-11c2.6-1.2,5.8-4.9,8.4-7.3
		c0.9-0.9-0.3-1.7,0.6-2.6c2.6-1.2,4.6-0.6,6.1-1.7c1.5-0.9,2.6-2.3,3.5-4.1h2.3c2,1.7,3.5,2.6,4.9,2.6s3.2,0.6,4.6,0.6
		c3.5-3.8,1.2-5.8,4.9-5.8c2,0,0.6,2.3,2.6,2.3c2.3,0,0.3-0.9,1.7-0.9c3.5,0,10.4,3.2,12.8,5.8c0.9,1.5,2.3,5.5,1.2,6.7
		c0,1.2,0.9-1.2,0.9,1.2c0,2-6.1,21.2-8.4,32.2c-3.2,15.4-6.4,44.4-6.4,46.1c0,1.5,0.9,6.4,0.9,9c3.2,1.2,6.4-0.3,8.7-0.3
		c4.4,0,36.6-15.1,38.3-16C1112.7,210.6,1109.2,211.8,1108.3,213.8z M1041.9,159.6c-1.2-1.2,0-2.3,0-3.2
		c-9.6,11.6-18.6,27.3-25.5,40.9l1.7,2c9.3-11.3,17.1-27.6,25.5-41.5L1041.9,159.6z"/>
	<path d="M1207.3,141.6c0,0.9,0.6,1.2,1.5,1.2c-0.9,2.6-3.8,2-0.6,4.6c-3.2,1.5-7.3,3.2-9.9,4.6c0,1.2,1.2,1.5,2.3,2.3
		c-2,4.9-9,6.4-14.8,7.5c-1.2,2-4.6,6.7-6.7,6.7c-1.5,0,0.3-0.6-0.9-1.5c-0.9,0-1.2,0.9-1.2,2.6c-5.8,1.2-13.1,4.1-20,6.4
		c-0.9,0.3,0,0.9,0,1.7c-0.9,0,0-0.6-2.3-0.6c-1.2,0-8.7,2.6-13.3,4.6l-2.3,3.5c-2.6,0.3-6.1,3.2-8.4,4.6
		c-2.3,9.6-5.5,27.9-5.5,29.9c0,2,2.9,13.1,2.9,14.5c0,2-3.5,4.1-3.5,6.7c-0.9,0-3.2,0.6-4.6,0.6c-2,0-2.3-3.5-3.5-4.6
		c-9-8.1-7.5-15.4-8.7-22.6c-1.2-4.4,1.2-15.7,0.9-29.9c0-2-8.1-11.6-8.1-13.3c0-1.5,1.5-7.3,1.5-11.6c0.9-0.9,1.5-1.7,1.5-2
		c1.2-0.3,2-1.2,3.5-1.2c2.3,0,0.3,0.9,2.6,0.9c1.5,0,3.8-2.3,4.1-4.4c3.2-8.7,6.7-36,9.9-48.5c3.2-12.8,7.5-25.8,11-38.9
		c1.5-6.1,3.8-14.2,6.4-21.5c2-5.8,2.3-15.4,8.1-19.1c1.2-1.2,4.1-2,4.9-2c2.3,0,4.4,4.6,6.4,4.6s2-0.3,3.2-0.3
		c-0.6,0.3-0.9,0.3-0.9,0.3s0,0.6,0,1.5c0,2.6,5.5,11.3,5.5,13.9c0,1.5-1.5,8.4-3.5,12.2c0.6,2,0.9,3.5,0.9,4.9
		c-5.8,19.7-11.9,38.9-17.7,57.2c-1.2,7.8-3.5,17.1-5.8,25.5v1.5c2,1.2,3.2,0.6,5.8,0.6c1.5-0.6,3.5-0.9,6.1-0.9
		c2,0,0.3,1.5,2.6,1.5c2,0,4.6-1.5,7.3-1.7c13.1-2.3,27.6-3.5,45.8-4.9C1209.6,139.8,1208.4,140.4,1207.3,141.6z"/>
	<path d="M1239.2,209.5c0.9,0.3,2,0,2.9,1.2c-0.3,1.5-2.3,3.2-3.5,4.1c-0.9,1.2-1.2,2.9-0.9,4.9c-4.6,2.6-11.6,9-15.1,13.3
		c0,0.9,0.6,2.9-1.7,4.1c-3.5,2-9.6,3.8-11.6,3.8c-19.4,1.5-29.6-22.9-30.5-35.7c-0.3-3.5,0.6-13.6,2-19.1l3.2-12.2
		c2.6-12.5,5.8-22.6,9.6-30.5c0-0.9,0-2,0.3-4.1c1.2-0.9,1.5-3.2,3.5-5.2c2.3,0,4.4-1.2,6.7-1.5c3.8-0.3,7.5,1.5,11.6,4.6
		c4.4,3.2,6.7,6.7,7,10.4c0,1.5-1.2,3.2-1.5,5.5c-0.9,3.5-2,8.7-2.9,15.7c-0.9,6.7-2.3,11.9-4.4,15.1c-1.2,2.6-1.7,7.8-2.6,10.4
		c-3.5,11.9-6.1,15.7-4.1,22.6c13.6-6.1,27.3-16.8,36.8-26.4C1240.3,193.8,1245.6,204,1239.2,209.5z M1226.1,105.3
		c-4.4,0.3-8.4-2.3-11.6-3.8c-0.3-0.9,0-1.2-0.9-2c-4.4-2.3-7-9.6-8.4-14.5c-1.2-2.3-0.3-7.3-1.7-9.9c13.1,0.9,14.5-2.3,21.8-3.2
		c2,2.6,4.6,4.1,5.5,6.1c1.5,1.5-0.6,5.5,2.9,8.7C1228.7,94,1240,104.4,1226.1,105.3z"/>
	<path d="M1345.6,119.2c0,0.3,0.3,0.3,0.6,0.3h0.9c0.3,1.2-1.2,2-1.5,3.2c0,0.3,1.2,0.6,3.5,1.5c-3.2,3.5-7.8,8.1-7,11.9
		c-2.3,3.2-5.8,6.7-8.1,9.3c0.9,0.9,1.7,0.9,2,0.3c-4.4,7.3-11.3,18.6-15.1,23.2c-7,11.3-19.1,32.5-23.8,40
		c-3.2,2.6-9.3,16.8-11,23.2c-2.3,3.5-4.1,8.7-5.5,13.3c-0.3,0.3-2,1.7-3.5,2l-3.8,0.6c-10.2,1.5-21.2-19.2-22-23.2
		c0-1.2-2-33.9-3.5-50.2c-0.3-9.6-0.9-21.8-3.2-33.7c-0.3-1.2-2.3-3.5-2.3-5.8l-0.6-5.2l3.8-0.3c2-0.9,1.2,0.6,3.2,0.3
		c1.5,0-0.3-0.3,1.2-0.3c1.5-0.6,11.3,5.2,14.2,9c2.6,3.8,3.5,9.6,5.5,15.1c0,9,2.3,18.6,6.1,34.8c10.2-16,21.5-31.6,32.2-43.5
		c3.8-2.9,15.4-16.8,21.8-19.7c1.2-1.2,1.5-2.3,2.9-3.8c3.5-2,9.9-5.8,11-6.1c3.5-2,2.3-0.9,5.5,0.3L1345.6,119.2z M1339,143.3
		l-1.7,2.3l-0.9-0.9l1.7-1.7L1339,143.3z"/>
	<path d="M1405.4,218.8c0,1.5,1.2,2.3,3.2,2.9c-1.2,1.5-2,4.4-3.2,7c-4.9-1.2-7.5,5.2-7.5,9.9c-3.5,1.2-7,1.7-11.3,1.7
		c-1.5,0.9,0,1.2,1.2,1.2c-3.2,0.3-7.5,2.9-10.7,3.2v0.9c0,0.3-0.3,0.6-1.2,0.6c-3.5,0-11.9-5.8-12.8,0l-3.2-4.4
		c-8.4-2-10.7-4.1-18-11.9c-5.2-4.6-2.6,2.6-8.1-20.6c-1.5-11.6,1.2-17.7,2.3-22.3c1.2-5.5,5.5-16.8,9.9-25.8
		c2.3-4.6,5.2-11.3,9.6-18.3c2-2.6,5.5-7,7.5-10.7c4.4-3.8,4.9-6.7,10.7-10.2c2.6-1.2,8.7-2.9,7.8-6.1c-0.3,0.3-0.6,0.3-0.6,0.6
		c0,0.6,0.3,0.9,1.2,0.9c2.3,0-0.6-0.9,1.7-0.9c1.5,0,5.5,2.6,8.1,3.5c0.9,2.6,0,5.5,2,5.5c2.3,0,0-0.9,2-0.9c1.5,0,2.3,1.5,3.5,2.6
		c0,12.2,5.8,5.8,5.8,13.3c0,1.7-3.2,16.2-5.5,23.5c-2.3,4.6-8.4,13.3-13.3,19.4c-8.4,10.2-25,26.7-25,29.3c0,2.3,5.2,5.8,8.7,7.3
		c2,1.2,6.4,0.9,8.4,0.9c3.2,0,5.5-2.9,10.2-0.9c7.8-2.3,15.1-4.9,20.9-6.4c0.9,0.9,2,1.2,2.9,1.2
		C1409.5,215.9,1408,217.9,1405.4,218.8z"/>
</g>
<g>
	<path d="M401.8,329.8h-38.3c-1.5,0-3.5,1.7-4.6,1.7c-3.5,1.2-9.6,0.6-13.1,1.5c-4.9,1.5-11.3,2-19.1,3.2l-1.5,1.5
		c-6.7-1.2-11.6,0.9-18.6,2v0.6c0,0.3-0.3,0.3-0.6,0.3c-2,0-6.1,1.2-9.3,1.2c-2,0.9-3.2,1.7-4.1,3.2c-3.5,7.8-5.5,16.2-7.8,24.4
		c-3.5,9.6-5.8,19.2-10.2,28.7l1.2,1.2c1.7-0.9,3.2-1.5,4.1-1.5c2,0,1.2,0.6,2,1.5l2-2c0.6,0.3,0.9,0.6,0.9,0.6s0.3,0,0.9,0
		c2.3,0,49-11,51.4-11c2,0,0.6,0.6,1.7,0.6l19.4-4.4l-1.4,1.2c1.4,1.2,2,2.9,2,4.4c0,2-1.5,2-2.3,4.1c-0.3,1.2,1.2,1.5,1.2,2.6
		c-3.8,0.9-7.5,3.5-11,4.4c-0.3,1.2-3.2,2.9-0.6,2.9c-2,0-4.4,0.6-7,2c0.9,0.9,1.7,0.3,2.9,0.3l-42.9,17.1c-3.8,0-11,3.2-15.7,5.2
		c-4.6,1.5-13.1,2-14.5,2c-2,0,0.6-0.6-1.5-0.6c-2.9,0-5.5,17.1-6.4,22.6c-1.7,8.7-4.1,25.8-4.1,27.9s0.6,1.7,0.6,2.6
		c0.3,2.3-1.2,3.8,3.2,9.3c1.5,0.3,1.7,0.9,3.8,0.9s0.9-1.5,2.9-1.5c2,0,2.9,2.3,4.4,2.3c2,0,3.8-0.9,5.8-0.9c1.2,0,5.5-1.7,7.8-2.6
		c4.6-1.5,9.9-3.8,16-7c4.4-2.3,8.4-7.8,12.8-7.8c1.5,0,0.9,1.5,2,1.5c0.9,2.3-1.7,4.1,1.7,6.7c-1.2,1.2-2,4.6-4.4,7
		c0,0.9,1.2,0.9,2.3,0.9c-2,1.2-7.8,7.5-8.1,8.7c-0.9,1.2-1.2,2.9-3.5,4.4c-5.2,4.4-19.7,9.6-20.6,9.6h-11c-2,0-1.5-0.6-2.6-0.9
		c-4.6,0-10.4-2.9-15.1-6.7c-10.7-7.3-16.5-15.1-19.1-22.9c-2-4.9-3.5-17.1-3.5-18.6v-19.4c0.9-0.9,1.2-1.5,1.2-1.7
		c3.8-22.6,10.4-31.9,6.4-40c0.9,0.3,2.9,0,3.8-2c4.9-13.9,10.2-29.3,15.1-44.4c0.9-2.3,3.8-7,3.8-9c0-2-4.1-4.6-6.4-5.5
		c0-1.5-3.5-4.1-4.4-7.3c-1.2-3.5-2.6-7.5-3.8-11.9v-2l0.3-0.3c0.3-0.6,0.9-0.9,1.5-0.9c1.5,0-0.3,0.9,1.2,0.9c2,0,1.5-1.2,2.3-1.5
		c7.3-2,15.4-4.4,24.4-6.4c7.8-11,2.6-11.3,12.2-11.3c1.5,0,2.3,0.9,3.5,1.7c0.9,2.3,3.8,4.1,6.4,6.1c1.2,0.3,0.3,0.3,1.7,0.3
		c1.7,0,12.5-2.3,18.9-2.3c16.2-0.9,45.8,0.3,48.2,0.3c1.2,0,15.4,2.9,22.6,5.2c3.5,1.2,9.3,2.6,13.9,6.1c3.2,2.3,1.2,4.9,3.5,7.5
		C406.2,327.4,403.3,329.8,401.8,329.8z"/>
	<path d="M426.5,424.9c-0.9,2.3-7,7.5-11.9,13.3c-0.9,1.2-1.2,2.6-0.9,4.6h-0.9c-0.3,0-0.6-0.3-1.2-0.9c-2.6,7.8-10.2,11.3-10.2,18
		c0,5.2,1.2,11.3,3.2,18.6l5.5,17.1c0.9,4.4,4.6,11,10.2,14.8c8.1,6.7,20,6.7,29,11c-1.2-0.3-2.9,0-4.4,0.3
		c-1.2,0.6-1.7,1.2-1.7,1.7c-2.3,0.3-6.7,2.6-9,2.6c-1.5,0-10.2-1.5-12.5-1.5c-1.5,0-6.1-2.9-8.4-5.2c-15.4-9.3-22.9-27-29.6-41.8
		c-4.9,4.6-13.6,16-18,23.2c-1.2,0-0.9-1.5-2-2.6L340,521.5c-1.2,0-0.6-1.5-2.6-1.5c-2.3,0-0.3,0.6-2.3,0.6c-1.7,0-3.8-1.5-5.8-4.6
		c-2.3-3.2-3.5-5.5-3.5-7c0-8.1,50.2-64.1,50.2-67.9c0-1.5-1.5-2.3-2.3-3.8c-0.9-7.8-0.3-16.8-1.5-23.8c-1.5-9.9,1.7-11.3-2.3-18.9
		c0.3-1.2,2.6-3.5,4.6-3.5s0.9,0.3,2,1.4c5.8,1.2,11.6,5.5,16,11c1.2,0.9,2,3.2,2.3,4.4c1.2,2.3,1.7,6.4,3.2,10.2
		c7.3-7.3,21.8-22.6,29.3-32.2c0.9-0.9,1.2-2,1.2-3.8c3.2-1.2,3.8-2.6,6.4-2.6l1.5-1.5c2.6,2.6,8.7,2.9,10.2,8.7l0.6-0.6
		c0.3-0.3,0.3-0.3,0.3-0.6c0,0.9,2,4.1,2,5.5C448.8,400.8,427.7,422.6,426.5,424.9z"/>
	<path d="M505.1,505.9c-1.5,0.9-6.1,0.6-7.5,0.6v-0.6c-1.2-1.2-1.5-0.6-3.5-0.6h-2.3c-4.1-5.5-11.9-18.3-11.9-19.4
		c0-1.5,2.3-4.4,4.9-5.8c0-1.5-0.6-2-2-2c0.3,0,1.7,1.2,3.2,1.2c2,0,6.1-5.2,9.6-7.8c15.1-12.5,22.6-29.9,25.2-43.5
		c-5.5-0.9-12.2,2.3-20,9c-4.4,2.9-10.4,15.4-12.2,15.4c-2,0,0.3-0.6-0.9-1.7c-1.5,3.2-5.5,7.3-7,11.6c-4.1,7.8-9.9,32.2-13.1,47
		c-0.9,4.6-3.8,11.9-5.2,16.8c-3.8,11.3-4.9,23.5-7.5,35.4c-0.3,2.6-2.3,7.8-4.6,10.4h-2c-2,0,0.6-1.7-1.5-1.7
		c-2.3,0-1.5,1.7-3.8,1.7c-1.5,0-3.2-2.6-4.6-2.9c0-0.3-0.3-1.2,0-2.3c-2.6-2.6-4.6-4.9-7.8-7.5c1.2-1.5,2-3.8,2.9-5.8
		c0.3-2.6-0.9-5.8-0.6-10.4c0-1.2,0.9-2,2-3.2c1.2-1.5,0-5.5,1.2-8.7c1.2-2.6,3.8-12.2,7.5-13.3c4.9-21.2,10.2-47,15.1-71.1
		c0.9-2.3-0.6-4.6-0.3-7.3c1.5-6.1,3.5-12.2,5.8-18.3c0.9-1.5,0.9-5.2,0-7.5c5.8-17.1,12.2-37.4,16.5-54.5c0.6-1.2,0.3-2.6-0.9-4.6
		c1.2,0,0.6,0.9,2.9,0.9c1.5,0,1.5-2.3,3.5-2.3c1.5,0,5.8,4.6,10.2,7.8c0.9,5.2,3.5,16.2,3.5,18.9c0,1.2-4.9,24.1-8.7,36l1.5,1.2
		h1.2c0.3,0,1.2-0.3,1.5-0.3c-1.5,2-4.9,5.2-6.4,8.4v0.6c0,0.3,0.3,0.3,0.6,0.6c3.5-5.8,20.3-22.3,28.4-22.3c2.3,0,10.2,2,15.1,3.2
		c2,1.2,4.9,4.1,6.4,5.2c9,4.4,10.7,14.5,10.7,21.2C550.1,456.5,527.8,493.4,505.1,505.9z"/>
	<path d="M625.5,487.6c0,1.5,1.2,2.3,3.2,2.9c-1.2,1.5-2,4.4-3.2,7c-4.9-1.2-7.5,5.2-7.5,9.9c-3.5,1.2-7,1.7-11.3,1.7
		c-1.5,0.9,0,1.2,1.2,1.2c-3.2,0.3-7.5,2.9-10.7,3.2v0.9c0,0.3-0.3,0.6-1.2,0.6c-3.5,0-11.9-5.8-12.8,0l-3.2-4.4
		c-8.4-2-10.7-4.1-18-11.9c-5.2-4.6-2.6,2.6-8.1-20.6c-1.5-11.6,1.2-17.7,2.3-22.3c1.2-5.5,5.5-16.8,9.9-25.8
		c2.3-4.6,5.2-11.3,9.6-18.3c2-2.6,5.5-7,7.5-10.7c4.4-3.8,4.9-6.7,10.7-10.2c2.6-1.2,8.7-2.9,7.8-6.1c-0.3,0.3-0.6,0.3-0.6,0.6
		c0,0.6,0.3,0.9,1.2,0.9c2.3,0-0.6-0.9,1.7-0.9c1.5,0,5.5,2.6,8.1,3.5c0.9,2.6,0,5.5,2,5.5c2.3,0,0-0.9,2-0.9c1.5,0,2.3,1.5,3.5,2.6
		c0,12.2,5.8,5.8,5.8,13.3c0,1.7-3.2,16.2-5.5,23.5c-2.3,4.6-8.4,13.3-13.3,19.4c-8.4,10.2-25,26.7-25,29.3c0,2.3,5.2,5.8,8.7,7.3
		c2,1.2,6.4,0.9,8.4,0.9c3.2,0,5.5-2.9,10.2-0.9c7.8-2.3,15.1-4.9,20.9-6.4c0.9,0.9,2,1.2,2.9,1.2
		C629.6,484.7,628.1,486.7,625.5,487.6z"/>
	<path d="M717.5,427.2c-3.2,0-6.7-1.2-12.2,0c-0.3-2-0.6-4.6-1.5-8.4c-11.6,4.4-21.2,18-28.4,29.3c0-0.9-0.3-1.5-1.2-1.5
		c-0.9,1.7-1.2,2.9-0.6,3.5c-0.3,0-0.6,0-0.9,0.3c-0.6,0.9-0.9,1.2-0.9,1.2c-0.3,0.9,0.9,1.2,0.9,2.3c-0.9,0-0.9,0.6-2,0.6h-0.3
		c-0.6,0-0.9,0.3-0.9,0.6c-0.9,1.2,1.2,1.7,1.2,2c-1.7,3.2-4.1,7-7,10.7c0,1.2,0.9,1.7,0.6,2c-1.2,2.6-2.9,4.1-4.9,6.1
		c-1.5,2-1.2,4.9-2.3,7.3c-3.8,7.8-7.5,17.4-4.9,25.5c-1.7,1.2-3.5,1.7-5.5,1.7c-1.2,0-5.5-2-8.1-3.2c-1.2-1.2,0-4.9-3.2-4.1
		c-2-6.1-4.9-10.4-4.9-15.1c0-1.7,4.6-17.7,5.2-25.5c2.6-10.7,4.6-21.5,5.5-32.8c0.9-6.7,2-15.4,2.9-23.8c0.9-5.5,1.2-11.9,2.6-17.4
		h3.5c3.2,0,9,4.4,10.4,8.1c1.5,4.4,2.6,8.4,2.9,12.8c0.3,3.2-0.9,5.8-0.9,10.2c2.9-7.3,18.9-19.4,28.1-19.4
		c8.4,0,21.2,4.9,27.9,13.1c1.2,1.5,1.7,4.1,3.2,6.4C720.7,422.3,716.3,424.6,717.5,427.2z"/>
	<path d="M774.4,478.3c0.9,0.3,2,0,2.9,1.2c-0.3,1.5-2.3,3.2-3.5,4.1c-0.9,1.2-1.2,2.9-0.9,4.9c-4.6,2.6-11.6,9-15.1,13.3
		c0,0.9,0.6,2.9-1.7,4.1c-3.5,2-9.6,3.8-11.6,3.8c-19.4,1.5-29.6-22.9-30.5-35.7c-0.3-3.5,0.6-13.6,2-19.1l3.2-12.2
		c2.6-12.5,5.8-22.6,9.6-30.5c0-0.9,0-2,0.3-4.1c1.2-0.9,1.5-3.2,3.5-5.2c2.3,0,4.4-1.2,6.7-1.5c3.8-0.3,7.5,1.5,11.6,4.6
		c4.4,3.2,6.7,6.7,7,10.4c0,1.5-1.2,3.2-1.5,5.5c-0.9,3.5-2,8.7-2.9,15.7c-0.9,6.7-2.3,11.9-4.4,15.1c-1.2,2.6-1.7,7.8-2.6,10.4
		c-3.5,11.9-6.1,15.7-4.1,22.6c13.6-6.1,27.3-16.8,36.8-26.4C775.5,462.6,780.7,472.8,774.4,478.3z M761.3,374.2
		c-4.4,0.3-8.4-2.3-11.6-3.8c-0.3-0.9,0-1.2-0.9-2c-4.4-2.3-7-9.6-8.4-14.5c-1.2-2.3-0.3-7.3-1.7-9.9c13.1,0.9,14.5-2.3,21.8-3.2
		c2,2.6,4.6,4.1,5.5,6.1c1.5,1.5-0.6,5.5,2.9,8.7C763.9,362.8,775.2,373.3,761.3,374.2z"/>
	<path d="M843.4,487.6c0,1.5,1.2,2.3,3.2,2.9c-1.2,1.5-2,4.4-3.2,7c-4.9-1.2-7.5,5.2-7.5,9.9c-3.5,1.2-7,1.7-11.3,1.7
		c-1.5,0.9,0,1.2,1.2,1.2c-3.2,0.3-7.5,2.9-10.7,3.2v0.9c0,0.3-0.3,0.6-1.2,0.6c-3.5,0-11.9-5.8-12.8,0l-3.2-4.4
		c-8.4-2-10.7-4.1-18-11.9c-5.2-4.6-2.6,2.6-8.1-20.6c-1.5-11.6,1.2-17.7,2.3-22.3c1.2-5.5,5.5-16.8,9.9-25.8
		c2.3-4.6,5.2-11.3,9.6-18.3c2-2.6,5.5-7,7.5-10.7c4.4-3.8,4.9-6.7,10.7-10.2c2.6-1.2,8.7-2.9,7.8-6.1c-0.3,0.3-0.6,0.3-0.6,0.6
		c0,0.6,0.3,0.9,1.2,0.9c2.3,0-0.6-0.9,1.7-0.9c1.5,0,5.5,2.6,8.1,3.5c0.9,2.6,0,5.5,2,5.5c2.3,0,0-0.9,2-0.9c1.5,0,2.3,1.5,3.5,2.6
		c0,12.2,5.8,5.8,5.8,13.3c0,1.7-3.2,16.2-5.5,23.5c-2.3,4.6-8.4,13.3-13.3,19.4c-8.4,10.2-25,26.7-25,29.3c0,2.3,5.2,5.8,8.7,7.3
		c2,1.2,6.4,0.9,8.4,0.9c3.2,0,5.5-2.9,10.2-0.9c7.8-2.3,15.1-4.9,20.9-6.4c0.9,0.9,2,1.2,2.9,1.2
		C847.5,484.7,846,486.7,843.4,487.6z"/>
	<path d="M974.3,479.5c-0.9,0.9,0.6,2.3,0.3,2.6c-0.9,0.9-1.7,1.5-2.6,2.6c0.6,0.3,1.5,0.6,2.3,0.6l-0.3,0.3
		c-0.6,0.6-0.9,0.9-1.2,0.6c-1.2,1.2-0.3,3.5-2.3,4.9c0.9,1.5,0,3.2,1.2,4.6c-1.5,1.5-3.8,2.6-4.1,4.9c-1.5,2.6-6.7,4.6-9,7.3
		c-2,0.9-4.4,4.9-5.2,6.4c-3.8,0.3-9.6-0.6-11.6-0.6c-3.2,0-16.8-7-17.7-9.9c-4.4-8.4-8.4-18-9.6-27c-1.5-5.8-1.5-17.1-1.7-25.5
		c-0.9-0.3,0.3-1.2-0.6-1.5c-7.8,9-17.1,22.3-25.2,31.9c-0.3,0.3-0.3,0.9,0,2c-2.6,4.9-5.5,10.2-9.3,14.8c-2.6,3.5-9,9.9-10.4,10.2
		c-2,0-3.5-2.9-4.9-2.6c-2.3,0,0.3,0.9-1.7,0.9c-7.3,0.9-8.4-13.6-9.6-14.8c-1.2-0.9-2.6-2.6-2.9-5.2c0-1.5,2.3-11,2.6-16.8
		c1.5-2.6,2.9-6.4,3.8-9c1.2-4.4,0.9-9.6,2-13.9c5.5-16,13.6-39.2,21.5-59.8c0-1.2-0.3-3.8-0.3-6.1c2.6-2.3,5.8-5.5,8.1-6.4
		c1.5,2,3.2,3.8,5.2,6.4c1.2-1.2,1.2-3.5,0.9-4.9c2,1.5,4.1,3.2,7.3,4.1c0,1.5-1.2,3.5,0,4.9h0.3c0.9,0,0.6-0.3,1.7-0.6l0.3,3.2
		c0.3,2-1.5,4.1-2.3,6.7c-0.9,4.9-1.5,12.5-2.6,18.3c0,2-0.9,2.9-1.7,4.1c-1.5,4.4-2,8.7-1.7,12.8c4.4-4.4,11.3-16.2,17.1-18.6
		c2.6-1.2,5.8-0.3,9.3-2.3c2,1.5,2.6,2.9,3.5,4.4c1.5-0.9,2-1.7,4.1-2c1.5,0,5.2,3.8,7.5,5.8v0.3c0,0.3-0.3,0.6-0.6,0.9
		c0,0.9,1.5,1.2,1.7,1.2c7,13.6,5.2,8.4,6.1,16.2c0.9,2-1.5,25.2-0.6,37.1c-0.9,4.6,0.3,10.2,0.6,16c0.9,0.6,2.3,0.9,3.8,0.6
		c4.9,0,15.1-8.1,20-10.2h-0.3c-0.6,0-0.9,0.3-0.6,0.6l-0.3,0.6h1.2c2-0.3,6.4-4.6,10.7-7C975.1,475.4,974.6,477.4,974.3,479.5z
		 M928.1,414.8l-0.3-1.5l-2,0.3l0.3,1.5L928.1,414.8z"/>
	<path d="M1062.5,462.6c-2,0-0.9-1.2-1.7,0c0,1.2-1.2,1.5,0.3,1.5c2,0,0.9-0.3,2-0.3c-1.2,1.2-2.6,4.4-1.7,5.5
		c-3.5,3.2-8.1,6.1-11.3,9.3c0,0.9,0.6,1.2,1.5,1.2v2.9c-7,3.8-14.5,9-25,15.1c-1.2,1.2-2,3.8-3.5,4.9c-3.2,1.7-18.3,7-24.7,7
		c-15.1,0-28.1-16-29-28.7c0-2.3-0.3-5.2-0.3-7.3c0-4.4,0.6-10.2,2-17.4c1.5-7.5,3.5-13.9,6.4-18.9c0.9-0.3,0.6-2.3,0.9-3.8
		c2.6-5.8,5.5-11.3,9.3-16c2.6-2.6,5.2-4.6,6.7-7.8c0-0.3,0-0.6-0.3-0.9c-0.9,0.9-1.2,1.2-1.2,1.5c3.5-4.4,7.5-12.5,12.2-17.4
		c1.2-2,4.4-1.7,6.7-2.9c2-1.2,2.6-3.2,4.9-3.2c1.5,0,9,1.5,12.2,2.9c3.2,2,9.3,6.7,11.3,11.3c1.5,3.2,2.9,8.7,2.9,11
		c0,2.9-3.2,20-6.4,21.8c-0.9,0.6-2.3,0.9-4.4,0.9c-4.6,0-7-3.5-8.1-7.8c-1.2-3.2-3.8-5.8-2.6-9v-0.3h-0.9
		c-10.7,13.6-19.1,28.7-24.1,39.5c-2.9,6.7-7.8,23.5-7.8,25v4.1c2.6,1.2,7,2,8.4,2c1.5,0,8.1-3.2,12.8-5.2
		c10.4-4.4,23.8-8.7,37.4-15.7c3.5-2,12.8-7.3,19.7-10.4C1065.7,458.3,1064.8,462.6,1062.5,462.6z"/>
	<path d="M1126,487.6c0,1.5,1.2,2.3,3.2,2.9c-1.2,1.5-2,4.4-3.2,7c-4.9-1.2-7.5,5.2-7.5,9.9c-3.5,1.2-7,1.7-11.3,1.7
		c-1.5,0.9,0,1.2,1.2,1.2c-3.2,0.3-7.5,2.9-10.7,3.2v0.9c0,0.3-0.3,0.6-1.2,0.6c-3.5,0-11.9-5.8-12.8,0l-3.2-4.4
		c-8.4-2-10.7-4.1-18-11.9c-5.2-4.6-2.6,2.6-8.1-20.6c-1.5-11.6,1.2-17.7,2.3-22.3c1.2-5.5,5.5-16.8,9.9-25.8
		c2.3-4.6,5.2-11.3,9.6-18.3c2-2.6,5.5-7,7.5-10.7c4.4-3.8,4.9-6.7,10.7-10.2c2.6-1.2,8.7-2.9,7.8-6.1c-0.3,0.3-0.6,0.3-0.6,0.6
		c0,0.6,0.3,0.9,1.2,0.9c2.3,0-0.6-0.9,1.7-0.9c1.5,0,5.5,2.6,8.1,3.5c0.9,2.6,0,5.5,2,5.5c2.3,0,0-0.9,2-0.9c1.5,0,2.3,1.5,3.5,2.6
		c0,12.2,5.8,5.8,5.8,13.3c0,1.7-3.2,16.2-5.5,23.5c-2.3,4.6-8.4,13.3-13.3,19.4c-8.4,10.2-25,26.7-25,29.3c0,2.3,5.2,5.8,8.7,7.3
		c2,1.2,6.4,0.9,8.4,0.9c3.2,0,5.5-2.9,10.2-0.9c7.8-2.3,15.1-4.9,20.9-6.4c0.9,0.9,2,1.2,2.9,1.2
		C1130.1,484.7,1128.6,486.7,1126,487.6z"/>
	<path d="M1217.1,396.8c0.9,5.8,0.3,16-2.3,21.5c-1.2,1.2-4.1,2-6.1,2c-1.5,0-6.1-2-8.7-4.6c-1.4,0.6-2,1.5-2.3,2.6
		c-2.6,21.8-0.3,44.4-4.1,66.4c-1.5,10.7-4.6,38-21.8,38c-2.3,0-1.7-0.9-2.9-1.2c-0.9-0.9,0,0.3-2.3,0.3c-5.2,0-12.2-8.1-13.3-8.1
		c-9.3-5.5-22.3-27.9-22.3-39.7c0-3.5,2.6-12.8,6.1-17.7c0.9,0,1.7-0.3,2.3-0.6c0.3,1.5-0.9,3.8-1.2,5.8c0.9,1.2,1.5,0.9,2.6,2
		c1.2,0,0.3,2,0.3,4.6c1.5,1.5,2.6,0.9,0,3.5c1.2,2,1.5,3.8,1.2,5.2c1.2,2.3,4.4,4.6,2.9,7.8l1.2,1.2c0.9-1.2,2-1.7,3.2-1.7
		c3.2,5.5,3.2,13.1,9,16.8c3.5-3.2,5.8-8.1,7.3-12.5c7-16.5,5.5-46.4,5.5-59.5c0-4.4,2-9.9,2-14.5c0-1.5-0.9-3.2-0.9-4.6
		c0-3.8,0.9-7.3,1.7-13.3c0-3.5,0.9-29.3,8.1-29.3c2.3,0,2,0.3,3.2,1.2c4.6-0.6,9.6,0.9,15.1,4.4c5.5,3.2,9.9,6.4,12.8,9.3
		c0.3,1.2,0.3,2,0.3,3.2c2.3,1.5,4.6,6.1,4.6,8.1C1218.3,395.3,1218,395.9,1217.1,396.8z M1148.9,483.5h-1.2v-4.4h1.2V483.5z"/>
</g>
</svg>
