<?xml version="1.0" encoding="utf-8"?>
<!-- Generator: Adobe Illustrator 19.2.1, SVG Export Plug-In . SVG Version: 6.00 Build 0)  -->
<svg version="1.1" id="Layer_1" xmlns="http://www.w3.org/2000/svg" xmlns:xlink="http://www.w3.org/1999/xlink" x="0px" y="0px"
	 width="681.8px" height="554.1px" viewBox="0 0 681.8 554.1" style="enable-background:new 0 0 681.8 554.1;" xml:space="preserve"
	>
<path d="M681.8,65.6c-25.1,11.1-52,18.6-80.3,22c28.9-17.3,51.1-44.7,61.5-77.4c-27,16-57,27.7-88.8,33.9C548.6,17,512.3,0,472.1,0
	c-77.3,0-139.9,62.6-139.9,139.9c0,11,1.2,21.6,3.6,31.9c-116.3-5.8-219.3-61.5-288.3-146.2c-12,20.7-18.9,44.7-18.9,70.3
	c0,48.5,24.7,91.3,62.2,116.4c-22.9-0.7-44.5-7-63.4-17.5c0,0.6,0,1.2,0,1.8c0,67.8,48.2,124.3,112.2,137.2
	c-11.7,3.2-24.1,4.9-36.9,4.9c-9,0-17.8-0.9-26.3-2.5c17.8,55.6,69.5,96,130.7,97.1c-47.9,37.5-108.2,59.9-173.7,59.9
	c-11.3,0-22.4-0.7-33.4-2c61.9,39.7,135.4,62.8,214.4,62.8c257.3,0,398-213.2,398-398c0-6.1-0.1-12.1-0.4-18.1
	C639.4,118.3,663.1,93.6,681.8,65.6z"/>
</svg>
