<svg id="df5e3f16-a0b8-4032-b343-c22726c32a2e" data-name="Layer 1" xmlns="http://www.w3.org/2000/svg" viewBox="0 0 263 32.23"><title>twu_logo</title><path d="M168.34,3.07l-2,8.64c-.09.4-.15.78-.19,1.07a8.45,8.45,0,0,0-.22-1.07L163.22,1.42V1.37h-2.48l-2.65,10.38a8.5,8.5,0,0,0-.21,1.07c0-.29-.1-.67-.2-1.07L155.6,2.84a1.9,1.9,0,0,0-1.86-1.48h-1.45l3.84,15.07,0,.06h1.77A1.94,1.94,0,0,0,159.76,15l1.9-7.45c.15-.58.25-1.16.31-1.54.06.38.17,1,.32,1.54l1.92,7.4a2.08,2.08,0,0,0,2,1.55h1.66L171.7,1.37h-1.23A2.19,2.19,0,0,0,168.34,3.07Z" transform="translate(-1.27 -1.18)" fill="#8b2332"/><path d="M182.52,1.2h0A7.75,7.75,0,0,0,177,3.43a7.56,7.56,0,0,0-2.19,5.43A7.87,7.87,0,0,0,177,14.41a7.64,7.64,0,0,0,5.49,2.24h0a7.65,7.65,0,0,0,5.51-2.29,7.88,7.88,0,0,0,2.19-5.58A7.6,7.6,0,0,0,182.52,1.2Zm0,12.83a4.6,4.6,0,0,1-3.38-1.46,5.42,5.42,0,0,1-1.42-3.72,4.85,4.85,0,0,1,4.77-5h0a4.85,4.85,0,0,1,4.79,5A4.9,4.9,0,0,1,182.55,14Z" transform="translate(-1.27 -1.18)" fill="#8b2332"/><path d="M207.17,1.37a2,2,0,0,0-1.86,1.28l-2.4,6.11c-.25.68-.55,1.61-.67,2-.13-.39-.44-1.32-.71-2L199.1,2.7a2.1,2.1,0,0,0-2-1.32h-1.6l-1.15,15v.08h2.87l.6-8.47c0-.63,0-1.42,0-1.9.17.5.46,1.35.7,1.92L201,13.8l0,.05h2.48L205.89,8c.23-.57.5-1.4.66-1.9,0,.48,0,1.24,0,1.87l.68,8.51h2.85L208.83,1.37Z" transform="translate(-1.27 -1.18)" fill="#8b2332"/><path d="M244.47,1.91a1.86,1.86,0,0,0-1.31-.54h-1l0,8.65c0,.6.08,1.47.12,2a20,20,0,0,0-1.1-2l-5.07-7.65a2.13,2.13,0,0,0-1.78-1H232.7V16.5h2.87l0-8.74c0-.6-.08-1.47-.12-2a20.12,20.12,0,0,0,1.1,2l5.67,8.66,0,0h2.82L245,3.19A1.78,1.78,0,0,0,244.47,1.91Z" transform="translate(-1.27 -1.18)" fill="#8b2332"/><path d="M250,1.18h0a1.4,1.4,0,0,0-1,.42,1.43,1.43,0,0,0-.41,1,1.23,1.23,0,0,0,1.24,1.31l.21,0a3.14,3.14,0,0,1-1.25,1.5l-.1.06,1.07.86.05,0A4,4,0,0,0,251.59,3a2,2,0,0,0-.48-1.36A1.51,1.51,0,0,0,250,1.18Z" transform="translate(-1.27 -1.18)" fill="#8b2332"/><path d="M66.95,1.41a2.41,2.41,0,0,0-2.4,2.42v.08l5.22,0,.06,12.6H72.7L72.64,3.88h2.81a2.41,2.41,0,0,0,2.4-2.42V1.37Z" transform="translate(-1.27 -1.18)" fill="#8b2332"/><path d="M91.13,14.69a2.41,2.41,0,0,0-1.71-.7h0l-4.16,0,0-3.87,5,0V7.61l-5,0,0-3.76,3.82,0a2.43,2.43,0,0,0,2.42-2.44v0H82.29l.07,15.08v0h9.49v-.08A2.41,2.41,0,0,0,91.13,14.69Z" transform="translate(-1.27 -1.18)" fill="#8b2332"/><path d="M109,1.37h-2.24a1.84,1.84,0,0,0-1.58.94l-1.59,2.82c-.37.69-.72,1.43-.84,1.72-.14-.28-.51-1-.9-1.71l-1.59-2.85a1.81,1.81,0,0,0-1.58-.92H96.46L101,8.87l-4.62,7.62h3.21l2.27-4c.39-.68.74-1.39.86-1.66.14.27.5,1,.88,1.65l1.81,3.1a1.94,1.94,0,0,0,1.68,1h2.13l-4.76-7.64Z" transform="translate(-1.27 -1.18)" fill="#8b2332"/><path d="M119.67,1.39H118l-5.2,15,0,.11h3L117,12.64l5.1,0,.79,2.35c.17.51.26.75.33.94l.2.54,0,0h2.94l-5-13.86A1.89,1.89,0,0,0,119.67,1.39Zm1.71,8.86-3.67,0L119,6.39c.21-.62.45-1.59.56-2.05.11.46.34,1.43.54,2Z" transform="translate(-1.27 -1.18)" fill="#8b2332"/><path d="M130.38,5.57c0-1.71,1.37-4.35,5.11-4.35a6.63,6.63,0,0,1,4.38,2s-.11.16-.46.62a1.83,1.83,0,0,1-1.44.83c-1.19,0-1.48-.9-2.76-.9a1.85,1.85,0,0,0-2,1.52c0,1,.4,1.35,2.88,2.43,1.21.53,4.15,1.42,4.15,4.52,0,.59-.37,4.39-5,4.39a7.57,7.57,0,0,1-5.19-2.08l.5-.7a1.85,1.85,0,0,1,1.44-.75c.93,0,1.52.88,3.39.88,0,0,2,0,2-1.69,0-1.31-2.5-2.19-3.44-2.58S130.38,8.23,130.38,5.57Z" transform="translate(-1.27 -1.18)" fill="#8b2332"/><path d="M221.33,1.39h-1.63l-5.2,15,0,.11h3l1.25-3.86,5.1,0,.79,2.35c.17.51.26.75.33.94l.2.54,0,0h2.94l-5-13.86A1.89,1.89,0,0,0,221.33,1.39ZM223,10.25l-3.67,0,1.27-3.88c.21-.62.45-1.59.56-2.05.11.46.34,1.43.54,2Z" transform="translate(-1.27 -1.18)" fill="#8b2332"/><path d="M254.37,5.57c0-1.71,1.37-4.35,5.11-4.35a6.63,6.63,0,0,1,4.38,2s-.11.16-.46.62a1.83,1.83,0,0,1-1.44.83c-1.19,0-1.48-.9-2.76-.9a1.85,1.85,0,0,0-2,1.52c0,1,.4,1.35,2.88,2.43,1.21.53,4.15,1.42,4.15,4.52,0,.59-.37,4.39-5,4.39a7.57,7.57,0,0,1-5.19-2.08l.5-.7a1.85,1.85,0,0,1,1.44-.75c.93,0,1.52.88,3.39.88,0,0,2,0,2-1.69,0-1.31-2.5-2.19-3.44-2.58S254.37,8.23,254.37,5.57Z" transform="translate(-1.27 -1.18)" fill="#8b2332"/><path d="M65.87,29.53l0-4.57h1.4l0,4.52c0,1.48.77,2.27,2,2.26s2-.76,2-2.23l0-4.57h1.4l0,4.51c0,2.37-1.32,3.57-3.39,3.59A3.13,3.13,0,0,1,65.87,29.53Z" transform="translate(-1.27 -1.18)" fill="#010101"/><path d="M78.17,24.87h1.29l4.29,5.47,0-5.49h1.37l0,7.95H84l-4.42-5.63,0,5.65H78.22Z" transform="translate(-1.27 -1.18)" fill="#010101"/><path d="M91,24.79h1.4l0,7.95h-1.4Z" transform="translate(-1.27 -1.18)" fill="#010101"/><path d="M97.25,24.74H98.8l2.43,6.09,2.35-6.12h1.51l-3.25,8h-1.23Z" transform="translate(-1.27 -1.18)" fill="#010101"/><path d="M109.55,24.66l5.89,0v1.25l-4.5,0V28l4,0v1.25l-4,0v2.13l4.55,0v1.25l-5.95,0Z" transform="translate(-1.27 -1.18)" fill="#010101"/><path d="M120.81,24.58l3.54,0a3.2,3.2,0,0,1,2.3.78,2.4,2.4,0,0,1,.67,1.71v0a2.38,2.38,0,0,1-1.88,2.42l2.16,3H126l-2-2.76h-1.75l0,2.77h-1.4Zm3.46,3.92c1,0,1.63-.53,1.63-1.34v0c0-.85-.62-1.31-1.65-1.31h-2l0,2.67Z" transform="translate(-1.27 -1.18)" fill="#010101"/><path d="M132.29,31.25l.83-1a3.66,3.66,0,0,0,2.52,1c.86,0,1.41-.41,1.4-1v0c0-.57-.32-.87-1.8-1.2-1.69-.4-2.65-.89-2.66-2.36v0a2.43,2.43,0,0,1,2.7-2.32,4.4,4.4,0,0,1,2.89,1l-.74,1.06a3.61,3.61,0,0,0-2.16-.8c-.82,0-1.29.43-1.29,1v0c0,.61.37.88,1.89,1.24,1.68.4,2.56,1,2.57,2.31v0c0,1.49-1.15,2.38-2.82,2.39A4.89,4.89,0,0,1,132.29,31.25Z" transform="translate(-1.27 -1.18)" fill="#010101"/><path d="M144.29,24.43h1.4l0,7.95h-1.4Z" transform="translate(-1.27 -1.18)" fill="#010101"/><path d="M153.79,25.66l-2.52,0V24.38l6.45,0v1.29l-2.52,0,0,6.65h-1.41Z" transform="translate(-1.27 -1.18)" fill="#010101"/><path d="M164.69,29.11l-3.19-4.79h1.65l2.25,3.51,2.23-3.53h1.6l-3.13,4.8,0,3.17h-1.41Z" transform="translate(-1.27 -1.18)" fill="#010101"/><path d="M29.66,13.35C29.66,4.25,20.9,4,19.37,4H13.88A5.09,5.09,0,0,1,9.36,1.24a0,0,0,0,1,0-.06h9.34c1.53,0,6.71.08,9.93,3.11,0,0,3-3.11,9-3.11h10s0,0,0,0A5.22,5.22,0,0,1,42.89,4H38.41c-1,0-5.22-.12-7.9,2.45a11.17,11.17,0,0,1,1,1.79s1.64-2.33,5.72-2.33c3.51,0,4.93,0,5.26,0a0,0,0,0,1,0,.07,5.28,5.28,0,0,1-4.4,2.75c-3.45,0-5.61.64-5.61,4.14v7.56S32.4,26,35.39,26c2.46,0,2.84-2.81,3.61-6,0,0,1.14-7.14,6.78-10.11,4-2.12,7.9-1.9,10.27-1.89a.07.07,0,0,1,.07.1,3.88,3.88,0,0,1-3.29,2.69c-5.47.49-8.11,2.65-9.68,5.86-2.56,5.23-1.8,12.13-7.63,12.13,0,0-5.81.95-5.81-8.78Z" transform="translate(-1.27 -1.18)" fill="#8b2332"/><path d="M35.22,33.41c5.48,0,9.33-3.7,10.49-9.6,1.12-5.74,2.24-7,4.86-8.08A3.94,3.94,0,0,0,52.94,13a.09.09,0,0,0-.09-.11,12,12,0,0,0-3.05.31c-9.58,2.57-3.66,17.38-14.46,17.38-7.88,0-7.67-10-7.67-10v-7C27.67,5.56,20,5.86,20,5.86H14.59a0,0,0,0,0,0,.07A5.24,5.24,0,0,0,19,8.64c3.1,0,5.89.25,5.89,5.73v1.35s0-2.87,0,1.95C24.88,22.79,25,26,22,26c-2.46,0-2.84-2.81-3.61-6,0,0-1.14-7.14-6.78-10.11-4-2.13-7.9-1.9-10.27-1.89A.07.07,0,0,0,1.27,8a3.89,3.89,0,0,0,3.29,2.7c5.47.49,8.11,2.65,9.68,5.86C16.8,21.8,16,28.78,21.88,28.78c0,0,3.11,0,4-2.37A12.87,12.87,0,0,0,27,28.68a6,6,0,0,1-4.54,2C11,30.65,17.09,15.77,7.52,13.2a12.08,12.08,0,0,0-3.07-.31.08.08,0,0,0-.08.09,3.94,3.94,0,0,0,2.38,2.73c2.63,1.1,3.74,2.34,4.86,8.08,1.16,5.9,5,9.6,10.49,9.6a10.6,10.6,0,0,0,6.63-2.51A9.59,9.59,0,0,0,35.22,33.41Z" transform="translate(-1.27 -1.18)" fill="#8b2332"/></svg>