<?xml version="1.0" encoding="utf-8"?>
<!-- Generator: Adobe Illustrator 19.2.1, SVG Export Plug-In . SVG Version: 6.00 Build 0)  -->
<svg version="1.1" id="YouTube_Logo" xmlns="http://www.w3.org/2000/svg" xmlns:xlink="http://www.w3.org/1999/xlink" x="0px"
	 y="0px" width="3207px" height="1338.3px" viewBox="0 0 3207 1338.3" style="enable-background:new 0 0 3207 1338.3;"
	 xml:space="preserve">
<g id="You">
</g>
<g id="Tube">
	<g>
		<path d="M1075.4,929.4c-25.7,36.3-46.8,56.5-70.1,56.5c-15.5,0-23.1-6.6-25.9-24.5c0-6.4,0-17.7,0-44.8V436.5H857.7v512.1
			c0,44.4,5.6,74.7,13.5,94.1c13,31.9,39,49.5,76.3,49.5c42.6,0,81.7-26.7,127.8-79.5v70.4H1197V436.5h-121.6V929.4z"/>
		<path d="M595.3,431.8c-58,0-102.1,18.1-134.4,62.3c-24.9,32.7-38.3,85.1-38.3,154.2l-0.1,229.9c0,68.7,11.9,116.2,36.8,148.5
			c32.4,44.1,84.8,67.4,136,67.4c51.2,0,104.6-23.4,137-67.4c24.5-32.3,35.8-79.8,35.8-148.5V647.8c0-69.1-13.9-121-38.4-153.6
			C697.3,449.9,646.5,431.8,595.3,431.8z M595.3,986.8c-37.8,0-57.6-31.8-51.2-95.8V635c-6.4-64,13.4-94,51.2-94s57.7,30,51.3,94
			l-0.1,256C652.9,955,633,986.8,595.3,986.8z"/>
		<path d="M313.6,218.9l-89.4,337.2l-89.8-337.2H0C27.4,299.3,160,731,160,731V1083h128V731l160-512.1H313.6z"/>
		<path d="M2925.2,616.3c0-59.2-15.3-76.9-53.7-76.9c-38.7,0-55.1,16.3-55.1,76.1v70.8l108.8-0.1V616.3z"/>
		<path d="M2447.9,539.3c-19.1,0-40.9,10.1-60.3,29.2l-0.1,388.2c19.4,19.4,41.4,29.2,60.4,29.2c33.4,0,48.5-24.5,48.5-88.5V622.1
			C2496.4,558.1,2481.3,539.3,2447.9,539.3z"/>
		<path d="M3187.9,288.7c0,0-18.7-131.1-76-188.9c-72.7-75.8-154.2-76.2-191.5-80.6C2653,0,2251.8,0,2251.8,0h-0.8
			c0,0-401.2,0-668.7,19.2c-37.4,4.4-118.8,4.8-191.5,80.6c-57.3,57.7-76,188.9-76,188.9s-19.1,154-19.1,308V741
			c0,154,19.1,307.9,19.1,307.9s18.7,131.1,76,188.9c72.7,75.8,168.2,73.4,210.8,81.3c152.9,14.6,649.9,19.1,649.9,19.1
			s401.6-0.6,669.1-19.8c37.4-4.4,118.8-4.8,191.5-80.6c57.3-57.7,76-188.9,76-188.9S3207,895,3207,741V596.7
			C3207,442.7,3187.9,288.7,3187.9,288.7z M1715.5,1083h-128V346.9H1453V225.4l403.3-0.1v121.6h-140.8V1083z M2176.3,1083h-121.6
			v-70.4c-46.1,52.8-85.2,79.5-127.8,79.5c-37.4,0-63.3-17.6-76.3-49.5c-7.9-19.4-13.5-49.6-13.5-94.1V442.9h121.6v473.7
			c0,27.2,0,38.4,0,44.8c2.8,18,10.5,24.5,25.9,24.5c23.3,0,44.3-20.2,70.1-56.5V442.9h121.6V1083z M2618,891
			c0,59.2-5.1,100.9-12.8,128c-15.5,47.6-49.2,72.3-95.3,72.3c-41.2,0-83.4-24.8-122.1-72.7l-0.2,64.4h-115.2V225.3h115.2
			l-0.1,279.6c37.4-46.1,79.8-72.3,122.4-72.3c46.1,0,77.2,26.7,92.6,74.6c7.7,25.7,15.5,67.1,15.5,127.7V891z M2872.6,985.9
			c28.5,0,45.2-15.5,51.8-46.5c1.1-6.3,0.9-34,0.9-80.4h121.6v18.1c0,37.3-3.1,63.8-4.1,75.4c-3.9,25.7-13,48.9-27.1,69.4
			c-32.1,46.4-79.6,69.3-140.2,69.3c-60.6,0-106.8-21.8-140.3-65.5c-24.6-32-40.4-79.6-40.4-147.6v-224c0-68.4,14.4-121.2,39-153.6
			c33.5-43.8,79.7-66.9,138.8-66.9c58.1,0,104.3,23.2,136.8,66.9c24.2,32.4,37.7,82.4,37.7,150.7l0,130.9h-230.7v114.9
			C2816,956.2,2832.8,985.9,2872.6,985.9z"/>
	</g>
</g>
</svg>
