<?xml version="1.0" encoding="utf-8"?>
<!-- Generator: Adobe Illustrator 19.2.1, SVG Export Plug-In . SVG Version: 6.00 Build 0)  -->
<svg version="1.1" id="YouTube_Icon" xmlns="http://www.w3.org/2000/svg" xmlns:xlink="http://www.w3.org/1999/xlink" x="0px"
	 y="0px" width="2209.4px" height="1554px" viewBox="0 0 2209.4 1554" style="enable-background:new 0 0 2209.4 1554;"
	 xml:space="preserve">
<style type="text/css">
	.st0{fill:#FFFFFF;}
</style>
<polygon class="st0" points="1593.2,1040.3 1593.2,1327.3 1869.2,1184.3 "/>
<g id="Lozenge">
	<g>
		<path d="M2187.4,335.2c0,0-21.6-152.3-87.8-219.3c-84-88-178.2-88.4-221.4-93.6C1569,0,1105.2,0,1105.2,0h-1c0,0-463.8,0-773,22.3
			c-43.2,5.2-137.3,5.6-221.4,93.6c-66.2,67-87.8,219.3-87.8,219.3S0,514,0,692.8v167.6C0,1039.3,22.1,1218,22.1,1218
			s21.6,152.3,87.8,219.3c84,88,194.4,85.2,243.6,94.4c176.8,16.9,751.2,22.2,751.2,22.2s464.3-0.7,773.4-23
			c43.2-5.2,137.4-5.6,221.4-93.6c66.2-67,87.8-219.3,87.8-219.3s22.1-178.8,22.1-357.6V692.8C2209.4,514,2187.4,335.2,2187.4,335.2
			z M876.6,1063.6l-0.1-620.8l597,311.5L876.6,1063.6z"/>
	</g>
</g>
</svg>
